<svg width="3143" height="439" xmlns="http://www.w3.org/2000/svg" xmlns:xlink="http://www.w3.org/1999/xlink" xml:space="preserve" overflow="hidden"><defs><filter id="fx0" x="-10%" y="-10%" width="120%" height="120%" filterUnits="userSpaceOnUse" primitiveUnits="userSpaceOnUse"><feComponentTransfer color-interpolation-filters="sRGB"><feFuncR type="discrete" tableValues="0 0"/><feFuncG type="discrete" tableValues="0 0"/><feFuncB type="discrete" tableValues="0 0"/><feFuncA type="linear" slope="0.301961" intercept="0"/></feComponentTransfer><feGaussianBlur stdDeviation="6.11111 6.11111"/></filter><filter id="fx1" x="-10%" y="-10%" width="120%" height="120%" filterUnits="userSpaceOnUse" primitiveUnits="userSpaceOnUse"><feComponentTransfer color-interpolation-filters="sRGB"><feFuncR type="discrete" tableValues="0 0"/><feFuncG type="discrete" tableValues="0 0"/><feFuncB type="discrete" tableValues="0 0"/><feFuncA type="linear" slope="0.301961" intercept="0"/></feComponentTransfer><feGaussianBlur stdDeviation="6.11111 6.11111"/></filter><filter id="fx2" x="-10%" y="-10%" width="120%" height="120%" filterUnits="userSpaceOnUse" primitiveUnits="userSpaceOnUse"><feComponentTransfer color-interpolation-filters="sRGB"><feFuncR type="discrete" tableValues="0 0"/><feFuncG type="discrete" tableValues="0 0"/><feFuncB type="discrete" tableValues="0 0"/><feFuncA type="linear" slope="0.301961" intercept="0"/></feComponentTransfer><feGaussianBlur stdDeviation="6.11608 6.11111"/></filter><clipPath id="clip3"><rect x="603" y="536" width="3143" height="439"/></clipPath></defs><g clip-path="url(#clip3)" transform="translate(-603 -536)"><g filter="url(#fx0)" transform="matrix(2 0 0 2 1558 535)"><g><path d="M19.2228 19.2228 480.287 19.2228 597.223 110.223 480.287 201.223 19.2228 201.223 19.2228 200.573 135.324 110.223 19.2228 19.8724Z" fill="#404040" fill-rule="evenodd"/></g></g><path d="M1577 554 2499.13 554 2733 736 2499.13 918 1577 918 1577 916.701 1809.2 736 1577 555.299Z" fill="#404040" fill-rule="evenodd"/><text fill="#FFFFFF" font-family="Microsoft YaHei,Microsoft YaHei_MSFontService,sans-serif" font-weight="700" font-size="83" transform="matrix(1 0 0 1 1951.04 761)">已暂存</text><text fill="#FFFFFF" font-family="Book Antiqua,Book Antiqua_MSFontService,sans-serif" font-weight="700" font-size="83" transform="matrix(1 0 0 1 2219.16 761)">staged</text><g filter="url(#fx1)" transform="matrix(2 0 0 2 602 535)"><g><path d="M19.2228 19.2228 480.287 19.2228 597.223 110.223 480.287 201.223 19.2228 201.223 19.2228 200.573 135.324 110.223 19.2228 19.8724Z" fill="#C00000" fill-rule="evenodd"/></g></g><path d="M621 554 1543.13 554 1777 736 1543.13 918 621 918 621 916.701 853.202 736 621 555.299Z" fill="#C00000" fill-rule="evenodd"/><text fill="#FFFFFF" font-family="Microsoft YaHei,Microsoft YaHei_MSFontService,sans-serif" font-weight="700" font-size="83" transform="matrix(1 0 0 1 940.049 768)">已修改</text><text fill="#FFFFFF" font-family="Book Antiqua,Book Antiqua_MSFontService,sans-serif" font-weight="700" font-size="83" transform="matrix(1 0 0 1 1208.17 768)">modified</text><g filter="url(#fx2)" transform="matrix(1.99838 0 0 2 2515 535)"><g><path d="M19.2385 19.2228 480.278 19.2228 597.208 110.223 480.278 201.223 19.2385 201.223 19.2385 200.573 135.333 110.223 19.2385 19.8724Z" fill="#C00000" fill-rule="evenodd"/></g></g><path d="M2534 554 3455.33 554 3689 736 3455.33 918 2534 918 2534 916.701 2766 736 2534 555.299Z" fill="#C00000" fill-rule="evenodd"/><text fill="#FFFFFF" font-family="Microsoft YaHei,Microsoft YaHei_MSFontService,sans-serif" font-weight="700" font-size="83" transform="matrix(1 0 0 1 2832.7 768)">已提交</text><text fill="#FFFFFF" font-family="Book Antiqua,Book Antiqua_MSFontService,sans-serif" font-weight="700" font-size="83" transform="matrix(1 0 0 1 3100.83 768)">committed</text></g></svg>