<svg width="3818" height="781" xmlns="http://www.w3.org/2000/svg" xmlns:xlink="http://www.w3.org/1999/xlink" xml:space="preserve" overflow="hidden"><g transform="translate(-359 -1287)"><rect x="376.5" y="1288.5" width="3799" height="778" stroke="#0000FF" stroke-width="3.4375" stroke-linejoin="round" stroke-miterlimit="10" stroke-dasharray="13.75 10.3125" fill="none"/><text fill="#006600" font-family="Consolas,Consolas_MSFontService,sans-serif" font-weight="400" font-size="83" transform="matrix(1 0 0 1 409.25 1458)">/**</text><text fill="#006600" font-family="Consolas,Consolas_MSFontService,sans-serif" font-weight="400" font-size="83" transform="matrix(1 0 0 1 409.25 1557)">* Pops a value from this queue.</text><text fill="#006600" font-family="Consolas,Consolas_MSFontService,sans-serif" font-weight="400" font-size="83" transform="matrix(1 0 0 1 409.25 1656)">* @return next value in the queue, and removes the value from the queue</text><text fill="#006600" font-family="Consolas,Consolas_MSFontService,sans-serif" font-weight="400" font-size="83" transform="matrix(1 0 0 1 409.25 1755)">* @throws </text><text fill="#006600" font-family="Consolas,Consolas_MSFontService,sans-serif" font-weight="400" font-size="83" transform="matrix(1 0 0 1 861.854 1755)">EmptyQueueException</text><text fill="#006600" font-family="Consolas,Consolas_MSFontService,sans-serif" font-weight="400" font-size="83" transform="matrix(1 0 0 1 1767.06 1755)">if this queue is empty</text><text fill="#006600" font-family="Consolas,Consolas_MSFontService,sans-serif" font-weight="400" font-size="83" transform="matrix(1 0 0 1 409.25 1854)">*/</text><text fill="#0000FF" font-family="Consolas,Consolas_MSFontService,sans-serif" font-weight="400" font-size="83" transform="matrix(1 0 0 1 409.25 1953)">int</text><text fill="#0000FF" font-family="Consolas,Consolas_MSFontService,sans-serif" font-weight="400" font-size="83" transform="matrix(1 0 0 1 590.292 1953)">pop()</text><rect x="2872.5" y="1677.5" width="1303" height="239" stroke="#0000FF" stroke-width="3.4375" stroke-miterlimit="8" fill="#FFCDAB"/><text fill="#0000FF" font-family="Book Antiqua,Book Antiqua_MSFontService,sans-serif" font-style="italic" font-weight="400" font-size="73" transform="matrix(1 0 0 1 2905.5 1777)">Unchecked</text><text fill="#0000FF" font-family="Microsoft YaHei,Microsoft YaHei_MSFontService,sans-serif" font-style="oblique" font-weight="400" font-size="73" transform="matrix(1 0 0 1 3226.33 1777)">异常</text><text fill="#0000FF" font-family="Microsoft YaHei,Microsoft YaHei_MSFontService,sans-serif" font-style="oblique" font-weight="400" font-size="73" transform="matrix(1 0 0 1 3391.33 1777)">可以不写</text><text fill="#0000FF" font-family="Book Antiqua,Book Antiqua_MSFontService,sans-serif" font-style="italic" font-weight="400" font-size="73" transform="matrix(1 0 0 1 3703 1777)">throws</text><text fill="#0000FF" font-family="Microsoft YaHei,Microsoft YaHei_MSFontService,sans-serif" font-style="oblique" font-weight="400" font-size="73" transform="matrix(1 0 0 1 3906.96 1777)">子句，</text><text fill="#0000FF" font-family="Microsoft YaHei,Microsoft YaHei_MSFontService,sans-serif" font-style="oblique" font-weight="400" font-size="73" transform="matrix(1 0 0 1 2905.5 1865)">要写写这</text><rect x="986.5" y="1876.5" width="1325" height="117" stroke="#0000FF" stroke-width="3.4375" stroke-miterlimit="8" fill="#FFCDAB"/><text fill="#0000FF" font-family="Microsoft YaHei,Microsoft YaHei_MSFontService,sans-serif" font-style="oblique" font-weight="400" font-size="73" transform="matrix(1 0 0 1 1019.25 1959)">方法签名上不要写</text><text fill="#0000FF" font-family="Book Antiqua,Book Antiqua_MSFontService,sans-serif" font-style="italic" font-weight="400" font-size="73" transform="matrix(1 0 0 1 1624.25 1959)">throws</text></g></svg>