<svg width="3961" height="1330" xmlns="http://www.w3.org/2000/svg" xmlns:xlink="http://www.w3.org/1999/xlink" xml:space="preserve" overflow="hidden"><defs><clipPath id="clip0"><rect x="216" y="688" width="3961" height="1330"/></clipPath></defs><g clip-path="url(#clip0)" transform="translate(-216 -688)"><rect x="388.5" y="689.5" width="1889" height="409" stroke="#0000FF" stroke-width="3.4375" stroke-miterlimit="8" stroke-dasharray="13.75 10.3125" fill="#FFFFFF"/><text font-family="Consolas,Consolas_MSFontService,sans-serif" font-weight="400" font-size="73" transform="matrix(1 0 0 1 421.437 786)">String </text><text fill="#080808" font-family="Consolas,Consolas_MSFontService,sans-serif" font-weight="400" font-size="73" transform="matrix(1 0 0 1 702.166 786)">s = </text><text fill="#067D17" font-family="Consolas,Consolas_MSFontService,sans-serif" font-weight="400" font-size="73" transform="matrix(1 0 0 1 862.583 786)">""</text><text fill="#080808" font-family="Consolas,Consolas_MSFontService,sans-serif" font-weight="400" font-size="73" transform="matrix(1 0 0 1 942.791 786)">;</text><text fill="#0033B3" font-family="Consolas,Consolas_MSFontService,sans-serif" font-weight="400" font-size="73" transform="matrix(1 0 0 1 421.437 874)">for </text><text fill="#080808" font-family="Consolas,Consolas_MSFontService,sans-serif" font-weight="400" font-size="73" transform="matrix(1 0 0 1 581.854 874)">(</text><text fill="#0033B3" font-family="Consolas,Consolas_MSFontService,sans-serif" font-weight="400" font-size="73" transform="matrix(1 0 0 1 621.958 874)">int </text><text fill="#080808" font-family="Consolas,Consolas_MSFontService,sans-serif" font-weight="400" font-size="73" transform="matrix(1 0 0 1 782.375 874)">i = </text><text fill="#1750EB" font-family="Consolas,Consolas_MSFontService,sans-serif" font-weight="400" font-size="73" transform="matrix(1 0 0 1 942.791 874)">0</text><text fill="#080808" font-family="Consolas,Consolas_MSFontService,sans-serif" font-weight="400" font-size="73" transform="matrix(1 0 0 1 982.895 874)">; i &lt; </text><text font-family="Consolas,Consolas_MSFontService,sans-serif" font-weight="400" font-size="73" transform="matrix(1 0 0 1 1223.52 874)">N</text><text fill="#080808" font-family="Consolas,Consolas_MSFontService,sans-serif" font-weight="400" font-size="73" transform="matrix(1 0 0 1 1263.62 874)">; i++) {</text><text fill="#080808" font-family="Consolas,Consolas_MSFontService,sans-serif" font-weight="400" font-size="73" transform="matrix(1 0 0 1 581.854 963)">s = s + i; </text><text fill="#0000FF" font-family="Consolas,Consolas_MSFontService,sans-serif" font-style="italic" font-weight="400" font-size="73" transform="matrix(1 0 0 1 1023 963)">// </text><text fill="#0000FF" font-family="SimSun,SimSun_MSFontService,sans-serif" font-style="oblique" font-weight="400" font-size="73" transform="matrix(1 0 0 1 1143.31 963)">字符串连接</text><text fill="#080808" font-family="Consolas,Consolas_MSFontService,sans-serif" font-weight="400" font-size="73" transform="matrix(1 0 0 1 421.437 1051)">}</text><rect x="2420.5" y="689.5" width="1755" height="409" stroke="#0000FF" stroke-width="3.4375" stroke-miterlimit="8" stroke-dasharray="13.75 10.3125" fill="#FFFFFF"/><text font-family="Consolas,Consolas_MSFontService,sans-serif" font-weight="400" font-size="73" transform="matrix(1 0 0 1 2453 786)">StringBuilder sb </text><text fill="#080808" font-family="Consolas,Consolas_MSFontService,sans-serif" font-weight="400" font-size="73" transform="matrix(1 0 0 1 3134.77 786)">= </text><text fill="#0033B3" font-family="Consolas,Consolas_MSFontService,sans-serif" font-weight="400" font-size="73" transform="matrix(1 0 0 1 3214.98 786)">new </text><text fill="#080808" font-family="Consolas,Consolas_MSFontService,sans-serif" font-weight="400" font-size="73" transform="matrix(1 0 0 1 3375.4 786)">StringBuilder(</text><text fill="#080808" font-family="Consolas,Consolas_MSFontService,sans-serif" font-weight="400" font-size="73" transform="matrix(1 0 0 1 3936.85 786)">“”</text><text fill="#080808" font-family="Consolas,Consolas_MSFontService,sans-serif" font-weight="400" font-size="73" transform="matrix(1 0 0 1 4017.06 786)">);</text><text fill="#0033B3" font-family="Consolas,Consolas_MSFontService,sans-serif" font-weight="400" font-size="73" transform="matrix(1 0 0 1 2453 874)">for </text><text fill="#080808" font-family="Consolas,Consolas_MSFontService,sans-serif" font-weight="400" font-size="73" transform="matrix(1 0 0 1 2613.42 874)">(</text><text fill="#0033B3" font-family="Consolas,Consolas_MSFontService,sans-serif" font-weight="400" font-size="73" transform="matrix(1 0 0 1 2653.52 874)">int </text><text fill="#080808" font-family="Consolas,Consolas_MSFontService,sans-serif" font-weight="400" font-size="73" transform="matrix(1 0 0 1 2813.94 874)">i = </text><text fill="#1750EB" font-family="Consolas,Consolas_MSFontService,sans-serif" font-weight="400" font-size="73" transform="matrix(1 0 0 1 2974.35 874)">0</text><text fill="#080808" font-family="Consolas,Consolas_MSFontService,sans-serif" font-weight="400" font-size="73" transform="matrix(1 0 0 1 3014.46 874)">; i &lt; </text><text font-family="Consolas,Consolas_MSFontService,sans-serif" font-weight="400" font-size="73" transform="matrix(1 0 0 1 3255.08 874)">N</text><text fill="#080808" font-family="Consolas,Consolas_MSFontService,sans-serif" font-weight="400" font-size="73" transform="matrix(1 0 0 1 3295.19 874)">; i++) {</text><text font-family="Consolas,Consolas_MSFontService,sans-serif" font-weight="400" font-size="73" transform="matrix(1 0 0 1 2613.42 962)">sb</text><text fill="#080808" font-family="Consolas,Consolas_MSFontService,sans-serif" font-weight="400" font-size="73" transform="matrix(1 0 0 1 2693.62 962)">.append(</text><text font-family="Consolas,Consolas_MSFontService,sans-serif" font-weight="400" font-size="73" transform="matrix(1 0 0 1 3014.46 962)">String</text><text fill="#080808" font-family="Consolas,Consolas_MSFontService,sans-serif" font-weight="400" font-size="73" transform="matrix(1 0 0 1 3255.08 962)">.</text><text fill="#080808" font-family="Consolas,Consolas_MSFontService,sans-serif" font-style="italic" font-weight="400" font-size="73" transform="matrix(1 0 0 1 3295.19 962)">valueOf</text><text fill="#080808" font-family="Consolas,Consolas_MSFontService,sans-serif" font-weight="400" font-size="73" transform="matrix(1 0 0 1 3575.92 962)">(i));</text><text fill="#080808" font-family="Consolas,Consolas_MSFontService,sans-serif" font-weight="400" font-size="73" transform="matrix(1 0 0 1 2453 1051)">}</text><path d="M221.5 1548.5C221.5 1493.82 301.641 1449.5 400.5 1449.5 499.359 1449.5 579.5 1493.82 579.5 1548.5 579.5 1603.18 499.359 1647.5 400.5 1647.5 301.641 1647.5 221.5 1603.18 221.5 1548.5Z" fill="#FFFFFF" fill-rule="evenodd"/><path d="M215.765 1548.5 216.021 1542.88 216.783 1537.34 218.034 1531.9 219.758 1526.56 221.935 1521.34 224.549 1516.25 227.58 1511.3 231.011 1506.49 234.827 1501.82 239.067 1497.24 248.429 1488.72 259.176 1480.77 271.148 1473.48 284.255 1466.89 298.41 1461.04 313.526 1455.96 329.518 1451.7 346.298 1448.3 363.78 1445.82 381.877 1444.29 400.5 1443.77 419.123 1444.29 437.219 1445.82 454.702 1448.3 471.482 1451.7 487.474 1455.96 502.59 1461.04 516.745 1466.89 529.852 1473.48 541.824 1480.77 552.571 1488.72 561.933 1497.24 566.172 1501.82 569.989 1506.49 573.42 1511.3 576.451 1516.25 579.065 1521.34 581.242 1526.56 582.966 1531.9 584.217 1537.34 584.978 1542.88 585.235 1548.5 584.978 1554.12 584.217 1559.66 582.966 1565.1 581.242 1570.44 579.065 1575.66 576.451 1580.75 573.42 1585.7 569.989 1590.52 566.172 1595.18 561.933 1599.76 552.571 1608.28 541.824 1616.23 529.852 1623.52 516.745 1630.11 502.59 1635.96 487.474 1641.04 471.482 1645.3 454.702 1648.7 437.219 1651.18 419.123 1652.71 400.5 1653.23 381.877 1652.71 363.78 1651.18 346.298 1648.7 329.518 1645.3 313.526 1641.04 298.41 1635.96 284.255 1630.11 271.148 1623.52 259.176 1616.23 248.429 1608.28 239.067 1599.76 234.827 1595.18 231.011 1590.51 227.58 1585.7 224.549 1580.75 221.935 1575.66 219.758 1570.44 218.034 1565.1 216.783 1559.66 216.021 1554.12ZM219.829 1553.77 220.544 1558.97 221.72 1564.08 223.344 1569.11 225.402 1574.05 227.881 1578.88 230.768 1583.59 234.048 1588.2 237.71 1592.67 241.758 1597.05 250.857 1605.33 261.308 1613.06 273.001 1620.18 285.844 1626.63 299.749 1632.38 314.627 1637.38 330.389 1641.58 346.947 1644.93 364.21 1647.39 382.091 1648.9 400.5 1649.41 418.909 1648.9 436.79 1647.39 454.053 1644.93 470.611 1641.58 486.373 1637.38 501.25 1632.38 515.156 1626.63 527.999 1620.18 539.691 1613.06 550.143 1605.33 559.242 1597.05 563.29 1592.68 566.952 1588.2 570.232 1583.59 573.119 1578.88 575.598 1574.05 577.656 1569.11 579.28 1564.08 580.456 1558.97 581.171 1553.77 581.412 1548.5 581.171 1543.23 580.456 1538.03 579.28 1532.92 577.656 1527.89 575.598 1522.95 573.119 1518.12 570.232 1513.41 566.952 1508.8 563.29 1504.33 559.242 1499.95 550.143 1491.67 539.691 1483.94 527.999 1476.82 515.156 1470.37 501.25 1464.62 486.373 1459.62 470.611 1455.42 454.053 1452.07 436.79 1449.61 418.909 1448.1 400.5 1447.59 382.091 1448.1 364.21 1449.61 346.947 1452.07 330.389 1455.42 314.627 1459.62 299.749 1464.62 285.844 1470.37 273.001 1476.82 261.308 1483.94 250.857 1491.67 241.758 1499.95 237.71 1504.33 234.048 1508.8 230.768 1513.41 227.881 1518.12 225.402 1522.95 223.344 1527.89 221.72 1532.92 220.544 1538.03 219.829 1543.23 219.588 1548.5ZM223.412 1548.5 223.637 1543.58 224.304 1538.72 225.405 1533.93 226.929 1529.21 228.869 1524.56 231.214 1520 233.956 1515.51 237.085 1511.12 240.592 1506.83 244.45 1502.67 253.284 1494.63 263.441 1487.11 274.855 1480.17 287.434 1473.84 301.089 1468.2 315.728 1463.28 331.261 1459.14 347.595 1455.83 364.64 1453.41 382.305 1451.92 400.5 1451.41 418.695 1451.92 436.36 1453.41 453.405 1455.83 469.739 1459.14 485.271 1463.28 499.911 1468.2 513.566 1473.84 526.145 1480.17 537.559 1487.11 547.716 1494.63 556.55 1502.67 560.407 1506.83 563.915 1511.12 567.044 1515.51 569.786 1520 572.131 1524.56 574.07 1529.21 575.595 1533.93 576.696 1538.72 577.363 1543.58 577.588 1548.5 577.363 1553.42 576.696 1558.28 575.595 1563.07 574.07 1567.79 572.131 1572.44 569.786 1577 567.044 1581.49 563.915 1585.88 560.407 1590.17 556.55 1594.33 547.716 1602.37 537.559 1609.89 526.145 1616.83 513.566 1623.16 499.911 1628.8 485.271 1633.72 469.739 1637.86 453.405 1641.17 436.36 1643.59 418.695 1645.08 400.5 1645.59 382.305 1645.08 364.64 1643.59 347.595 1641.17 331.261 1637.86 315.728 1633.72 301.089 1628.8 287.434 1623.16 274.855 1616.83 263.441 1609.89 253.284 1602.37 244.45 1594.33 240.592 1590.17 237.085 1585.88 233.956 1581.49 231.214 1577 228.869 1572.44 226.929 1567.79 225.405 1563.07 224.304 1558.28 223.637 1553.42ZM227.444 1553.07 228.065 1557.59 229.091 1562.05 230.515 1566.47 232.335 1570.83 234.546 1575.13 237.144 1579.38 240.122 1583.56 243.475 1587.66 247.142 1591.62 255.712 1599.42 265.574 1606.71 276.708 1613.49 289.024 1619.68 302.429 1625.22 316.829 1630.06 332.132 1634.14 348.243 1637.4 365.07 1639.79 382.519 1641.27 400.5 1641.77 418.48 1641.27 435.93 1639.79 452.757 1637.4 468.868 1634.14 484.17 1630.06 498.571 1625.22 511.976 1619.68 524.292 1613.49 535.426 1606.71 545.288 1599.42 553.858 1591.62 557.525 1587.66 560.878 1583.56 563.856 1579.38 566.454 1575.13 568.665 1570.83 570.484 1566.47 571.909 1562.05 572.935 1557.59 573.556 1553.07 573.765 1548.5 573.556 1543.93 572.935 1539.41 571.909 1534.95 570.484 1530.53 568.665 1526.17 566.454 1521.87 563.856 1517.62 560.878 1513.44 557.525 1509.34 553.858 1505.38 545.288 1497.58 535.426 1490.29 524.292 1483.51 511.976 1477.32 498.571 1471.78 484.17 1466.94 468.868 1462.86 452.757 1459.6 435.93 1457.21 418.48 1455.73 400.5 1455.23 382.519 1455.73 365.07 1457.21 348.243 1459.6 332.132 1462.86 316.829 1466.94 302.429 1471.78 289.024 1477.32 276.708 1483.51 265.574 1490.29 255.712 1497.58 247.142 1505.38 243.475 1509.34 240.122 1513.44 237.144 1517.62 234.546 1521.87 232.335 1526.17 230.515 1530.54 229.091 1534.95 228.065 1539.41 227.444 1543.93 227.235 1548.5Z"/><text fill="#080808" font-family="Consolas,Consolas_MSFontService,sans-serif" font-weight="400" font-size="64" transform="matrix(1 0 0 1 293.625 1532)">String</text><text fill="#080808" font-family="Consolas,Consolas_MSFontService,sans-serif" font-weight="400" font-size="64" transform="matrix(1 0 0 1 364.666 1609)">“”</text><text font-family="Arial,Arial_MSFontService,sans-serif" font-weight="400" font-size="110" transform="matrix(1 0 0 1 1299.02 1233)">s</text><path d="M614.5 1551.5C614.5 1495.17 700.685 1449.5 807 1449.5 913.315 1449.5 999.5 1495.17 999.5 1551.5 999.5 1607.83 913.315 1653.5 807 1653.5 700.685 1653.5 614.5 1607.83 614.5 1551.5Z" fill="#FFFFFF" fill-rule="evenodd"/><path d="M608.764 1551.5 609.041 1545.71 609.861 1539.99 611.207 1534.38 613.06 1528.88 615.401 1523.51 618.208 1518.27 621.463 1513.17 625.145 1508.22 629.24 1503.42 633.73 1498.78 638.6 1494.29 643.89 1489.92 655.353 1481.8 668.192 1474.31 682.251 1467.54 697.436 1461.52 713.655 1456.3 730.815 1451.92 748.824 1448.43 767.587 1445.87 787.01 1444.3 807 1443.77 826.99 1444.3 846.414 1445.87 865.177 1448.43 883.185 1451.92 900.345 1456.3 916.564 1461.52 931.749 1467.54 945.808 1474.31 958.647 1481.8 970.11 1489.92 975.4 1494.29 980.271 1498.78 984.76 1503.42 988.855 1508.22 992.538 1513.17 995.792 1518.27 998.599 1523.51 1000.94 1528.88 1002.79 1534.38 1004.14 1539.99 1004.96 1545.71 1005.24 1551.5 1004.96 1557.29 1004.14 1563.01 1002.79 1568.62 1000.94 1574.12 998.599 1579.49 995.792 1584.73 992.538 1589.83 988.855 1594.78 984.76 1599.58 980.271 1604.22 975.4 1608.71 970.11 1613.08 958.647 1621.2 945.808 1628.69 931.749 1635.46 916.564 1641.48 900.345 1646.7 883.185 1651.08 865.177 1654.57 846.414 1657.13 826.99 1658.7 807 1659.23 787.01 1658.7 767.587 1657.13 748.824 1654.57 730.815 1651.08 713.655 1646.7 697.436 1641.48 682.251 1635.46 668.192 1628.69 655.353 1621.2 643.89 1613.08 638.6 1608.71 633.73 1604.22 629.24 1599.58 625.145 1594.78 621.463 1589.83 618.208 1584.73 615.401 1579.49 613.06 1574.12 611.207 1568.62 609.861 1563.01 609.041 1557.29ZM612.847 1556.93 613.616 1562.29 614.881 1567.56 616.628 1572.74 618.841 1577.83 621.506 1582.8 624.608 1587.66 628.134 1592.39 632.068 1597.01 636.399 1601.49 641.113 1605.83 646.214 1610.05 657.423 1617.99 669.985 1625.31 683.785 1631.96 698.727 1637.88 714.714 1643.03 731.652 1647.35 749.446 1650.8 767.999 1653.33 787.216 1654.88 807 1655.41 826.785 1654.88 846.002 1653.33 864.555 1650.8 882.348 1647.35 899.286 1643.03 915.274 1637.88 930.215 1631.96 944.015 1625.31 956.578 1617.99 967.786 1610.05 972.888 1605.83 977.601 1601.49 981.932 1597.01 985.867 1592.39 989.392 1587.66 992.495 1582.8 995.16 1577.83 997.373 1572.74 999.119 1567.56 1000.38 1562.29 1001.15 1556.93 1001.41 1551.5 1001.15 1546.07 1000.38 1540.71 999.119 1535.44 997.373 1530.26 995.16 1525.17 992.495 1520.2 989.392 1515.34 985.867 1510.61 981.932 1505.99 977.601 1501.51 972.888 1497.17 967.786 1492.95 956.578 1485.01 944.015 1477.69 930.215 1471.04 915.274 1465.12 899.286 1459.98 882.348 1455.65 864.555 1452.2 846.002 1449.67 826.785 1448.12 807 1447.59 787.216 1448.12 767.999 1449.67 749.446 1452.2 731.652 1455.65 714.714 1459.98 698.727 1465.12 683.785 1471.04 669.985 1477.69 657.423 1485.01 646.214 1492.95 641.113 1497.17 636.399 1501.51 632.068 1505.99 628.134 1510.61 624.608 1515.34 621.506 1520.2 618.841 1525.17 616.628 1530.26 614.881 1535.44 613.616 1540.71 612.847 1546.07 612.588 1551.5ZM616.412 1551.5 616.654 1546.43 617.372 1541.43 618.555 1536.5 620.195 1531.63 622.28 1526.84 624.803 1522.13 627.754 1517.51 631.122 1512.99 634.897 1508.56 639.069 1504.25 643.625 1500.05 648.538 1495.99 659.493 1488.23 671.779 1481.06 685.319 1474.54 700.017 1468.72 715.772 1463.65 732.489 1459.38 750.067 1455.97 768.411 1453.47 787.421 1451.93 807 1451.41 826.58 1451.93 845.59 1453.47 863.933 1455.97 881.511 1459.38 898.228 1463.65 913.984 1468.72 928.681 1474.54 942.222 1481.06 954.507 1488.23 965.462 1495.99 970.375 1500.05 974.932 1504.25 979.103 1508.56 982.878 1512.99 986.246 1517.51 989.197 1522.13 991.72 1526.84 993.806 1531.63 995.445 1536.5 996.629 1541.43 997.346 1546.43 997.588 1551.5 997.346 1556.57 996.629 1561.57 995.445 1566.5 993.806 1571.37 991.72 1576.16 989.197 1580.87 986.246 1585.49 982.878 1590.01 979.103 1594.44 974.932 1598.75 970.375 1602.95 965.462 1607.01 954.507 1614.77 942.222 1621.94 928.681 1628.46 913.984 1634.28 898.228 1639.35 881.511 1643.62 863.933 1647.03 845.59 1649.53 826.579 1651.07 807 1651.59 787.421 1651.07 768.411 1649.53 750.067 1647.03 732.489 1643.62 715.772 1639.35 700.017 1634.28 685.319 1628.46 671.779 1621.94 659.493 1614.77 648.538 1607.01 643.625 1602.95 639.069 1598.75 634.897 1594.44 631.122 1590.01 627.754 1585.49 624.803 1580.87 622.28 1576.16 620.195 1571.37 618.555 1566.5 617.372 1561.57 616.654 1556.57ZM620.46 1556.2 621.127 1560.85 622.229 1565.45 623.762 1569.99 625.72 1574.49 628.101 1578.93 630.899 1583.32 634.11 1587.63 637.726 1591.87 641.738 1596.02 646.138 1600.07 650.862 1603.98 661.563 1611.56 673.572 1618.56 686.853 1624.96 701.307 1630.68 716.831 1635.68 733.325 1639.89 750.689 1643.26 768.823 1645.73 787.626 1647.25 807 1647.77 826.374 1647.25 845.177 1645.73 863.311 1643.26 880.675 1639.89 897.169 1635.68 912.694 1630.68 927.147 1624.96 940.428 1618.56 952.437 1611.56 963.138 1603.98 967.862 1600.07 972.262 1596.02 976.275 1591.87 979.89 1587.63 983.101 1583.32 985.899 1578.93 988.28 1574.49 990.239 1569.99 991.771 1565.45 992.873 1560.85 993.54 1556.2 993.764 1551.5 993.54 1546.8 992.873 1542.15 991.771 1537.55 990.239 1533.01 988.28 1528.51 985.899 1524.07 983.101 1519.69 979.89 1515.37 976.275 1511.13 972.262 1506.98 967.862 1502.93 963.138 1499.02 952.437 1491.44 940.428 1484.44 927.147 1478.04 912.694 1472.32 897.169 1467.32 880.675 1463.11 863.311 1459.74 845.177 1457.27 826.374 1455.75 807 1455.23 787.626 1455.75 768.823 1457.27 750.689 1459.74 733.325 1463.11 716.831 1467.32 701.307 1472.32 686.853 1478.04 673.572 1484.44 661.563 1491.44 650.862 1499.02 646.138 1502.93 641.738 1506.98 637.726 1511.13 634.11 1515.37 630.899 1519.69 628.101 1524.07 625.72 1528.51 623.762 1533.01 622.229 1537.55 621.127 1542.15 620.46 1546.8 620.236 1551.5Z"/><text fill="#080808" font-family="Consolas,Consolas_MSFontService,sans-serif" font-weight="400" font-size="64" transform="matrix(1 0 0 1 699.958 1535)">String</text><text fill="#080808" font-family="Consolas,Consolas_MSFontService,sans-serif" font-weight="400" font-size="64" transform="matrix(1 0 0 1 753.24 1612)">“</text><text fill="#080808" font-family="Consolas,Consolas_MSFontService,sans-serif" font-weight="400" font-size="64" transform="matrix(1 0 0 1 788.76 1612)">1”</text><path d="M1034.5 1556.5C1034.5 1497.41 1118.89 1449.5 1223 1449.5 1327.11 1449.5 1411.5 1497.41 1411.5 1556.5 1411.5 1615.59 1327.11 1663.5 1223 1663.5 1118.89 1663.5 1034.5 1615.59 1034.5 1556.5Z" fill="#FFFFFF" fill-rule="evenodd"/><path d="M1028.77 1556.5 1029.03 1550.48 1029.83 1544.55 1031.13 1538.72 1032.93 1532.99 1035.21 1527.39 1037.95 1521.93 1041.12 1516.61 1044.71 1511.43 1048.72 1506.4 1053.11 1501.54 1057.88 1496.83 1063.06 1492.24 1074.29 1483.72 1086.87 1475.86 1100.66 1468.74 1115.55 1462.42 1131.46 1456.94 1148.29 1452.34 1165.95 1448.67 1184.35 1445.98 1203.4 1444.33 1223 1443.77 1242.6 1444.33 1261.65 1445.98 1280.05 1448.67 1297.71 1452.34 1314.54 1456.94 1330.45 1462.42 1345.34 1468.74 1359.13 1475.86 1371.71 1483.72 1382.94 1492.24 1388.12 1496.83 1392.89 1501.54 1397.28 1506.4 1401.29 1511.43 1404.88 1516.61 1408.05 1521.93 1410.79 1527.39 1413.07 1532.99 1414.87 1538.72 1416.17 1544.55 1416.97 1550.48 1417.23 1556.5 1416.97 1562.52 1416.17 1568.45 1414.87 1574.28 1413.07 1580.01 1410.79 1585.61 1408.05 1591.07 1404.88 1596.39 1401.29 1601.57 1397.28 1606.6 1392.89 1611.46 1388.12 1616.17 1382.94 1620.76 1371.71 1629.28 1359.13 1637.14 1345.34 1644.26 1330.45 1650.58 1314.54 1656.06 1297.71 1660.66 1280.05 1664.33 1261.65 1667.02 1242.6 1668.67 1223 1669.23 1203.4 1668.67 1184.35 1667.02 1165.95 1664.33 1148.29 1660.66 1131.46 1656.06 1115.55 1650.58 1100.66 1644.26 1086.87 1637.14 1074.29 1629.28 1063.06 1620.76 1057.88 1616.17 1053.11 1611.46 1048.72 1606.6 1044.71 1601.57 1041.12 1596.39 1037.95 1591.07 1035.21 1585.61 1032.93 1580.01 1031.13 1574.28 1029.83 1568.45 1029.03 1562.52ZM1032.84 1562.18 1033.59 1567.78 1034.83 1573.29 1036.53 1578.71 1038.69 1584.03 1041.3 1589.24 1044.33 1594.33 1047.78 1599.29 1051.63 1604.12 1055.87 1608.82 1060.48 1613.38 1065.48 1617.8 1076.46 1626.14 1088.77 1633.82 1102.28 1640.8 1116.92 1647.01 1132.59 1652.41 1149.18 1656.95 1166.61 1660.57 1184.79 1663.22 1203.62 1664.85 1223 1665.41 1242.38 1664.85 1261.21 1663.22 1279.39 1660.57 1296.82 1656.95 1313.41 1652.41 1329.08 1647.01 1343.72 1640.8 1357.23 1633.82 1369.54 1626.14 1380.52 1617.8 1385.51 1613.38 1390.13 1608.82 1394.37 1604.12 1398.22 1599.29 1401.67 1594.33 1404.7 1589.24 1407.31 1584.03 1409.47 1578.71 1411.17 1573.29 1412.41 1567.78 1413.16 1562.18 1413.41 1556.5 1413.16 1550.82 1412.41 1545.22 1411.17 1539.71 1409.47 1534.29 1407.31 1528.97 1404.7 1523.76 1401.67 1518.67 1398.22 1513.71 1394.37 1508.88 1390.13 1504.18 1385.51 1499.62 1380.52 1495.2 1369.54 1486.86 1357.23 1479.18 1343.72 1472.2 1329.08 1465.99 1313.41 1460.59 1296.82 1456.05 1279.39 1452.43 1261.21 1449.78 1242.38 1448.15 1223 1447.59 1203.62 1448.15 1184.79 1449.78 1166.61 1452.43 1149.18 1456.05 1132.59 1460.59 1116.92 1465.99 1102.28 1472.2 1088.77 1479.18 1076.46 1486.86 1065.48 1495.2 1060.48 1499.62 1055.87 1504.18 1051.63 1508.88 1047.78 1513.71 1044.33 1518.67 1041.3 1523.76 1038.69 1528.97 1036.53 1534.29 1034.83 1539.71 1033.59 1545.22 1032.84 1550.82 1032.59 1556.5ZM1036.41 1556.5 1036.65 1551.16 1037.35 1545.9 1038.52 1540.7 1040.13 1535.58 1042.18 1530.55 1044.65 1525.6 1047.54 1520.74 1050.85 1515.99 1054.55 1511.35 1058.63 1506.82 1063.09 1502.41 1067.9 1498.15 1078.63 1490.01 1090.66 1482.5 1103.91 1475.66 1118.29 1469.56 1133.71 1464.24 1150.07 1459.77 1167.28 1456.19 1185.23 1453.57 1203.84 1451.96 1223 1451.41 1242.16 1451.96 1260.77 1453.57 1278.72 1456.19 1295.93 1459.77 1312.29 1464.24 1327.71 1469.56 1342.09 1475.66 1355.34 1482.5 1367.37 1490.01 1378.1 1498.15 1382.91 1502.41 1387.37 1506.82 1391.45 1511.35 1395.15 1515.99 1398.46 1520.74 1401.35 1525.6 1403.82 1530.55 1405.87 1535.58 1407.48 1540.7 1408.65 1545.9 1409.35 1551.16 1409.59 1556.5 1409.35 1561.84 1408.65 1567.1 1407.48 1572.3 1405.87 1577.42 1403.82 1582.45 1401.35 1587.4 1398.46 1592.26 1395.15 1597.01 1391.45 1601.65 1387.37 1606.18 1382.91 1610.59 1378.1 1614.85 1367.37 1622.99 1355.34 1630.5 1342.09 1637.34 1327.71 1643.44 1312.29 1648.76 1295.93 1653.23 1278.72 1656.81 1260.77 1659.43 1242.16 1661.04 1223 1661.59 1203.84 1661.04 1185.23 1659.43 1167.28 1656.81 1150.07 1653.23 1133.71 1648.76 1118.29 1643.44 1103.91 1637.34 1090.66 1630.5 1078.63 1622.99 1067.9 1614.85 1063.09 1610.59 1058.63 1606.18 1054.55 1601.65 1050.85 1597.01 1047.54 1592.26 1044.65 1587.4 1042.18 1582.45 1040.13 1577.42 1038.52 1572.3 1037.35 1567.1 1036.65 1561.84ZM1040.46 1561.5 1041.12 1566.43 1042.21 1571.31 1043.72 1576.12 1045.66 1580.88 1048 1585.57 1050.76 1590.19 1053.91 1594.73 1057.46 1599.18 1061.39 1603.54 1065.7 1607.8 1070.33 1611.89 1080.8 1619.84 1092.55 1627.18 1105.53 1633.88 1119.66 1639.87 1134.84 1645.11 1150.97 1649.52 1167.94 1653.05 1185.67 1655.63 1204.06 1657.23 1223 1657.77 1241.94 1657.23 1260.33 1655.63 1278.06 1653.05 1295.03 1649.52 1311.16 1645.11 1326.34 1639.87 1340.47 1633.88 1353.45 1627.18 1365.2 1619.84 1375.67 1611.89 1380.3 1607.8 1384.61 1603.54 1388.54 1599.18 1392.09 1594.73 1395.24 1590.19 1398 1585.57 1400.34 1580.88 1402.28 1576.12 1403.79 1571.31 1404.88 1566.43 1405.54 1561.5 1405.77 1556.5 1405.54 1551.5 1404.88 1546.57 1403.79 1541.69 1402.28 1536.88 1400.34 1532.12 1398 1527.43 1395.24 1522.81 1392.09 1518.27 1388.54 1513.82 1384.61 1509.46 1380.3 1505.2 1375.67 1501.11 1365.2 1493.16 1353.45 1485.82 1340.47 1479.12 1326.34 1473.13 1311.16 1467.89 1295.03 1463.48 1278.06 1459.95 1260.33 1457.37 1241.94 1455.77 1223 1455.23 1204.06 1455.77 1185.67 1457.37 1167.94 1459.95 1150.97 1463.48 1134.84 1467.89 1119.66 1473.13 1105.53 1479.12 1092.55 1485.82 1080.8 1493.16 1070.33 1501.11 1065.7 1505.2 1061.39 1509.46 1057.46 1513.82 1053.91 1518.27 1050.76 1522.81 1048 1527.43 1045.66 1532.12 1043.72 1536.88 1042.21 1541.69 1041.12 1546.57 1040.46 1551.5 1040.23 1556.5Z"/><text fill="#080808" font-family="Consolas,Consolas_MSFontService,sans-serif" font-weight="400" font-size="64" transform="matrix(1 0 0 1 1115.57 1540)">String</text><text fill="#080808" font-family="Consolas,Consolas_MSFontService,sans-serif" font-weight="400" font-size="64" transform="matrix(1 0 0 1 1151.09 1617)">“</text><text fill="#080808" font-family="Consolas,Consolas_MSFontService,sans-serif" font-weight="400" font-size="64" transform="matrix(1 0 0 1 1186.61 1617)">12”</text><path d="M1868.5 1556.5C1868.5 1497.41 1960.06 1449.5 2073 1449.5 2185.94 1449.5 2277.5 1497.41 2277.5 1556.5 2277.5 1615.59 2185.94 1663.5 2073 1663.5 1960.06 1663.5 1868.5 1615.59 1868.5 1556.5Z" fill="#FFFFFF" fill-rule="evenodd"/><path d="M1862.76 1556.5 1863.06 1550.44 1863.93 1544.47 1865.35 1538.6 1867.31 1532.85 1869.79 1527.23 1872.76 1521.76 1876.21 1516.43 1880.11 1511.25 1884.45 1506.23 1889.2 1501.37 1894.36 1496.68 1899.91 1492.15 1905.84 1487.79 1912.18 1483.57 1925.73 1475.76 1940.64 1468.67 1956.75 1462.37 1973.95 1456.9 1992.16 1452.31 2011.27 1448.65 2031.18 1445.98 2051.79 1444.33 2073 1443.77 2094.21 1444.33 2114.82 1445.98 2134.73 1448.65 2153.84 1452.31 2172.05 1456.9 2189.25 1462.37 2205.36 1468.67 2220.27 1475.76 2233.82 1483.57 2240.16 1487.79 2246.09 1492.15 2251.64 1496.68 2256.8 1501.37 2261.55 1506.23 2265.89 1511.25 2269.79 1516.43 2273.24 1521.76 2276.21 1527.23 2278.69 1532.85 2280.65 1538.6 2282.07 1544.47 2282.94 1550.44 2283.24 1556.5 2282.94 1562.56 2282.07 1568.53 2280.65 1574.4 2278.69 1580.15 2276.21 1585.77 2273.24 1591.24 2269.79 1596.57 2265.89 1601.75 2261.55 1606.77 2256.8 1611.63 2251.64 1616.32 2246.09 1620.85 2240.16 1625.21 2233.82 1629.43 2220.27 1637.24 2205.36 1644.33 2189.25 1650.63 2172.05 1656.1 2153.84 1660.69 2134.73 1664.35 2114.82 1667.02 2094.21 1668.67 2073 1669.23 2051.79 1668.67 2031.18 1667.02 2011.27 1664.35 1992.16 1660.69 1973.95 1656.1 1956.75 1650.63 1940.64 1644.33 1925.73 1637.24 1912.18 1629.43 1905.84 1625.21 1899.91 1620.85 1894.36 1616.32 1889.2 1611.63 1884.45 1606.77 1880.11 1601.75 1876.21 1596.57 1872.76 1591.24 1869.79 1585.77 1867.31 1580.15 1865.35 1574.4 1863.93 1568.53 1863.06 1562.56ZM1866.86 1562.19 1867.68 1567.8 1869.02 1573.33 1870.87 1578.76 1873.22 1584.08 1876.05 1589.29 1879.34 1594.38 1883.08 1599.35 1887.26 1604.18 1891.86 1608.88 1896.86 1613.43 1902.26 1617.83 1908.03 1622.08 1914.19 1626.19 1927.51 1633.85 1942.16 1640.82 1958.02 1647.03 1975 1652.42 1992.99 1656.96 2011.88 1660.57 2031.58 1663.23 2051.99 1664.86 2073 1665.41 2094.01 1664.86 2114.42 1663.23 2134.12 1660.57 2153.01 1656.96 2171 1652.42 2187.98 1647.03 2203.84 1640.82 2218.49 1633.85 2231.81 1626.19 2237.97 1622.08 2243.74 1617.83 2249.14 1613.43 2254.14 1608.88 2258.74 1604.18 2262.92 1599.35 2266.66 1594.38 2269.95 1589.29 2272.78 1584.08 2275.13 1578.76 2276.98 1573.33 2278.32 1567.8 2279.14 1562.19 2279.41 1556.5 2279.14 1550.81 2278.32 1545.2 2276.98 1539.67 2275.13 1534.24 2272.78 1528.92 2269.95 1523.71 2266.66 1518.62 2262.92 1513.65 2258.74 1508.82 2254.14 1504.12 2249.14 1499.57 2243.74 1495.17 2237.97 1490.92 2231.81 1486.81 2218.49 1479.15 2203.84 1472.18 2187.98 1465.97 2171 1460.58 2153.01 1456.04 2134.12 1452.43 2114.42 1449.77 2094.01 1448.14 2073 1447.59 2051.99 1448.14 2031.58 1449.77 2011.88 1452.43 1992.99 1456.04 1975 1460.58 1958.02 1465.97 1942.16 1472.18 1927.51 1479.15 1914.19 1486.81 1908.03 1490.92 1902.26 1495.17 1896.86 1499.57 1891.86 1504.12 1887.26 1508.82 1883.08 1513.65 1879.34 1518.62 1876.05 1523.71 1873.22 1528.92 1870.87 1534.24 1869.02 1539.67 1867.68 1545.2 1866.86 1550.81 1866.59 1556.5ZM1870.41 1556.5 1870.67 1551.18 1871.43 1545.92 1872.69 1540.74 1874.44 1535.63 1876.65 1530.6 1879.34 1525.66 1882.48 1520.8 1886.06 1516.05 1890.07 1511.4 1894.51 1506.87 1899.35 1502.46 1904.6 1498.19 1910.22 1494.05 1916.2 1490.06 1929.28 1482.53 1943.68 1475.69 1959.3 1469.58 1976.05 1464.25 1993.81 1459.77 2012.5 1456.2 2031.99 1453.57 2052.19 1451.96 2073 1451.41 2093.81 1451.96 2114.01 1453.57 2133.5 1456.2 2152.19 1459.77 2169.95 1464.25 2186.7 1469.58 2202.32 1475.69 2216.72 1482.53 2229.8 1490.06 2235.78 1494.05 2241.4 1498.19 2246.65 1502.46 2251.49 1506.87 2255.93 1511.4 2259.94 1516.05 2263.52 1520.8 2266.66 1525.66 2269.35 1530.6 2271.56 1535.63 2273.31 1540.74 2274.57 1545.92 2275.33 1551.18 2275.59 1556.5 2275.33 1561.82 2274.57 1567.08 2273.31 1572.26 2271.56 1577.37 2269.35 1582.4 2266.66 1587.34 2263.52 1592.2 2259.94 1596.95 2255.93 1601.6 2251.49 1606.13 2246.65 1610.54 2241.4 1614.81 2235.78 1618.95 2229.8 1622.94 2216.72 1630.47 2202.32 1637.31 2186.7 1643.42 2169.95 1648.75 2152.19 1653.23 2133.5 1656.8 2114.01 1659.43 2093.81 1661.04 2073 1661.59 2052.19 1661.04 2031.99 1659.43 2012.5 1656.8 1993.81 1653.23 1976.05 1648.75 1959.3 1643.42 1943.68 1637.31 1929.28 1630.47 1916.2 1622.94 1910.22 1618.95 1904.6 1614.81 1899.35 1610.54 1894.51 1606.13 1890.07 1601.6 1886.06 1596.95 1882.48 1592.2 1879.34 1587.34 1876.65 1582.4 1874.44 1577.37 1872.69 1572.26 1871.43 1567.08 1870.67 1561.82ZM1874.48 1561.45 1875.19 1566.35 1876.36 1571.19 1878 1575.98 1880.09 1580.71 1882.62 1585.39 1885.61 1590.01 1889.03 1594.55 1892.88 1599.01 1897.16 1603.38 1901.85 1607.64 1906.94 1611.8 1912.41 1615.83 1918.22 1619.69 1931.06 1627.08 1945.2 1633.81 1960.58 1639.82 1977.09 1645.07 1994.64 1649.5 2013.11 1653.03 2032.4 1655.63 2052.4 1657.22 2073 1657.77 2093.6 1657.22 2113.6 1655.63 2132.89 1653.03 2151.36 1649.5 2168.91 1645.07 2185.42 1639.82 2200.8 1633.81 2214.94 1627.08 2227.78 1619.69 2233.59 1615.83 2239.06 1611.8 2244.15 1607.64 2248.84 1603.38 2253.12 1599.01 2256.97 1594.55 2260.39 1590.01 2263.38 1585.39 2265.91 1580.71 2268 1575.98 2269.64 1571.19 2270.81 1566.35 2271.52 1561.45 2271.76 1556.5 2271.52 1551.55 2270.81 1546.65 2269.64 1541.81 2268 1537.02 2265.91 1532.29 2263.38 1527.61 2260.39 1522.99 2256.97 1518.45 2253.12 1513.99 2248.84 1509.62 2244.15 1505.36 2239.06 1501.2 2233.59 1497.17 2227.78 1493.31 2214.94 1485.92 2200.8 1479.19 2185.42 1473.18 2168.91 1467.93 2151.36 1463.5 2132.89 1459.97 2113.6 1457.37 2093.6 1455.78 2073 1455.23 2052.4 1455.78 2032.4 1457.37 2013.11 1459.97 1994.64 1463.5 1977.09 1467.93 1960.58 1473.18 1945.2 1479.19 1931.06 1485.92 1918.22 1493.31 1912.41 1497.17 1906.94 1501.2 1901.85 1505.36 1897.16 1509.62 1892.88 1513.99 1889.03 1518.45 1885.61 1522.99 1882.62 1527.61 1880.09 1532.29 1878 1537.02 1876.36 1541.81 1875.19 1546.65 1874.48 1551.55 1874.24 1556.5Z"/><text fill="#080808" font-family="Consolas,Consolas_MSFontService,sans-serif" font-weight="400" font-size="64" transform="matrix(1 0 0 1 1966.25 1540)">String</text><text fill="#080808" font-family="Consolas,Consolas_MSFontService,sans-serif" font-weight="400" font-size="64" transform="matrix(1 0 0 1 1948.49 1617)">“123…n”</text><path d="M1445.5 1556.5C1445.5 1497.41 1532.36 1449.5 1639.5 1449.5 1746.64 1449.5 1833.5 1497.41 1833.5 1556.5 1833.5 1615.59 1746.64 1663.5 1639.5 1663.5 1532.36 1663.5 1445.5 1615.59 1445.5 1556.5Z" fill="#FFFFFF" fill-rule="evenodd"/><path d="M1439.76 1556.5 1440.04 1550.47 1440.86 1544.52 1442.21 1538.68 1444.06 1532.94 1446.41 1527.34 1449.23 1521.87 1452.49 1516.54 1456.19 1511.37 1460.31 1506.34 1464.83 1501.48 1469.73 1496.77 1475.06 1492.19 1486.61 1483.67 1499.55 1475.82 1513.72 1468.72 1529.03 1462.4 1545.38 1456.92 1562.68 1452.33 1580.84 1448.66 1599.76 1445.98 1619.34 1444.33 1639.5 1443.77 1659.66 1444.33 1679.24 1445.98 1698.16 1448.66 1716.32 1452.33 1733.62 1456.92 1749.97 1462.4 1765.28 1468.72 1779.45 1475.82 1792.39 1483.67 1803.94 1492.19 1809.27 1496.77 1814.17 1501.48 1818.69 1506.34 1822.81 1511.37 1826.51 1516.54 1829.77 1521.87 1832.59 1527.34 1834.94 1532.94 1836.79 1538.68 1838.14 1544.52 1838.96 1550.47 1839.24 1556.5 1838.96 1562.53 1838.14 1568.48 1836.79 1574.32 1834.94 1580.06 1832.59 1585.66 1829.77 1591.13 1826.51 1596.46 1822.81 1601.63 1818.69 1606.66 1814.17 1611.52 1809.27 1616.23 1803.94 1620.81 1792.39 1629.33 1779.45 1637.18 1765.28 1644.28 1749.97 1650.6 1733.62 1656.08 1716.32 1660.67 1698.16 1664.34 1679.24 1667.02 1659.66 1668.67 1639.5 1669.23 1619.34 1668.67 1599.76 1667.02 1580.84 1664.34 1562.68 1660.67 1545.38 1656.08 1529.03 1650.6 1513.72 1644.28 1499.55 1637.18 1486.61 1629.33 1475.06 1620.81 1469.73 1616.23 1464.83 1611.52 1460.31 1606.66 1456.19 1601.63 1452.49 1596.46 1449.23 1591.13 1446.41 1585.66 1444.06 1580.06 1442.21 1574.32 1440.86 1568.48 1440.04 1562.53ZM1443.85 1562.18 1444.62 1567.79 1445.89 1573.3 1447.65 1578.73 1449.88 1584.05 1452.56 1589.26 1455.68 1594.35 1459.23 1599.31 1463.19 1604.15 1467.55 1608.84 1472.3 1613.4 1477.44 1617.82 1488.74 1626.15 1501.4 1633.83 1515.3 1640.81 1530.36 1647.02 1546.48 1652.42 1563.55 1656.95 1581.49 1660.57 1600.19 1663.22 1619.56 1664.85 1639.5 1665.41 1659.44 1664.85 1678.81 1663.22 1697.51 1660.57 1715.45 1656.95 1732.52 1652.42 1748.64 1647.02 1763.7 1640.81 1777.6 1633.83 1790.26 1626.15 1801.56 1617.82 1806.7 1613.4 1811.45 1608.84 1815.81 1604.15 1819.77 1599.31 1823.32 1594.35 1826.44 1589.26 1829.12 1584.05 1831.35 1578.73 1833.11 1573.3 1834.38 1567.79 1835.15 1562.18 1835.41 1556.5 1835.15 1550.82 1834.38 1545.21 1833.11 1539.7 1831.35 1534.27 1829.12 1528.95 1826.44 1523.74 1823.32 1518.65 1819.77 1513.69 1815.81 1508.85 1811.45 1504.16 1806.7 1499.6 1801.56 1495.18 1790.26 1486.85 1777.6 1479.17 1763.7 1472.19 1748.64 1465.98 1732.52 1460.58 1715.45 1456.05 1697.51 1452.43 1678.81 1449.78 1659.44 1448.15 1639.5 1447.59 1619.56 1448.15 1600.19 1449.78 1581.49 1452.43 1563.55 1456.05 1546.48 1460.58 1530.36 1465.98 1515.3 1472.19 1501.4 1479.17 1488.74 1486.85 1477.44 1495.18 1472.3 1499.6 1467.55 1504.16 1463.19 1508.85 1459.23 1513.69 1455.68 1518.65 1452.56 1523.74 1449.88 1528.95 1447.65 1534.27 1445.89 1539.7 1444.62 1545.21 1443.85 1550.82 1443.59 1556.5ZM1447.41 1556.5 1447.66 1551.17 1448.38 1545.91 1449.58 1540.71 1451.23 1535.6 1453.34 1530.57 1455.89 1525.62 1458.86 1520.77 1462.26 1516.01 1466.07 1511.37 1470.28 1506.84 1474.87 1502.43 1479.82 1498.17 1490.86 1490.03 1503.25 1482.51 1516.89 1475.67 1531.7 1469.56 1547.58 1464.24 1564.42 1459.77 1582.13 1456.19 1600.62 1453.57 1619.77 1451.96 1639.5 1451.41 1659.23 1451.96 1678.38 1453.57 1696.87 1456.19 1714.58 1459.77 1731.42 1464.24 1747.3 1469.56 1762.11 1475.67 1775.75 1482.51 1788.14 1490.03 1799.18 1498.17 1804.13 1502.43 1808.72 1506.84 1812.93 1511.37 1816.74 1516.01 1820.14 1520.77 1823.11 1525.62 1825.66 1530.57 1827.77 1535.6 1829.42 1540.71 1830.62 1545.91 1831.34 1551.17 1831.59 1556.5 1831.34 1561.83 1830.62 1567.09 1829.42 1572.29 1827.77 1577.4 1825.66 1582.43 1823.11 1587.38 1820.14 1592.23 1816.74 1596.99 1812.93 1601.63 1808.72 1606.16 1804.13 1610.57 1799.18 1614.83 1788.14 1622.97 1775.75 1630.49 1762.11 1637.33 1747.3 1643.44 1731.42 1648.76 1714.58 1653.23 1696.87 1656.81 1678.38 1659.43 1659.23 1661.04 1639.5 1661.59 1619.77 1661.04 1600.62 1659.43 1582.13 1656.81 1564.42 1653.23 1547.58 1648.76 1531.7 1643.44 1516.89 1637.33 1503.25 1630.49 1490.86 1622.97 1479.82 1614.83 1474.87 1610.57 1470.28 1606.16 1466.07 1601.63 1462.26 1596.99 1458.86 1592.23 1455.89 1587.38 1453.34 1582.43 1451.23 1577.4 1449.58 1572.29 1448.38 1567.09 1447.66 1561.83ZM1451.46 1561.48 1452.14 1566.4 1453.26 1571.27 1454.82 1576.07 1456.81 1580.82 1459.22 1585.51 1462.05 1590.12 1465.3 1594.66 1468.95 1599.12 1473 1603.48 1477.44 1607.74 1482.21 1611.84 1492.99 1619.8 1505.1 1627.14 1518.48 1633.85 1533.04 1639.86 1548.68 1645.1 1565.29 1649.51 1582.78 1653.04 1601.05 1655.63 1619.98 1657.22 1639.5 1657.77 1659.02 1657.22 1677.95 1655.63 1696.22 1653.04 1713.71 1649.51 1730.32 1645.1 1745.96 1639.86 1760.52 1633.85 1773.9 1627.14 1786.01 1619.8 1796.79 1611.84 1801.56 1607.74 1806 1603.48 1810.05 1599.12 1813.7 1594.66 1816.95 1590.12 1819.78 1585.51 1822.19 1580.82 1824.18 1576.07 1825.74 1571.27 1826.86 1566.4 1827.54 1561.48 1827.76 1556.5 1827.54 1551.52 1826.86 1546.6 1825.74 1541.73 1824.18 1536.93 1822.19 1532.18 1819.78 1527.49 1816.95 1522.88 1813.7 1518.34 1810.05 1513.88 1806 1509.52 1801.56 1505.26 1796.79 1501.16 1786.01 1493.2 1773.9 1485.86 1760.52 1479.15 1745.96 1473.14 1730.32 1467.9 1713.71 1463.49 1696.22 1459.96 1677.95 1457.37 1659.02 1455.78 1639.5 1455.23 1619.98 1455.78 1601.05 1457.37 1582.78 1459.96 1565.29 1463.49 1548.68 1467.9 1533.04 1473.14 1518.48 1479.15 1505.1 1485.86 1492.99 1493.2 1482.21 1501.16 1477.44 1505.26 1473 1509.52 1468.95 1513.88 1465.3 1518.34 1462.05 1522.88 1459.22 1527.49 1456.81 1532.18 1454.82 1536.93 1453.26 1541.73 1452.14 1546.6 1451.46 1551.52 1451.24 1556.5Z"/><text fill="#080808" font-family="Consolas,Consolas_MSFontService,sans-serif" font-weight="400" font-size="64" transform="matrix(1 0 0 1 1532.87 1540)">String</text><text fill="#080808" font-family="Consolas,Consolas_MSFontService,sans-serif" font-weight="400" font-size="64" transform="matrix(1 0 0 1 1586.15 1617)">“…”</text><path d="M0.524664-2.81613 904.915 165.678 903.866 171.31-0.524664 2.81613ZM902.402 154.137 926.919 172.691 897.366 181.172Z" transform="matrix(-1 0 0 1 1326.92 1276)"/><path d="M0.901925-2.71889 499.736 162.757 497.932 168.195-0.901925 2.71889ZM498.813 150.982 520.585 172.691 490.155 177.084Z" transform="matrix(-1 0 0 1 1327.59 1276)"/><path d="M2.44779-1.488 95.522 151.621 90.6264 154.597-2.44779 1.488ZM102.443 142.05 104.978 172.691 78.944 156.335Z" transform="matrix(-1 0 0 1 1326.98 1276)"/><path d="M1328.39 1273.49 1620.66 1435.1 1617.89 1440.11 1325.61 1278.51ZM1621.91 1423.35 1639.33 1448.69 1608.61 1447.42Z"/><path d="M1327.65 1273.21 2051.03 1440.73 2049.73 1446.31 1326.35 1278.79ZM2049.02 1429.09 2072.71 1448.69 2042.81 1455.88Z"/><text fill="#FF0000" font-family="SimSun,SimSun_MSFontService,sans-serif" font-weight="700" font-size="128" transform="matrix(1 0 0 1 701.395 1426)">×</text><text fill="#FF0000" font-family="SimSun,SimSun_MSFontService,sans-serif" font-weight="700" font-size="128" transform="matrix(1 0 0 1 952.749 1426)">×</text><text fill="#FF0000" font-family="SimSun,SimSun_MSFontService,sans-serif" font-weight="700" font-size="128" transform="matrix(1 0 0 1 1208.01 1425)">×</text><text fill="#FF0000" font-family="SimSun,SimSun_MSFontService,sans-serif" font-weight="700" font-size="128" transform="matrix(1 0 0 1 1464.22 1425)">×</text><text font-family="Arial,Arial_MSFontService,sans-serif" font-weight="400" font-size="83" transform="matrix(1 0 0 1 3223.05 1206)">sb</text><path d="M2630.5 1535.5C2630.5 1475.85 2915.92 1427.5 3268 1427.5 3620.08 1427.5 3905.5 1475.85 3905.5 1535.5 3905.5 1595.15 3620.08 1643.5 3268 1643.5 2915.92 1643.5 2630.5 1595.15 2630.5 1535.5Z" fill="#FFFFFF" fill-rule="evenodd"/><path d="M2624.75 1535.5 2625.03 1531.87 2625.83 1528.3 2627.12 1524.85 2628.86 1521.52 2631.03 1518.31 2633.58 1515.22 2636.51 1512.23 2639.79 1509.32 2643.43 1506.49 2647.47 1503.69 2656.41 1498.36 2666.77 1493.17 2678.46 1488.14 2691.46 1483.27 2705.73 1478.55 2721.25 1473.98 2737.98 1469.56 2755.88 1465.29 2774.92 1461.19 2795.06 1457.25 2816.26 1453.48 2838.49 1449.89 2861.7 1446.49 2885.85 1443.27 2910.92 1440.25 2936.85 1437.44 2963.6 1434.83 2991.15 1432.44 3019.45 1430.27 3048.45 1428.34 3078.12 1426.63 3108.43 1425.18 3139.32 1423.97 3170.77 1423.02 3202.72 1422.33 3235.14 1421.91 3268 1421.77 3300.85 1421.91 3333.28 1422.33 3365.23 1423.02 3396.68 1423.97 3427.57 1425.18 3457.87 1426.63 3487.55 1428.34 3516.55 1430.27 3544.85 1432.44 3572.4 1434.83 3599.15 1437.44 3625.08 1440.25 3650.15 1443.27 3674.3 1446.49 3697.51 1449.89 3719.74 1453.48 3740.94 1457.25 3761.08 1461.19 3780.12 1465.29 3798.02 1469.56 3814.75 1473.98 3830.27 1478.55 3844.54 1483.27 3857.54 1488.14 3869.23 1493.17 3879.59 1498.36 3888.53 1503.69 3892.57 1506.49 3896.21 1509.32 3899.49 1512.23 3902.42 1515.22 3904.97 1518.31 3907.14 1521.52 3908.88 1524.85 3910.17 1528.3 3910.97 1531.87 3911.24 1535.5 3910.97 1539.13 3910.17 1542.7 3908.88 1546.15 3907.14 1549.48 3904.97 1552.69 3902.42 1555.78 3899.49 1558.77 3896.21 1561.68 3892.57 1564.51 3888.53 1567.31 3879.59 1572.64 3869.23 1577.83 3857.54 1582.86 3844.54 1587.73 3830.27 1592.45 3814.75 1597.02 3798.02 1601.44 3780.12 1605.71 3761.08 1609.81 3740.94 1613.75 3719.74 1617.52 3697.51 1621.11 3674.3 1624.51 3650.15 1627.73 3625.08 1630.75 3599.15 1633.56 3572.4 1636.17 3544.85 1638.56 3516.55 1640.73 3487.55 1642.66 3457.87 1644.37 3427.57 1645.82 3396.68 1647.03 3365.23 1647.98 3333.28 1648.67 3300.85 1649.09 3268 1649.23 3235.15 1649.09 3202.72 1648.67 3170.77 1647.98 3139.32 1647.03 3108.43 1645.82 3078.13 1644.37 3048.45 1642.66 3019.45 1640.73 2991.15 1638.56 2963.6 1636.17 2936.85 1633.56 2910.92 1630.75 2885.85 1627.73 2861.7 1624.51 2838.49 1621.11 2816.26 1617.52 2795.06 1613.75 2774.92 1609.81 2755.88 1605.71 2737.98 1601.44 2721.25 1597.02 2705.73 1592.45 2691.46 1587.73 2678.46 1582.86 2666.77 1577.83 2656.41 1572.64 2647.47 1567.31 2643.43 1564.51 2639.79 1561.68 2636.51 1558.77 2633.58 1555.78 2631.03 1552.69 2628.86 1549.48 2627.12 1546.15 2625.83 1542.7 2625.03 1539.13ZM2628.81 1538.57 2629.49 1541.6 2630.61 1544.59 2632.15 1547.52 2634.09 1550.4 2636.42 1553.23 2639.14 1556 2642.23 1558.74 2645.69 1561.43 2649.54 1564.1 2658.24 1569.29 2668.38 1574.37 2679.89 1579.31 2692.73 1584.12 2706.87 1588.8 2722.28 1593.34 2738.91 1597.74 2756.73 1601.98 2775.69 1606.07 2795.76 1609.99 2816.9 1613.75 2839.07 1617.33 2862.23 1620.73 2886.33 1623.94 2911.35 1626.95 2937.24 1629.76 2963.95 1632.37 2991.46 1634.75 3019.72 1636.92 3048.69 1638.85 3078.33 1640.55 3108.6 1642.01 3139.46 1643.21 3170.87 1644.16 3202.79 1644.85 3235.18 1645.27 3268 1645.41 3300.82 1645.27 3333.21 1644.85 3365.13 1644.16 3396.54 1643.21 3427.4 1642.01 3457.67 1640.55 3487.31 1638.85 3516.28 1636.92 3544.54 1634.75 3572.04 1632.37 3598.76 1629.76 3624.65 1626.95 3649.67 1623.94 3673.77 1620.73 3696.93 1617.33 3719.1 1613.75 3740.24 1609.99 3760.31 1606.07 3779.27 1601.98 3797.09 1597.74 3813.72 1593.34 3829.13 1588.8 3843.27 1584.12 3856.11 1579.31 3867.62 1574.37 3877.76 1569.29 3886.46 1564.1 3890.31 1561.43 3893.77 1558.74 3896.86 1556 3899.58 1553.23 3901.91 1550.4 3903.85 1547.52 3905.39 1544.59 3906.5 1541.6 3907.19 1538.57 3907.41 1535.5 3907.19 1532.43 3906.5 1529.4 3905.39 1526.41 3903.85 1523.48 3901.91 1520.6 3899.58 1517.77 3896.86 1515 3893.77 1512.26 3890.31 1509.57 3886.46 1506.9 3877.76 1501.71 3867.62 1496.63 3856.11 1491.69 3843.27 1486.88 3829.13 1482.2 3813.72 1477.66 3797.09 1473.26 3779.27 1469.02 3760.31 1464.93 3740.24 1461.01 3719.1 1457.25 3696.93 1453.67 3673.77 1450.27 3649.67 1447.06 3624.65 1444.05 3598.76 1441.24 3572.05 1438.63 3544.54 1436.25 3516.28 1434.08 3487.31 1432.15 3457.67 1430.45 3427.4 1428.99 3396.54 1427.79 3365.13 1426.84 3333.21 1426.15 3300.82 1425.73 3268 1425.59 3235.18 1425.73 3202.79 1426.15 3170.86 1426.84 3139.45 1427.79 3108.59 1428.99 3078.33 1430.45 3048.69 1432.15 3019.72 1434.08 2991.46 1436.25 2963.95 1438.63 2937.24 1441.24 2911.35 1444.05 2886.33 1447.06 2862.23 1450.27 2839.07 1453.67 2816.9 1457.25 2795.76 1461.01 2775.69 1464.93 2756.73 1469.02 2738.91 1473.26 2722.28 1477.66 2706.87 1482.2 2692.73 1486.88 2679.89 1491.69 2668.38 1496.63 2658.24 1501.71 2649.53 1506.9 2645.69 1509.57 2642.23 1512.26 2639.14 1515 2636.42 1517.77 2634.09 1520.6 2632.15 1523.48 2630.61 1526.41 2629.49 1529.4 2628.81 1532.43 2628.58 1535.5ZM2632.41 1535.5 2632.6 1532.99 2633.16 1530.49 2634.11 1527.97 2635.43 1525.44 2637.15 1522.89 2639.27 1520.33 2641.77 1517.77 2644.67 1515.2 2647.96 1512.65 2651.6 1510.12 2660.08 1505.06 2669.99 1500.1 2681.31 1495.23 2694 1490.48 2708.01 1485.84 2723.31 1481.34 2739.84 1476.97 2757.57 1472.74 2776.46 1468.67 2796.46 1464.76 2817.54 1461.02 2839.65 1457.44 2862.75 1454.05 2886.81 1450.85 2911.78 1447.84 2937.63 1445.04 2964.3 1442.44 2991.77 1440.05 3019.99 1437.89 3048.92 1435.96 3078.53 1434.26 3108.76 1432.81 3139.59 1431.6 3170.96 1430.65 3202.85 1429.97 3235.21 1429.55 3268 1429.41 3300.79 1429.55 3333.15 1429.97 3365.04 1430.65 3396.41 1431.6 3427.24 1432.81 3457.47 1434.26 3487.08 1435.96 3516.01 1437.89 3544.23 1440.05 3571.69 1442.44 3598.37 1445.04 3624.21 1447.84 3649.19 1450.85 3673.24 1454.05 3696.35 1457.44 3718.46 1461.02 3739.54 1464.76 3759.54 1468.67 3778.43 1472.74 3796.16 1476.97 3812.69 1481.34 3827.99 1485.84 3842 1490.48 3854.69 1495.23 3866.01 1500.1 3875.92 1505.06 3884.39 1510.12 3888.04 1512.65 3891.33 1515.2 3894.23 1517.77 3896.73 1520.33 3898.85 1522.89 3900.57 1525.44 3901.89 1527.97 3902.84 1530.49 3903.4 1532.99 3903.58 1535.5 3903.4 1538.01 3902.84 1540.51 3901.89 1543.03 3900.57 1545.56 3898.85 1548.11 3896.73 1550.67 3894.23 1553.23 3891.33 1555.8 3888.04 1558.35 3884.39 1560.88 3875.92 1565.94 3866.01 1570.9 3854.69 1575.77 3842 1580.52 3827.99 1585.16 3812.69 1589.66 3796.16 1594.03 3778.43 1598.26 3759.54 1602.33 3739.54 1606.24 3718.46 1609.98 3696.35 1613.56 3673.24 1616.95 3649.19 1620.15 3624.21 1623.16 3598.37 1625.96 3571.69 1628.56 3544.23 1630.95 3516.01 1633.11 3487.07 1635.04 3457.47 1636.74 3427.24 1638.19 3396.41 1639.4 3365.03 1640.35 3333.15 1641.03 3300.79 1641.45 3268 1641.59 3235.21 1641.45 3202.85 1641.03 3170.96 1640.35 3139.59 1639.4 3108.76 1638.19 3078.53 1636.74 3048.92 1635.04 3019.99 1633.11 2991.77 1630.95 2964.3 1628.56 2937.63 1625.96 2911.78 1623.16 2886.81 1620.15 2862.76 1616.95 2839.65 1613.56 2817.54 1609.98 2796.46 1606.24 2776.46 1602.33 2757.57 1598.26 2739.84 1594.03 2723.31 1589.66 2708.01 1585.16 2694 1580.52 2681.31 1575.77 2669.99 1570.9 2660.08 1565.94 2651.6 1560.88 2647.96 1558.35 2644.67 1555.8 2641.77 1553.23 2639.27 1550.67 2637.15 1548.11 2635.43 1545.56 2634.11 1543.03 2633.16 1540.51 2632.6 1538.01ZM2636.39 1537.44 2636.83 1539.42 2637.6 1541.47 2638.72 1543.6 2640.22 1545.82 2642.11 1548.11 2644.41 1550.46 2647.11 1552.85 2650.22 1555.27 2653.68 1557.67 2661.91 1562.59 2671.6 1567.44 2682.74 1572.22 2695.27 1576.92 2709.15 1581.51 2724.33 1585.98 2740.77 1590.33 2758.42 1594.53 2777.23 1598.59 2797.16 1602.48 2818.18 1606.22 2840.23 1609.78 2863.28 1613.16 2887.29 1616.36 2912.22 1619.36 2938.02 1622.17 2964.65 1624.76 2992.08 1627.14 3020.27 1629.3 3049.16 1631.23 3078.73 1632.92 3108.93 1634.38 3139.72 1635.58 3171.06 1636.53 3202.92 1637.21 3235.24 1637.63 3268 1637.77 3300.76 1637.63 3333.08 1637.21 3364.94 1636.53 3396.28 1635.58 3427.07 1634.38 3457.27 1632.92 3486.84 1631.23 3515.73 1629.3 3543.92 1627.14 3571.34 1624.76 3597.98 1622.17 3623.78 1619.36 3648.71 1616.36 3672.71 1613.16 3695.77 1609.78 3717.82 1606.22 3738.84 1602.48 3758.77 1598.59 3777.58 1594.53 3795.23 1590.33 3811.67 1585.98 3826.85 1581.51 3840.73 1576.92 3853.26 1572.22 3864.4 1567.44 3874.08 1562.59 3882.32 1557.67 3885.78 1555.27 3888.89 1552.85 3891.59 1550.46 3893.89 1548.11 3895.78 1545.82 3897.28 1543.6 3898.4 1541.47 3899.17 1539.42 3899.61 1537.44 3899.75 1535.5 3899.61 1533.56 3899.17 1531.58 3898.4 1529.53 3897.28 1527.4 3895.78 1525.18 3893.89 1522.89 3891.59 1520.54 3888.89 1518.15 3885.78 1515.73 3882.32 1513.33 3874.08 1508.41 3864.4 1503.56 3853.26 1498.78 3840.73 1494.08 3826.85 1489.49 3811.67 1485.02 3795.23 1480.67 3777.58 1476.47 3758.77 1472.41 3738.84 1468.52 3717.82 1464.78 3695.77 1461.22 3672.71 1457.84 3648.71 1454.64 3623.78 1451.64 3597.98 1448.83 3571.34 1446.24 3543.92 1443.86 3515.73 1441.7 3486.84 1439.77 3457.27 1438.08 3427.07 1436.62 3396.28 1435.42 3364.94 1434.47 3333.08 1433.79 3300.76 1433.37 3268 1433.23 3235.24 1433.37 3202.92 1433.79 3171.06 1434.47 3139.72 1435.42 3108.93 1436.62 3078.73 1438.08 3049.16 1439.77 3020.27 1441.7 2992.08 1443.86 2964.65 1446.24 2938.02 1448.83 2912.22 1451.64 2887.29 1454.64 2863.28 1457.84 2840.23 1461.22 2818.18 1464.78 2797.16 1468.52 2777.23 1472.41 2758.42 1476.47 2740.77 1480.67 2724.33 1485.02 2709.15 1489.49 2695.27 1494.08 2682.73 1498.78 2671.6 1503.56 2661.91 1508.41 2653.67 1513.33 2650.22 1515.73 2647.11 1518.15 2644.41 1520.54 2642.11 1522.89 2640.22 1525.18 2638.72 1527.4 2637.6 1529.53 2636.83 1531.58 2636.39 1533.56 2636.24 1535.5Z"/><text fill="#080808" font-family="Consolas,Consolas_MSFontService,sans-serif" font-weight="400" font-size="64" transform="matrix(1 0 0 1 3036.46 1519)">StringBuilder</text><text fill="#080808" font-family="Consolas,Consolas_MSFontService,sans-serif" font-weight="400" font-size="64" transform="matrix(1 0 0 1 2850.83 1597)">“” </text><text fill="#080808" font-family="SimSun,SimSun_MSFontService,sans-serif" font-weight="400" font-size="64" transform="matrix(1 0 0 1 2957.4 1597)">“</text><text fill="#080808" font-family="Consolas,Consolas_MSFontService,sans-serif" font-weight="400" font-size="64" transform="matrix(1 0 0 1 3021.56 1597)">1</text><text fill="#080808" font-family="SimSun,SimSun_MSFontService,sans-serif" font-weight="400" font-size="64" transform="matrix(1 0 0 1 3057.08 1597)">”“</text><text fill="#080808" font-family="Consolas,Consolas_MSFontService,sans-serif" font-weight="400" font-size="64" transform="matrix(1 0 0 1 3185.42 1597)">12</text><text fill="#080808" font-family="SimSun,SimSun_MSFontService,sans-serif" font-weight="400" font-size="64" transform="matrix(1 0 0 1 3256.46 1597)">”“</text><text fill="#080808" font-family="Consolas,Consolas_MSFontService,sans-serif" font-weight="400" font-size="64" transform="matrix(1 0 0 1 3384.79 1597)">…</text><text fill="#080808" font-family="SimSun,SimSun_MSFontService,sans-serif" font-weight="400" font-size="64" transform="matrix(1 0 0 1 3420.31 1597)">”“</text><text fill="#080808" font-family="Consolas,Consolas_MSFontService,sans-serif" font-weight="400" font-size="64" transform="matrix(1 0 0 1 3548.65 1597)">12</text><text fill="#080808" font-family="SimSun,SimSun_MSFontService,sans-serif" font-weight="400" font-size="64" transform="matrix(1 0 0 1 3619.69 1597)">”</text><path d="M3269.86 1243 3269.86 1404.12 3264.14 1404.12 3264.14 1243ZM3280.75 1399.53 3267 1427.03 3253.25 1399.53Z"/><text fill="#FF0000" font-family="SimSun,SimSun_MSFontService,sans-serif" font-weight="700" font-size="128" transform="matrix(1 0 0 1 2831.47 1614)">×</text><text fill="#FF0000" font-family="SimSun,SimSun_MSFontService,sans-serif" font-weight="700" font-size="128" transform="matrix(1 0 0 1 2970.17 1620)">×</text><text fill="#FF0000" font-family="SimSun,SimSun_MSFontService,sans-serif" font-weight="700" font-size="128" transform="matrix(1 0 0 1 3166.11 1624)">×</text><text fill="#FF0000" font-family="SimSun,SimSun_MSFontService,sans-serif" font-weight="700" font-size="128" transform="matrix(1 0 0 1 3338.84 1624)">×</text><text font-family="Microsoft YaHei,Microsoft YaHei_MSFontService,sans-serif" font-weight="400" font-size="73" transform="matrix(1 0 0 1 276.696 1868)">低效：会</text><text font-family="Microsoft YaHei,Microsoft YaHei_MSFontService,sans-serif" font-weight="400" font-size="73" transform="matrix(1 0 0 1 570.029 1868)">产生很多临时的字符串对象，占用内存空间，并增加</text><text font-family="Microsoft YaHei,Microsoft YaHei_MSFontService,sans-serif" font-weight="400" font-size="73" transform="matrix(1 0 0 1 276.696 1956)">垃圾回收的负担</text><text font-family="Microsoft YaHei,Microsoft YaHei_MSFontService,sans-serif" font-weight="400" font-size="73" transform="matrix(1 0 0 1 2453 1868)">高效：它</text><text font-family="Microsoft YaHei,Microsoft YaHei_MSFontService,sans-serif" font-weight="400" font-size="73" transform="matrix(1 0 0 1 2746.33 1868)">只会创建一个</text><text font-family="Microsoft YaHei,Microsoft YaHei_MSFontService,sans-serif" font-weight="400" font-size="73" transform="matrix(1 0 0 1 3208.1 1868)">StringBuilder</text><text font-family="Microsoft YaHei,Microsoft YaHei_MSFontService,sans-serif" font-weight="400" font-size="73" transform="matrix(1 0 0 1 3683.94 1868)">对象，并且不</text><text font-family="Microsoft YaHei,Microsoft YaHei_MSFontService,sans-serif" font-weight="400" font-size="73" transform="matrix(1 0 0 1 2453 1956)">需要复制之前拼接的结果</text></g></svg>