<svg width="3845" height="1395" xmlns="http://www.w3.org/2000/svg" xmlns:xlink="http://www.w3.org/1999/xlink" xml:space="preserve" overflow="hidden"><defs><filter id="fx0" x="-10%" y="-10%" width="120%" height="120%" filterUnits="userSpaceOnUse" primitiveUnits="userSpaceOnUse"><feComponentTransfer color-interpolation-filters="sRGB"><feFuncR type="discrete" tableValues="0 0"/><feFuncG type="discrete" tableValues="0 0"/><feFuncB type="discrete" tableValues="0 0"/><feFuncA type="linear" slope="0.4" intercept="0"/></feComponentTransfer><feGaussianBlur stdDeviation="6.11111 6.11111"/></filter><filter id="fx1" x="-10%" y="-10%" width="120%" height="120%" filterUnits="userSpaceOnUse" primitiveUnits="userSpaceOnUse"><feComponentTransfer color-interpolation-filters="sRGB"><feFuncR type="discrete" tableValues="0 0"/><feFuncG type="discrete" tableValues="0 0"/><feFuncB type="discrete" tableValues="0 0"/><feFuncA type="linear" slope="0.4" intercept="0"/></feComponentTransfer><feGaussianBlur stdDeviation="6.11111 6.11111"/></filter><filter id="fx2" x="-10%" y="-10%" width="120%" height="120%" filterUnits="userSpaceOnUse" primitiveUnits="userSpaceOnUse"><feComponentTransfer color-interpolation-filters="sRGB"><feFuncR type="discrete" tableValues="0 0"/><feFuncG type="discrete" tableValues="0 0"/><feFuncB type="discrete" tableValues="0 0"/><feFuncA type="linear" slope="0.4" intercept="0"/></feComponentTransfer><feGaussianBlur stdDeviation="6.11111 6.11111"/></filter><filter id="fx3" x="-10%" y="-10%" width="120%" height="120%" filterUnits="userSpaceOnUse" primitiveUnits="userSpaceOnUse"><feComponentTransfer color-interpolation-filters="sRGB"><feFuncR type="discrete" tableValues="0 0"/><feFuncG type="discrete" tableValues="0 0"/><feFuncB type="discrete" tableValues="0 0"/><feFuncA type="linear" slope="0.4" intercept="0"/></feComponentTransfer><feGaussianBlur stdDeviation="6.11111 6.11111"/></filter><clipPath id="clip4"><path d="M880.5 1515.5C595.521 1515.5 364.5 1599.22 364.5 1702.5 364.5 1805.78 595.521 1889.5 880.5 1889.5 1165.48 1889.5 1396.5 1805.78 1396.5 1702.5 1396.5 1599.22 1165.48 1515.5 880.5 1515.5ZM347 685 4192 685 4192 2080 347 2080Z" fill-rule="evenodd" clip-rule="evenodd"/></clipPath><clipPath id="clip5"><rect x="49" y="42" width="626" height="203"/></clipPath><clipPath id="clip6"><path d="M1914 1515.5C1656.91 1515.5 1448.5 1599.22 1448.5 1702.5 1448.5 1805.78 1656.91 1889.5 1914 1889.5 2171.09 1889.5 2379.5 1805.78 2379.5 1702.5 2379.5 1599.22 2171.09 1515.5 1914 1515.5ZM347 685 4192 685 4192 2080 347 2080Z" fill-rule="evenodd" clip-rule="evenodd"/></clipPath><clipPath id="clip7"><rect x="49" y="42" width="626" height="203"/></clipPath></defs><g transform="translate(-347 -685)"><rect x="364.5" y="694.5" width="3825" height="433" stroke="#FF822D" stroke-width="4.58333" stroke-miterlimit="8" fill="#FFFFFF"/><text fill="#7F0055" font-family="Consolas,Consolas_MSFontService,sans-serif" font-weight="400" font-size="83" transform="matrix(1 0 0 1 396.802 788)">final</text><text font-family="Consolas,Consolas_MSFontService,sans-serif" font-weight="400" font-size="83" transform="matrix(1 0 0 1 668.365 788)">StringBuilder </text><text fill="#6A3E3E" font-family="Consolas,Consolas_MSFontService,sans-serif" font-weight="400" font-size="83" transform="matrix(1 0 0 1 1302.01 788)">sb</text><text font-family="Consolas,Consolas_MSFontService,sans-serif" font-weight="400" font-size="83" transform="matrix(1 0 0 1 1437.79 788)">= </text><text fill="#7F0055" font-family="Consolas,Consolas_MSFontService,sans-serif" font-weight="400" font-size="83" transform="matrix(1 0 0 1 1528.31 788)">new</text><text font-family="Consolas,Consolas_MSFontService,sans-serif" font-weight="400" font-size="83" transform="matrix(1 0 0 1 1709.35 788)">StringBuilder(</text><text fill="#2A00FF" font-family="Consolas,Consolas_MSFontService,sans-serif" font-weight="400" font-size="83" transform="matrix(1 0 0 1 2343 788)">"</text><text fill="#2A00FF" font-family="Consolas,Consolas_MSFontService,sans-serif" font-weight="400" font-size="83" transform="matrix(1 0 0 1 2388.26 788)">abc</text><text fill="#2A00FF" font-family="Consolas,Consolas_MSFontService,sans-serif" font-weight="400" font-size="83" transform="matrix(1 0 0 1 2524.04 788)">"</text><text font-family="Consolas,Consolas_MSFontService,sans-serif" font-weight="400" font-size="83" transform="matrix(1 0 0 1 2569.3 788)">);</text><text fill="#6A3E3E" font-family="Consolas,Consolas_MSFontService,sans-serif" font-weight="400" font-size="83" transform="matrix(1 0 0 1 396.802 887)">sb</text><text font-family="Consolas,Consolas_MSFontService,sans-serif" font-weight="400" font-size="83" transform="matrix(1 0 0 1 487.323 887)">.append</text><text font-family="Consolas,Consolas_MSFontService,sans-serif" font-weight="400" font-size="83" transform="matrix(1 0 0 1 804.146 887)">(</text><text fill="#2A00FF" font-family="Consolas,Consolas_MSFontService,sans-serif" font-weight="400" font-size="83" transform="matrix(1 0 0 1 849.406 887)">"d"</text><text font-family="Consolas,Consolas_MSFontService,sans-serif" font-weight="400" font-size="83" transform="matrix(1 0 0 1 985.188 887)">);</text><text fill="#6A3E3E" font-family="Consolas,Consolas_MSFontService,sans-serif" font-weight="400" font-size="83" transform="matrix(1 0 0 1 396.802 986)">sb</text><text font-family="Consolas,Consolas_MSFontService,sans-serif" font-weight="400" font-size="83" transform="matrix(1 0 0 1 532.583 986)">= </text><text fill="#7F0055" font-family="Consolas,Consolas_MSFontService,sans-serif" font-weight="400" font-size="83" transform="matrix(1 0 0 1 623.104 986)">new</text><text font-family="Consolas,Consolas_MSFontService,sans-serif" font-weight="400" font-size="83" transform="matrix(1 0 0 1 804.146 986)">StringBuilder(</text><text fill="#2A00FF" font-family="Consolas,Consolas_MSFontService,sans-serif" font-weight="400" font-size="83" transform="matrix(1 0 0 1 1437.79 986)">"e"</text><text font-family="Consolas,Consolas_MSFontService,sans-serif" font-weight="400" font-size="83" transform="matrix(1 0 0 1 1573.57 986)">);</text><text font-family="Consolas,Consolas_MSFontService,sans-serif" font-weight="400" font-size="83" transform="matrix(1 0 0 1 396.802 1084)">System.</text><text fill="#0000C0" font-family="Consolas,Consolas_MSFontService,sans-serif" font-weight="400" font-size="83" transform="matrix(1 0 0 1 713.625 1084)">out</text><text font-family="Consolas,Consolas_MSFontService,sans-serif" font-weight="400" font-size="83" transform="matrix(1 0 0 1 849.406 1084)">.println</text><text font-family="Consolas,Consolas_MSFontService,sans-serif" font-weight="400" font-size="83" transform="matrix(1 0 0 1 1211.49 1084)">(</text><text fill="#6A3E3E" font-family="Consolas,Consolas_MSFontService,sans-serif" font-weight="400" font-size="83" transform="matrix(1 0 0 1 1256.75 1084)">sb</text><text font-family="Consolas,Consolas_MSFontService,sans-serif" font-weight="400" font-size="83" transform="matrix(1 0 0 1 1347.27 1084)">);</text><text font-family="SimSun,SimSun_MSFontService,sans-serif" font-weight="400" font-size="83" transform="matrix(1 0 0 1 2067.81 988)">编译阶段出错：</text><text font-family="Book Antiqua,Book Antiqua_MSFontService,sans-serif" font-weight="400" font-size="83" transform="matrix(1 0 0 1 2645.31 988)">The final variable </text><text font-family="Book Antiqua,Book Antiqua_MSFontService,sans-serif" font-weight="400" font-size="83" transform="matrix(1 0 0 1 3305.31 988)">sb</text><text font-family="Book Antiqua,Book Antiqua_MSFontService,sans-serif" font-weight="400" font-size="83" transform="matrix(1 0 0 1 3406.72 988)">cannot be assigned</text><g clip-path="url(#clip4)"><g filter="url(#fx0)" transform="translate(351 1502)"><g><path d="M23.2226 210.223C23.2226 106.946 254.244 23.2228 539.223 23.2228 824.202 23.2228 1055.22 106.946 1055.22 210.223 1055.22 313.5 824.202 397.223 539.223 397.223 254.244 397.223 23.2226 313.5 23.2226 210.223Z" stroke="#000000" stroke-width="7" stroke-linejoin="round" stroke-miterlimit="10" fill="#FFFFFF" fill-rule="evenodd"/></g></g><g clip-path="url(#clip5)" filter="url(#fx1)" transform="translate(526 1568)"><g><path d="M40.4058-14.3467C40.4058-11.834 39.8924-9.632 38.8657-7.74072 37.839-5.84945 36.4071-4.27563 34.5698-3.01929 32.7326-1.76294 30.5238-0.824056 27.9436-0.202637 25.3634 0.418783 22.5197 0.729492 19.4126 0.729492 18.0076 0.729492 16.6095 0.675456 15.218 0.567383 13.8266 0.45931 12.4892 0.324219 11.2058 0.162109 9.92244 3.72529e-09 8.71338-0.189128 7.57861-0.405273 6.44385-0.621419 5.41715-0.851074 4.49853-1.09424L4.49853-8.06494C6.5249-7.30843 8.80119-6.71403 11.3274-6.28174 13.8536-5.84945 16.7243-5.6333 19.9395-5.6333 22.263-5.6333 24.2421-5.81567 25.8767-6.18042 27.5113-6.54517 28.8487-7.08553 29.8889-7.80151 30.9291-8.5175 31.6856-9.38883 32.1584-10.4155 32.6313-11.4422 32.8677-12.6175 32.8677-13.9414 32.8677-15.3734 32.4692-16.5959 31.6721-17.6091 30.8751-18.6223 29.8281-19.5274 28.5312-20.3245 27.2344-21.1215 25.7551-21.851 24.0935-22.5129 22.4319-23.1749 20.7365-23.8571 19.0073-24.5596 17.2782-25.262 15.5828-26.0253 13.9211-26.8494 12.2595-27.6734 10.7803-28.6461 9.4834-29.7673 8.18652-30.8886 7.13957-32.2057 6.34253-33.7187 5.54549-35.2318 5.14697-37.0285 5.14697-39.1089 5.14697-40.9191 5.52523-42.7023 6.28174-44.4585 7.03825-46.2147 8.21354-47.775 9.80762-49.1394 11.4017-50.5038 13.4483-51.6048 15.9475-52.4424 18.4467-53.2799 21.4255-53.6987 24.8838-53.6987 25.7754-53.6987 26.7413-53.6582 27.7815-53.5771 28.8217-53.4961 29.8754-53.3813 30.9426-53.2327 32.0098-53.0841 33.0636-52.9152 34.1038-52.7261 35.144-52.5369 36.1099-52.3343 37.0015-52.1182L37.0015-45.6338C34.9211-46.2282 32.8407-46.6807 30.7603-46.9915 28.6798-47.3022 26.667-47.4575 24.7217-47.4575 20.5879-47.4575 17.5483-46.7685 15.603-45.3906 13.6577-44.0127 12.6851-42.1619 12.6851-39.8384 12.6851-38.4064 13.0836-37.1771 13.8806-36.1504 14.6777-35.1237 15.7246-34.2051 17.0215-33.3945 18.3184-32.584 19.7976-31.8477 21.4592-31.1858 23.1208-30.5238 24.8162-29.8416 26.5454-29.1392 28.2746-28.4367 29.97-27.6667 31.6316-26.8291 33.2932-25.9915 34.7725-24.9986 36.0693-23.8503 37.3662-22.7021 38.4132-21.3579 39.2102-19.8179 40.0072-18.2778 40.4058-16.4541 40.4058-14.3467ZM84.5314-0.567383C82.9373-0.162109 81.2892 0.128337 79.5871 0.303955 77.8849 0.479574 76.1557 0.567383 74.3996 0.567383 69.2931 0.567383 65.4836-0.587646 62.9709-2.8977 60.4582-5.20776 59.2018-8.75391 59.2018-13.5361L59.2018-34.7725 47.8136-34.7725 47.8136-40.6894 59.2018-40.6894 59.2018-51.875 66.2536-53.6987 66.2536-40.6894 84.5314-40.6894 84.5314-34.7725 66.2536-34.7725 66.2536-14.1035C66.2536-11.1855 67.0303-9.00382 68.5839-7.55835 70.1375-6.11287 72.4272-5.39014 75.4533-5.39014 76.7502-5.39014 78.1686-5.49145 79.7086-5.69409 81.2487-5.89673 82.8563-6.21419 84.5314-6.64648ZM98.6668-40.6894 105.111-40.6894 105.313-33.1919C107.718-36.0828 110.089-38.1768 112.426-39.4736 114.763-40.7705 117.12-41.4189 119.498-41.4189 123.713-41.4189 126.908-40.0545 129.083-37.3257 131.258-34.5968 132.264-30.5441 132.102-25.1675L124.969-25.1675C125.05-28.7339 124.53-31.3209 123.409-32.9285 122.288-34.536 120.646-35.3398 118.485-35.3398 117.539-35.3398 116.587-35.171 115.628-34.8332 114.668-34.4955 113.682-33.9552 112.669-33.2122 111.656-32.4692 110.582-31.5168 109.447-30.355 108.312-29.1932 107.097-27.7882 105.8-26.1401L105.8 0 98.6668 0ZM156.126-34.8535 144.089-34.8535 144.089-40.6894 163.259-40.6894 163.259-5.87646 175.376-5.87646 175.376 0 142.752 0 142.752-5.87646 156.126-5.87646ZM158.598-57.7515C159.382-57.7515 160.111-57.6096 160.787-57.3259 161.462-57.0422 162.05-56.6437 162.55-56.1304 163.049-55.617 163.441-55.0294 163.725-54.3674 164.009-53.7055 164.15-52.9827 164.15-52.1992 164.15-51.4427 164.009-50.7267 163.725-50.0513 163.441-49.3758 163.049-48.7814 162.55-48.2681 162.05-47.7547 161.462-47.3562 160.787-47.0725 160.111-46.7888 159.382-46.647 158.598-46.647 157.815-46.647 157.085-46.7888 156.41-47.0725 155.734-47.3562 155.147-47.7547 154.647-48.2681 154.147-48.7814 153.755-49.3758 153.471-50.0513 153.188-50.7267 153.046-51.4427 153.046-52.1992 153.046-52.9827 153.188-53.7055 153.471-54.3674 153.755-55.0294 154.147-55.617 154.647-56.1304 155.147-56.6437 155.734-57.0422 156.41-57.3259 157.085-57.6096 157.815-57.7515 158.598-57.7515ZM187.526-40.6894 193.808-40.6894 194.091-34.124C195.28-35.529 196.429-36.6975 197.536-37.6296 198.644-38.5618 199.732-39.3115 200.799-39.8789 201.866-40.4463 202.953-40.8448 204.061-41.0745 205.169-41.3041 206.317-41.4189 207.506-41.4189 211.694-41.4189 214.862-40.1829 217.01-37.7107 219.158-35.2385 220.232-31.5168 220.232-26.5454L220.232 0 213.18 0 213.18-25.978C213.18-29.1662 212.585-31.5235 211.397-33.05 210.208-34.5766 208.438-35.3398 206.088-35.3398 205.223-35.3398 204.379-35.2115 203.555-34.9548 202.731-34.6982 201.873-34.2524 200.981-33.6174 200.09-32.9825 199.124-32.1247 198.083-31.0439 197.043-29.9632 195.875-28.6123 194.578-26.9912L194.578 0 187.526 0ZM262.088-34.9346C262.844-33.9889 263.432-32.8879 263.851-31.6316 264.269-30.3752 264.479-29.0176 264.479-27.5586 264.479-25.4512 264.094-23.5261 263.324-21.7834 262.554-20.0408 261.466-18.548 260.061-17.3052 258.656-16.0623 256.974-15.0964 255.016-14.4075 253.057-13.7185 250.902-13.374 248.552-13.374 246.849-13.374 245.255-13.5564 243.769-13.9211 242.283-14.2859 241.108-14.7384 240.243-15.2788 239.73-14.5223 239.298-13.8063 238.947-13.1309 238.595-12.4554 238.42-11.6989 238.42-10.8613 238.42-9.83463 238.913-8.98356 239.899-8.3081 240.885-7.63265 242.189-7.2679 243.81-7.21387L254.509-6.80859C256.535-6.75456 258.406-6.49788 260.122-6.03857 261.838-5.57926 263.31-4.91732 264.54-4.05273 265.769-3.18815 266.728-2.12093 267.417-0.851074 268.106 0.418782 268.451 1.89128 268.451 3.56641 268.451 5.37663 268.059 7.09228 267.275 8.71338 266.492 10.3345 265.283 11.7597 263.648 12.989 262.013 14.2183 259.94 15.1978 257.427 15.9272 254.914 16.6567 251.929 17.0215 248.471 17.0215 245.174 17.0215 242.371 16.7581 240.061 16.2312 237.751 15.7043 235.853 14.9749 234.367 14.0427 232.881 13.1106 231.8 12.0028 231.125 10.7195 230.449 9.43612 230.112 8.02441 230.112 6.48437 230.112 4.51204 230.571 2.78288 231.49 1.29687 232.408-0.189128 233.827-1.62109 235.745-2.99902 235.042-3.32324 234.435-3.72852 233.921-4.21484 233.408-4.70117 232.989-5.23478 232.665-5.81567 232.341-6.39657 232.097-7.01123 231.935-7.65967 231.773-8.3081 231.692-8.94303 231.692-9.56445 231.692-11.3206 232.104-12.9282 232.928-14.3872 233.752-15.8462 234.732-17.2241 235.867-18.521 235.353-19.1424 234.901-19.7503 234.509-20.3447 234.117-20.9391 233.779-21.5808 233.496-22.2698 233.212-22.9587 232.996-23.7017 232.847-24.4988 232.699-25.2958 232.624-26.2077 232.624-27.2344 232.624-29.3418 233.009-31.2668 233.779-33.0095 234.549-34.7522 235.63-36.2449 237.022-37.4878 238.413-38.7306 240.088-39.6965 242.047-40.3855 244.006-41.0745 246.174-41.4189 248.552-41.4189 249.551-41.4189 250.51-41.3514 251.429-41.2163 252.348-41.0812 253.158-40.9056 253.861-40.6894L268.613-40.6894 268.613-34.9346ZM237.609 5.87646C237.609 7.79476 238.609 9.19295 240.608 10.071 242.608 10.9491 245.39 11.3882 248.957 11.3882 251.199 11.3882 253.084 11.1855 254.61 10.7803 256.137 10.375 257.366 9.84139 258.298 9.17944 259.231 8.5175 259.899 7.76099 260.305 6.90991 260.71 6.05884 260.912 5.1875 260.912 4.2959 260.912 2.64779 260.237 1.43197 258.886 0.648437 257.535-0.135091 255.468-0.594401 252.685-0.729492L242.067-1.09424C241.176-0.499837 240.439 0.0810547 239.858 0.648437 239.278 1.21582 238.825 1.78996 238.501 2.37085 238.177 2.95174 237.947 3.53263 237.812 4.11352 237.677 4.69442 237.609 5.28206 237.609 5.87646ZM239.757-27.3965C239.757-26.0996 239.973-24.9108 240.406-23.8301 240.838-22.7493 241.446-21.8307 242.229-21.0742 243.013-20.3177 243.938-19.7301 245.005-19.3113 246.073-18.8925 247.255-18.6831 248.552-18.6831 249.957-18.6831 251.206-18.9195 252.3-19.3923 253.395-19.8652 254.313-20.5068 255.056-21.3174 255.799-22.1279 256.367-23.0601 256.758-24.1138 257.15-25.1675 257.346-26.2617 257.346-27.3965 257.346-28.6934 257.13-29.8822 256.698-30.9629 256.265-32.0436 255.657-32.9622 254.874-33.7187 254.09-34.4753 253.165-35.0629 252.098-35.4817 251.03-35.9005 249.848-36.1099 248.552-36.1099 247.147-36.1099 245.897-35.8667 244.803-35.3804 243.709-34.894 242.79-34.2524 242.047-33.4553 241.304-32.6583 240.737-31.7329 240.345-30.6792 239.953-29.6255 239.757-28.5312 239.757-27.3965ZM312.738-15.8462C312.738-13.3065 312.245-11.0572 311.259-9.09839 310.273-7.13957 308.868-5.4847 307.044-4.13379 305.22-2.78288 303.018-1.75618 300.438-1.05371 297.858-0.351237 294.987 0 291.826 0L277.966 0 277.966-52.9692 293.123-52.9692C304.93-52.9692 310.833-48.6733 310.833-40.0815 310.833-37.2176 310.151-34.7589 308.787-32.7056 307.422-30.6522 305.2-29.1256 302.12-28.126 303.552-27.8558 304.91-27.3965 306.193-26.748 307.476-26.0996 308.604-25.262 309.577-24.2353 310.55-23.2087 311.32-21.9928 311.887-20.5879 312.455-19.1829 312.738-17.6024 312.738-15.8462ZM303.336-39.1089C303.336-40.1896 303.174-41.2095 302.85-42.1687 302.525-43.1278 301.958-43.9519 301.147-44.6409 300.337-45.3298 299.243-45.8769 297.865-46.2822 296.487-46.6875 294.744-46.8901 292.637-46.8901L285.18-46.8901 285.18-30.3145 292.394-30.3145C294.042-30.3144 295.534-30.4901 296.872-30.8413 298.209-31.1925 299.357-31.7329 300.317-32.4624 301.276-33.1919 302.019-34.1038 302.546-35.198 303.072-36.2922 303.336-37.5959 303.336-39.1089ZM305.079-15.603C305.079-16.9539 304.795-18.1698 304.228-19.2505 303.66-20.3312 302.836-21.2431 301.755-21.9861 300.675-22.7291 299.357-23.3032 297.804-23.7085 296.25-24.1138 294.501-24.3164 292.556-24.3164L285.18-24.3164 285.18-6.0791 292.799-6.0791C296.933-6.0791 300.013-6.84912 302.039-8.38916 304.065-9.9292 305.079-12.3338 305.079-15.603ZM356.013 0 349.691 0 349.447-6.56543C348.232-5.16048 347.077-3.99194 345.982-3.05981 344.888-2.12769 343.801-1.37793 342.72-0.810547 341.639-0.243164 340.552 0.155355 339.457 0.38501 338.363 0.614665 337.208 0.729492 335.992 0.729492 331.804 0.729492 328.643-0.499837 326.509-2.9585 324.374-5.41715 323.307-9.13216 323.307-14.1035L323.307-40.6894 330.359-40.6894 330.359-14.6709C330.359-8.42969 332.71-5.30908 337.411-5.30908 338.275-5.30908 339.12-5.43742 339.944-5.69409 340.768-5.95076 341.632-6.39657 342.537-7.03149 343.443-7.66642 344.415-8.52425 345.455-9.60498 346.496-10.6857 347.664-12.0501 348.961-13.6982L348.961-40.6894 356.013-40.6894ZM382.428-34.8535 370.391-34.8535 370.391-40.6894 389.561-40.6894 389.561-5.87646 401.678-5.87646 401.678 0 369.054 0 369.054-5.87646 382.428-5.87646ZM384.9-57.7515C385.684-57.7515 386.413-57.6096 387.089-57.3259 387.764-57.0422 388.352-56.6437 388.852-56.1304 389.351-55.617 389.743-55.0294 390.027-54.3674 390.311-53.7055 390.452-52.9827 390.452-52.1992 390.452-51.4427 390.311-50.7267 390.027-50.0513 389.743-49.3758 389.351-48.7814 388.852-48.2681 388.352-47.7547 387.764-47.3562 387.089-47.0725 386.413-46.7888 385.684-46.647 384.9-46.647 384.117-46.647 383.387-46.7888 382.712-47.0725 382.036-47.3562 381.449-47.7547 380.949-48.2681 380.449-48.7814 380.057-49.3758 379.773-50.0513 379.49-50.7267 379.348-51.4427 379.348-52.1992 379.348-52.9827 379.49-53.7055 379.773-54.3674 380.057-55.0294 380.449-55.617 380.949-56.1304 381.449-56.6437 382.036-57.0422 382.712-57.3259 383.387-57.6096 384.117-57.7515 384.9-57.7515ZM427.688-51.4697 415.652-51.4697 415.652-57.2651 434.821-57.2651 434.821-5.87646 446.939-5.87646 446.939 0 414.314 0 414.314-5.87646 427.688-5.87646ZM457.022-19.4937C457.022-22.952 457.494-26.0253 458.44-28.7136 459.386-31.4019 460.73-33.6715 462.473-35.5222 464.215-37.373 466.309-38.7779 468.754-39.7371 471.199-40.6962 473.921-41.1758 476.921-41.1758 478.217-41.1758 479.494-41.0947 480.75-40.9326 482.007-40.7705 483.243-40.5138 484.459-40.1626L484.459-57.2651 491.551-57.2651 491.551 0 485.229 0 484.985-7.70019C483.013-4.83626 480.879-2.71533 478.582-1.3374 476.286 0.0405273 473.8 0.729492 471.125 0.729492 468.802 0.729492 466.755 0.243164 464.985-0.729492 463.216-1.70215 461.743-3.07332 460.568-4.84302 459.392-6.61271 458.508-8.7404 457.913-11.2261 457.319-13.7118 457.022-16.4676 457.022-19.4937ZM464.235-19.9395C464.235-15.0221 464.958-11.3544 466.404-8.93628 467.849-6.51815 469.896-5.30908 472.544-5.30908 474.327-5.30908 476.211-6.10612 478.197-7.70019 480.183-9.29427 482.27-11.6584 484.459-14.7925L484.459-33.6782C483.297-34.2186 482.013-34.6306 480.608-34.9143 479.204-35.198 477.812-35.3398 476.434-35.3398 472.598-35.3398 469.605-34.097 467.457-31.6113 465.309-29.1256 464.235-25.235 464.235-19.9395ZM538.716-22.4927C538.716-21.493 538.703-20.6554 538.676-19.98 538.648-19.3045 538.608-18.6696 538.554-18.0752L509.982-18.0752C509.982-13.9144 511.144-10.7195 513.468-8.49048 515.791-6.26147 519.141-5.14697 523.518-5.14697 524.707-5.14697 525.896-5.19425 527.085-5.28882 528.273-5.38338 529.422-5.51172 530.53-5.67383 531.637-5.83594 532.698-6.01831 533.711-6.22095 534.724-6.42358 535.663-6.64648 536.528-6.88965L536.528-1.09424C534.609-0.553874 532.441-0.114827 530.023 0.2229 527.605 0.560628 525.099 0.729492 522.505 0.729492 519.02 0.729492 516.021 0.256673 513.508-0.688965 510.995-1.6346 508.935-3.00578 507.328-4.80249 505.72-6.5992 504.531-8.80119 503.761-11.4084 502.991-14.0157 502.606-16.9674 502.606-20.2637 502.606-23.1276 503.018-25.8362 503.842-28.3894 504.666-30.9426 505.869-33.1851 507.449-35.1169 509.03-37.0487 510.968-38.582 513.265-39.7168 515.561-40.8516 518.169-41.4189 521.087-41.4189 523.924-41.4189 526.436-40.9731 528.625-40.0815 530.813-39.1899 532.657-37.9268 534.157-36.2922 535.656-34.6576 536.791-32.6718 537.561-30.3347 538.331-27.9976 538.716-25.3836 538.716-22.4927ZM531.381-23.5059C531.462-25.3161 531.286-26.9709 530.854-28.4705 530.421-29.97 529.753-31.2601 528.848-32.3408 527.943-33.4215 526.815-34.2659 525.464-34.8738 524.113-35.4817 522.546-35.7856 520.762-35.7856 519.222-35.7856 517.817-35.4884 516.548-34.894 515.278-34.2996 514.183-33.4621 513.265-32.3813 512.346-31.3006 511.603-30.0037 511.036-28.4907 510.469-26.9777 510.117-25.3161 509.982-23.5059ZM551.271-40.6894 557.715-40.6894 557.917-33.1919C560.322-36.0828 562.693-38.1768 565.03-39.4736 567.367-40.7705 569.724-41.4189 572.102-41.4189 576.317-41.4189 579.512-40.0545 581.687-37.3257 583.862-34.5968 584.868-30.5441 584.706-25.1675L577.573-25.1675C577.654-28.7339 577.134-31.3209 576.013-32.9285 574.892-34.536 573.25-35.3398 571.089-35.3398 570.143-35.3398 569.191-35.171 568.232-34.8332 567.272-34.4955 566.286-33.9552 565.273-33.2122 564.26-32.4692 563.186-31.5168 562.051-30.355 560.916-29.1932 559.701-27.7882 558.404-26.1401L558.404 0 551.271 0Z" transform="matrix(1 0 0 1 69.2435 123)"/><path d="M22.0874-52.5234C20.8986-52.5504 19.7436-52.4356 18.6223-52.179 17.5011-51.9223 16.5014-51.5238 15.6233-50.9834 14.7452-50.443 14.036-49.7676 13.4956-48.957 12.9552-48.1465 12.6851-47.2143 12.6851-46.1606 12.6851-45.1069 12.8607-44.2559 13.2119-43.6074 13.5632-42.959 13.9549-42.3511 14.3872-41.7837 14.8195-41.2163 15.2113-40.6151 15.5625-39.9802 15.9137-39.3453 16.0894-38.501 16.0894-37.4473 16.0894-36.9069 15.988-36.3463 15.7854-35.7654 15.5828-35.1845 15.2721-34.6576 14.8533-34.1848 14.4345-33.712 13.9009-33.3202 13.2524-33.0095 12.604-32.6988 11.834-32.5435 10.9424-32.5435 10.0508-32.5435 9.19971-32.7326 8.38916-33.1108 7.57861-33.4891 6.86263-34.0565 6.24121-34.813 5.61979-35.5695 5.12671-36.5151 4.76196-37.6499 4.39722-38.7847 4.21484-40.1221 4.21484-41.6621 4.21484-43.7695 4.59985-45.7891 5.36987-47.7209 6.13989-49.6527 7.27466-51.3616 8.77417-52.8477 10.2737-54.3337 12.1379-55.5225 14.3669-56.4141 16.5959-57.3057 19.1694-57.7515 22.0874-57.7515ZM43.3237-52.5234C42.1349-52.5504 40.9799-52.4356 39.8586-52.179 38.7374-51.9223 37.7377-51.5238 36.8596-50.9834 35.9815-50.443 35.279-49.7676 34.7522-48.957 34.2253-48.1465 33.9619-47.2143 33.9619-46.1606 33.9619-45.1069 34.1375-44.2559 34.4888-43.6074 34.84-42.959 35.2318-42.3511 35.6641-41.7837 36.0964-41.2163 36.4881-40.6151 36.8394-39.9802 37.1906-39.3453 37.3662-38.501 37.3662-37.4473 37.3662-36.9069 37.2649-36.3463 37.0623-35.7654 36.8596-35.1845 36.5489-34.6576 36.1301-34.1848 35.7113-33.712 35.1777-33.3202 34.5293-33.0095 33.8809-32.6988 33.1108-32.5435 32.2192-32.5435 31.3276-32.5435 30.4766-32.7326 29.666-33.1108 28.8555-33.4891 28.1395-34.0565 27.5181-34.813 26.8966-35.5695 26.4036-36.5151 26.0388-37.6499 25.6741-38.7847 25.4917-40.1221 25.4917-41.6621 25.4917-43.7695 25.87-45.7891 26.6265-47.7209 27.383-49.6527 28.511-51.3616 30.0105-52.8477 31.51-54.3337 33.3743-55.5225 35.6033-56.4141 37.8323-57.3057 40.4058-57.7515 43.3237-57.7515Z" transform="matrix(1 0 0 1 91.8852 222)"/><path d="M32.6245 0 32.4624-5.47119C30.2469-3.28271 27.9976-1.70215 25.7146-0.729492 23.4316 0.243164 21.0337 0.729492 18.521 0.729492 16.1974 0.729492 14.2116 0.432292 12.5635-0.162109 10.9154-0.75651 9.5577-1.57381 8.49048-2.61401 7.42326-3.65422 6.63973-4.87679 6.13989-6.28174 5.64005-7.68669 5.39014-9.21321 5.39014-10.8613 5.39014-14.9411 6.90991-18.136 9.94946-20.446 12.989-22.7561 17.4808-23.9111 23.4248-23.9111L31.8545-23.9111 31.8545-27.4775C31.8545-29.8822 31.0845-31.8072 29.5444-33.2527 28.0044-34.6982 25.6538-35.4209 22.4927-35.4209 20.1961-35.4209 17.9333-35.1642 15.7043-34.6509 13.4753-34.1375 11.172-33.408 8.79443-32.4624L8.79443-38.8252C9.68603-39.1494 10.679-39.4669 11.7732-39.7776 12.8674-40.0883 14.0225-40.3652 15.2383-40.6084 16.4541-40.8516 17.724-41.0474 19.0478-41.196 20.3717-41.3446 21.7091-41.4189 23.0601-41.4189 25.5187-41.4189 27.7342-41.1488 29.7065-40.6084 31.6789-40.068 33.3472-39.244 34.7117-38.1362 36.0761-37.0285 37.123-35.637 37.8525-33.9619 38.582-32.2868 38.9468-30.3144 38.9468-28.0449L38.9468 0ZM31.8545-18.521 22.8979-18.521C21.1418-18.521 19.6287-18.3454 18.3589-17.9941 17.089-17.6429 16.0488-17.1431 15.2383-16.4946 14.4277-15.8462 13.8266-15.0694 13.4348-14.1643 13.043-13.2592 12.8472-12.2393 12.8472-11.1045 12.8472-10.321 12.9687-9.57121 13.2119-8.85522 13.4551-8.13924 13.8468-7.50431 14.3872-6.95044 14.9276-6.39656 15.63-5.95752 16.4946-5.6333 17.3592-5.30908 18.4129-5.14697 19.6558-5.14697 21.2769-5.14697 23.1344-5.64005 25.2283-6.62622 27.3222-7.61239 29.5309-9.17269 31.8545-11.3071ZM86.5172-21.0742C86.5172-17.6969 86.0512-14.6777 85.119-12.0164 84.1869-9.35506 82.863-7.09904 81.1474-5.24829 79.4317-3.39754 77.3446-1.97908 74.8859-0.99292 72.4272-0.00675458 69.6579 0.486328 66.5778 0.486328 64.1732 0.486328 61.7145 0.256673 59.2018-0.202637 56.6891-0.661947 54.2034-1.39144 51.7448-2.39111L51.7448-57.2651 58.7965-57.2651 58.7965-41.5 58.4723-33.9619C60.4987-36.6908 62.6669-38.6158 64.977-39.7371 67.287-40.8583 69.7659-41.4189 72.4137-41.4189 74.7373-41.4189 76.7772-40.9326 78.5334-39.96 80.2895-38.9873 81.762-37.6161 82.9508-35.8464 84.1396-34.0767 85.0312-31.9423 85.6256-29.4431 86.22-26.9439 86.5172-24.1543 86.5172-21.0742ZM79.3034-20.75C79.3034-22.8844 79.148-24.8433 78.8373-26.6265 78.5266-28.4097 78.0335-29.9362 77.3581-31.2061 76.6826-32.4759 75.818-33.4688 74.7643-34.1848 73.7106-34.9008 72.4543-35.2588 70.9953-35.2588 70.1037-35.2588 69.1986-35.1169 68.2799-34.8332 67.3613-34.5496 66.4089-34.0767 65.4228-33.4148 64.4366-32.7528 63.3964-31.8748 62.3022-30.7805 61.2079-29.6863 60.0394-28.3286 58.7965-26.7075L58.7965-6.9707C60.1745-6.43034 61.5794-6.0048 63.0114-5.69409 64.4434-5.38338 65.8078-5.22803 67.1047-5.22803 68.7257-5.22803 70.2725-5.4847 71.745-5.99805 73.2175-6.51139 74.5144-7.36922 75.6357-8.57153 76.7569-9.77384 77.6485-11.3679 78.3105-13.3538 78.9724-15.3396 79.3034-17.805 79.3034-20.75ZM128.617-1.49951C126.779-0.797038 124.895-0.276937 122.963 0.060791 121.031 0.398519 119.039 0.567383 116.985 0.567383 110.555 0.567383 105.604-1.17529 102.132-4.66064 98.6601-8.146 96.9241-13.2389 96.9241-19.9395 96.9241-23.1546 97.424-26.0726 98.4237-28.6934 99.4233-31.3141 100.828-33.5566 102.639-35.4209 104.449-37.2851 106.61-38.7239 109.123-39.7371 111.636-40.7502 114.405-41.2568 117.431-41.2568 119.538-41.2568 121.511-41.1082 123.348-40.811 125.185-40.5138 126.941-40.0275 128.617-39.352L128.617-32.6245C126.86-33.5431 125.07-34.2118 123.247-34.6306 121.423-35.0494 119.538-35.2588 117.593-35.2588 115.783-35.2588 114.074-34.9143 112.466-34.2253 110.859-33.5364 109.447-32.5435 108.231-31.2466 107.015-29.9497 106.056-28.3691 105.354-26.5049 104.651-24.6406 104.3-22.5332 104.3-20.1826 104.3-15.2653 105.496-11.5841 107.887-9.13892 110.278-6.69377 113.594-5.47119 117.836-5.47119 119.755-5.47119 121.612-5.68734 123.409-6.11963 125.205-6.55192 126.941-7.20036 128.617-8.06494Z" transform="matrix(1 0 0 1 137.146 222)"/><path d="M23.5869-37.7715C24.7487-37.7174 25.897-37.8255 27.0317-38.0957 28.1665-38.3659 29.1662-38.7712 30.0308-39.3115 30.8953-39.8519 31.5978-40.5341 32.1382-41.3582 32.6785-42.1822 32.9487-43.1211 32.9487-44.1748 32.9487-45.2285 32.7731-46.0728 32.4219-46.7078 32.0706-47.3427 31.6789-47.9438 31.2466-48.5112 30.8143-49.0786 30.4225-49.6865 30.0713-50.335 29.7201-50.9834 29.5444-51.8345 29.5444-52.8882 29.5444-53.4285 29.6458-53.9824 29.8484-54.5498 30.051-55.1172 30.3617-55.6373 30.7805-56.1101 31.1993-56.5829 31.7329-56.9747 32.3813-57.2854 33.0298-57.5961 33.7998-57.7515 34.6914-57.7515 35.583-57.7515 36.4341-57.5623 37.2446-57.1841 38.0552-56.8058 38.7712-56.2452 39.3926-55.5022 40.014-54.7592 40.5071-53.8136 40.8718-52.6653 41.2366-51.517 41.4189-50.1728 41.4189-48.6328 41.4189-46.5254 41.0339-44.5058 40.2639-42.574 39.4939-40.6422 38.3591-38.9333 36.8596-37.4473 35.3601-35.9613 33.5026-34.7725 31.2871-33.8809 29.0716-32.9893 26.5049-32.5435 23.5869-32.5435ZM2.31006-37.7715C3.49886-37.7174 4.65389-37.8255 5.77515-38.0957 6.8964-38.3659 7.89608-38.7712 8.77417-39.3115 9.65226-39.8519 10.3615-40.5341 10.9019-41.3582 11.4422-42.1822 11.7124-43.1211 11.7124-44.1748 11.7124-45.2285 11.5368-46.0728 11.1855-46.7078 10.8343-47.3427 10.4425-47.9438 10.0103-48.5112 9.57796-49.0786 9.1862-49.6865 8.83496-50.335 8.48372-50.9834 8.3081-51.8345 8.3081-52.8882 8.3081-53.4285 8.40942-53.9824 8.61206-54.5498 8.8147-55.1172 9.12541-55.6373 9.54419-56.1101 9.96297-56.5829 10.4966-56.9747 11.145-57.2854 11.7935-57.5961 12.5635-57.7515 13.4551-57.7515 14.3467-57.7515 15.1978-57.5623 16.0083-57.1841 16.8188-56.8058 17.5348-56.2452 18.1562-55.5022 18.7777-54.7592 19.2708-53.8136 19.6355-52.6653 20.0002-51.517 20.1826-50.1728 20.1826-48.6328 20.1826-46.5254 19.7976-44.5058 19.0276-42.574 18.2576-40.6422 17.1228-38.9333 15.6233-37.4473 14.1238-35.9613 12.2595-34.7725 10.0305-33.8809 7.80151-32.9893 5.22803-32.5435 2.31006-32.5435Z" transform="matrix(1 0 0 1 272.927 222)"/><path d="M22.0874-52.5234C20.8986-52.5504 19.7436-52.4356 18.6223-52.179 17.5011-51.9223 16.5014-51.5238 15.6233-50.9834 14.7452-50.443 14.036-49.7676 13.4956-48.957 12.9552-48.1465 12.6851-47.2143 12.6851-46.1606 12.6851-45.1069 12.8607-44.2559 13.2119-43.6074 13.5632-42.959 13.9549-42.3511 14.3872-41.7837 14.8195-41.2163 15.2113-40.6151 15.5625-39.9802 15.9137-39.3453 16.0894-38.501 16.0894-37.4473 16.0894-36.9069 15.988-36.3463 15.7854-35.7654 15.5828-35.1845 15.2721-34.6576 14.8533-34.1848 14.4345-33.712 13.9009-33.3202 13.2524-33.0095 12.604-32.6988 11.834-32.5435 10.9424-32.5435 10.0508-32.5435 9.19971-32.7326 8.38916-33.1108 7.57861-33.4891 6.86263-34.0565 6.24121-34.813 5.61979-35.5695 5.12671-36.5151 4.76196-37.6499 4.39722-38.7847 4.21484-40.1221 4.21484-41.6621 4.21484-43.7695 4.59985-45.7891 5.36987-47.7209 6.13989-49.6527 7.27466-51.3616 8.77417-52.8477 10.2737-54.3337 12.1379-55.5225 14.3669-56.4141 16.5959-57.3057 19.1694-57.7515 22.0874-57.7515ZM43.3237-52.5234C42.1349-52.5504 40.9799-52.4356 39.8586-52.179 38.7374-51.9223 37.7377-51.5238 36.8596-50.9834 35.9815-50.443 35.279-49.7676 34.7522-48.957 34.2253-48.1465 33.9619-47.2143 33.9619-46.1606 33.9619-45.1069 34.1375-44.2559 34.4888-43.6074 34.84-42.959 35.2318-42.3511 35.6641-41.7837 36.0964-41.2163 36.4881-40.6151 36.8394-39.9802 37.1906-39.3453 37.3662-38.501 37.3662-37.4473 37.3662-36.9069 37.2649-36.3463 37.0623-35.7654 36.8596-35.1845 36.5489-34.6576 36.1301-34.1848 35.7113-33.712 35.1777-33.3202 34.5293-33.0095 33.8809-32.6988 33.1108-32.5435 32.2192-32.5435 31.3276-32.5435 30.4766-32.7326 29.666-33.1108 28.8555-33.4891 28.1395-34.0565 27.5181-34.813 26.8966-35.5695 26.4036-36.5151 26.0388-37.6499 25.6741-38.7847 25.4917-40.1221 25.4917-41.6621 25.4917-43.7695 25.87-45.7891 26.6265-47.7209 27.383-49.6527 28.511-51.3616 30.0105-52.8477 31.51-54.3337 33.3743-55.5225 35.6033-56.4141 37.8323-57.3057 40.4058-57.7515 43.3237-57.7515Z" fill="#FFFFFF" transform="matrix(1 0 0 1 363.448 222)"/><path d="M32.6245 0 32.4624-5.47119C30.2469-3.28271 27.9976-1.70215 25.7146-0.729492 23.4316 0.243164 21.0337 0.729492 18.521 0.729492 16.1974 0.729492 14.2116 0.432292 12.5635-0.162109 10.9154-0.75651 9.5577-1.57381 8.49048-2.61401 7.42326-3.65422 6.63973-4.87679 6.13989-6.28174 5.64005-7.68669 5.39014-9.21321 5.39014-10.8613 5.39014-14.9411 6.90991-18.136 9.94946-20.446 12.989-22.7561 17.4808-23.9111 23.4248-23.9111L31.8545-23.9111 31.8545-27.4775C31.8545-29.8822 31.0845-31.8072 29.5444-33.2527 28.0044-34.6982 25.6538-35.4209 22.4927-35.4209 20.1961-35.4209 17.9333-35.1642 15.7043-34.6509 13.4753-34.1375 11.172-33.408 8.79443-32.4624L8.79443-38.8252C9.68603-39.1494 10.679-39.4669 11.7732-39.7776 12.8674-40.0883 14.0225-40.3652 15.2383-40.6084 16.4541-40.8516 17.724-41.0474 19.0478-41.196 20.3717-41.3446 21.7091-41.4189 23.0601-41.4189 25.5187-41.4189 27.7342-41.1488 29.7065-40.6084 31.6789-40.068 33.3472-39.244 34.7117-38.1362 36.0761-37.0285 37.123-35.637 37.8525-33.9619 38.582-32.2868 38.9468-30.3144 38.9468-28.0449L38.9468 0ZM31.8545-18.521 22.8979-18.521C21.1418-18.521 19.6287-18.3454 18.3589-17.9941 17.089-17.6429 16.0488-17.1431 15.2383-16.4946 14.4277-15.8462 13.8266-15.0694 13.4348-14.1643 13.043-13.2592 12.8472-12.2393 12.8472-11.1045 12.8472-10.321 12.9687-9.57121 13.2119-8.85522 13.4551-8.13924 13.8468-7.50431 14.3872-6.95044 14.9276-6.39656 15.63-5.95752 16.4946-5.6333 17.3592-5.30908 18.4129-5.14697 19.6558-5.14697 21.2769-5.14697 23.1344-5.64005 25.2283-6.62622 27.3222-7.61239 29.5309-9.17269 31.8545-11.3071ZM86.5172-21.0742C86.5172-17.6969 86.0512-14.6777 85.119-12.0164 84.1869-9.35506 82.863-7.09904 81.1474-5.24829 79.4317-3.39754 77.3446-1.97908 74.8859-0.99292 72.4272-0.00675458 69.6579 0.486328 66.5778 0.486328 64.1732 0.486328 61.7145 0.256673 59.2018-0.202637 56.6891-0.661947 54.2034-1.39144 51.7448-2.39111L51.7448-57.2651 58.7965-57.2651 58.7965-41.5 58.4723-33.9619C60.4987-36.6908 62.6669-38.6158 64.977-39.7371 67.287-40.8583 69.7659-41.4189 72.4137-41.4189 74.7373-41.4189 76.7772-40.9326 78.5334-39.96 80.2895-38.9873 81.762-37.6161 82.9508-35.8464 84.1396-34.0767 85.0312-31.9423 85.6256-29.4431 86.22-26.9439 86.5172-24.1543 86.5172-21.0742ZM79.3034-20.75C79.3034-22.8844 79.148-24.8433 78.8373-26.6265 78.5266-28.4097 78.0335-29.9362 77.3581-31.2061 76.6826-32.4759 75.818-33.4688 74.7643-34.1848 73.7106-34.9008 72.4543-35.2588 70.9953-35.2588 70.1037-35.2588 69.1986-35.1169 68.2799-34.8332 67.3613-34.5496 66.4089-34.0767 65.4228-33.4148 64.4366-32.7528 63.3964-31.8748 62.3022-30.7805 61.2079-29.6863 60.0394-28.3286 58.7965-26.7075L58.7965-6.9707C60.1745-6.43034 61.5794-6.0048 63.0114-5.69409 64.4434-5.38338 65.8078-5.22803 67.1047-5.22803 68.7257-5.22803 70.2725-5.4847 71.745-5.99805 73.2175-6.51139 74.5144-7.36922 75.6357-8.57153 76.7569-9.77384 77.6485-11.3679 78.3105-13.3538 78.9724-15.3396 79.3034-17.805 79.3034-20.75ZM128.617-1.49951C126.779-0.797038 124.895-0.276937 122.963 0.060791 121.031 0.398519 119.039 0.567383 116.985 0.567383 110.555 0.567383 105.604-1.17529 102.132-4.66064 98.6601-8.146 96.9241-13.2389 96.9241-19.9395 96.9241-23.1546 97.424-26.0726 98.4237-28.6934 99.4233-31.3141 100.828-33.5566 102.639-35.4209 104.449-37.2851 106.61-38.7239 109.123-39.7371 111.636-40.7502 114.405-41.2568 117.431-41.2568 119.538-41.2568 121.511-41.1082 123.348-40.811 125.185-40.5138 126.941-40.0275 128.617-39.352L128.617-32.6245C126.86-33.5431 125.07-34.2118 123.247-34.6306 121.423-35.0494 119.538-35.2588 117.593-35.2588 115.783-35.2588 114.074-34.9143 112.466-34.2253 110.859-33.5364 109.447-32.5435 108.231-31.2466 107.015-29.9497 106.056-28.3691 105.354-26.5049 104.651-24.6406 104.3-22.5332 104.3-20.1826 104.3-15.2653 105.496-11.5841 107.887-9.13892 110.278-6.69377 113.594-5.47119 117.836-5.47119 119.755-5.47119 121.612-5.68734 123.409-6.11963 125.205-6.55192 126.941-7.20036 128.617-8.06494ZM140.199-19.4937C140.199-22.952 140.672-26.0253 141.617-28.7136 142.563-31.4019 143.907-33.6715 145.65-35.5222 147.392-37.373 149.486-38.7779 151.931-39.7371 154.377-40.6962 157.099-41.1758 160.098-41.1758 161.395-41.1758 162.671-41.0947 163.927-40.9326 165.184-40.7705 166.42-40.5138 167.636-40.1626L167.636-57.2651 174.728-57.2651 174.728 0 168.406 0 168.163-7.70019C166.19-4.83626 164.056-2.71533 161.759-1.3374 159.463 0.0405273 156.977 0.729492 154.302 0.729492 151.979 0.729492 149.932 0.243164 148.162-0.729492 146.393-1.70215 144.92-3.07332 143.745-4.84302 142.57-6.61271 141.685-8.7404 141.09-11.2261 140.496-13.7118 140.199-16.4676 140.199-19.4937ZM147.413-19.9395C147.413-15.0221 148.135-11.3544 149.581-8.93628 151.026-6.51815 153.073-5.30908 155.721-5.30908 157.504-5.30908 159.388-6.10612 161.374-7.70019 163.36-9.29427 165.447-11.6584 167.636-14.7925L167.636-33.6782C166.474-34.2186 165.191-34.6306 163.786-34.9143 162.381-35.198 160.989-35.3398 159.611-35.3398 155.775-35.3398 152.782-34.097 150.635-31.6113 148.487-29.1256 147.413-25.235 147.413-19.9395Z" fill="#FFFFFF" transform="matrix(1 0 0 1 408.708 222)"/><path d="M23.5869-37.7715C24.7487-37.7174 25.897-37.8255 27.0317-38.0957 28.1665-38.3659 29.1662-38.7712 30.0308-39.3115 30.8953-39.8519 31.5978-40.5341 32.1382-41.3582 32.6785-42.1822 32.9487-43.1211 32.9487-44.1748 32.9487-45.2285 32.7731-46.0728 32.4219-46.7078 32.0706-47.3427 31.6789-47.9438 31.2466-48.5112 30.8143-49.0786 30.4225-49.6865 30.0713-50.335 29.7201-50.9834 29.5444-51.8345 29.5444-52.8882 29.5444-53.4285 29.6458-53.9824 29.8484-54.5498 30.051-55.1172 30.3617-55.6373 30.7805-56.1101 31.1993-56.5829 31.7329-56.9747 32.3813-57.2854 33.0298-57.5961 33.7998-57.7515 34.6914-57.7515 35.583-57.7515 36.4341-57.5623 37.2446-57.1841 38.0552-56.8058 38.7712-56.2452 39.3926-55.5022 40.014-54.7592 40.5071-53.8136 40.8718-52.6653 41.2366-51.517 41.4189-50.1728 41.4189-48.6328 41.4189-46.5254 41.0339-44.5058 40.2639-42.574 39.4939-40.6422 38.3591-38.9333 36.8596-37.4473 35.3601-35.9613 33.5026-34.7725 31.2871-33.8809 29.0716-32.9893 26.5049-32.5435 23.5869-32.5435ZM2.31006-37.7715C3.49886-37.7174 4.65389-37.8255 5.77515-38.0957 6.8964-38.3659 7.89608-38.7712 8.77417-39.3115 9.65226-39.8519 10.3615-40.5341 10.9019-41.3582 11.4422-42.1822 11.7124-43.1211 11.7124-44.1748 11.7124-45.2285 11.5368-46.0728 11.1855-46.7078 10.8343-47.3427 10.4425-47.9438 10.0103-48.5112 9.57796-49.0786 9.1862-49.6865 8.83496-50.335 8.48372-50.9834 8.3081-51.8345 8.3081-52.8882 8.3081-53.4285 8.40942-53.9824 8.61206-54.5498 8.8147-55.1172 9.12541-55.6373 9.54419-56.1101 9.96297-56.5829 10.4966-56.9747 11.145-57.2854 11.7935-57.5961 12.5635-57.7515 13.4551-57.7515 14.3467-57.7515 15.1978-57.5623 16.0083-57.1841 16.8188-56.8058 17.5348-56.2452 18.1562-55.5022 18.7777-54.7592 19.2708-53.8136 19.6355-52.6653 20.0002-51.517 20.1826-50.1728 20.1826-48.6328 20.1826-46.5254 19.7976-44.5058 19.0276-42.574 18.2576-40.6422 17.1228-38.9333 15.6233-37.4473 14.1238-35.9613 12.2595-34.7725 10.0305-33.8809 7.80151-32.9893 5.22803-32.5435 2.31006-32.5435Z" fill="#FFFFFF" transform="matrix(1 0 0 1 589.75 222)"/></g></g></g><path d="M364.5 1702.5C364.5 1599.22 595.521 1515.5 880.5 1515.5 1165.48 1515.5 1396.5 1599.22 1396.5 1702.5 1396.5 1805.78 1165.48 1889.5 880.5 1889.5 595.521 1889.5 364.5 1805.78 364.5 1702.5Z" stroke="#000000" stroke-width="6.875" stroke-linejoin="round" stroke-miterlimit="10" fill="#FFFFFF" fill-rule="evenodd"/><text font-family="Consolas,Consolas_MSFontService,sans-serif" font-weight="400" font-size="83" transform="matrix(1 0 0 1 585.521 1681)">StringBuilder</text><text font-family="Consolas,Consolas_MSFontService,sans-serif" font-weight="400" font-size="83" transform="matrix(1 0 0 1 608.162 1780)">“</text><text font-family="Consolas,Consolas_MSFontService,sans-serif" font-weight="400" font-size="83" transform="matrix(1 0 0 1 653.423 1780)">abc</text><text font-family="Consolas,Consolas_MSFontService,sans-serif" font-weight="400" font-size="83" transform="matrix(1 0 0 1 789.204 1780)">” </text><text fill="#FFFFFF" font-family="Consolas,Consolas_MSFontService,sans-serif" font-weight="400" font-size="83" transform="matrix(1 0 0 1 879.725 1780)">“</text><text fill="#FFFFFF" font-family="Consolas,Consolas_MSFontService,sans-serif" font-weight="400" font-size="83" transform="matrix(1 0 0 1 924.985 1780)">abcd</text><text fill="#FFFFFF" font-family="Consolas,Consolas_MSFontService,sans-serif" font-weight="400" font-size="83" transform="matrix(1 0 0 1 1106.03 1780)">”</text><path d="M604 1692 807.958 1816.9" stroke="#FF0000" stroke-width="13.75" stroke-linejoin="round" stroke-miterlimit="10" fill="none" fill-rule="evenodd"/><path d="M0 0 183.333 135.208" stroke="#FF0000" stroke-width="13.75" stroke-linejoin="round" stroke-miterlimit="10" fill="none" fill-rule="evenodd" transform="matrix(1 0 0 -1 614 1822.21)"/><g clip-path="url(#clip6)"><g filter="url(#fx2)" transform="translate(1435 1502)"><g><path d="M23.2228 210.223C23.2228 106.946 231.634 23.2228 488.723 23.2228 745.811 23.2228 954.223 106.946 954.223 210.223 954.223 313.5 745.811 397.223 488.723 397.223 231.634 397.223 23.2228 313.5 23.2228 210.223Z" stroke="#000000" stroke-width="7" stroke-linejoin="round" stroke-miterlimit="10" fill="#FFFFFF" fill-rule="evenodd"/></g></g><g clip-path="url(#clip7)" filter="url(#fx3)" transform="translate(1560 1568)"><g><path d="M40.4058-14.3467C40.4058-11.834 39.8924-9.632 38.8657-7.74072 37.839-5.84945 36.4071-4.27563 34.5698-3.01929 32.7326-1.76294 30.5238-0.824056 27.9436-0.202637 25.3634 0.418783 22.5197 0.729492 19.4126 0.729492 18.0076 0.729492 16.6095 0.675456 15.218 0.567383 13.8266 0.45931 12.4892 0.324219 11.2058 0.162109 9.92244 3.72529e-09 8.71338-0.189128 7.57861-0.405273 6.44385-0.621419 5.41715-0.851074 4.49853-1.09424L4.49853-8.06494C6.5249-7.30843 8.80119-6.71403 11.3274-6.28174 13.8536-5.84945 16.7243-5.6333 19.9395-5.6333 22.263-5.6333 24.2421-5.81567 25.8767-6.18042 27.5113-6.54517 28.8487-7.08553 29.8889-7.80151 30.9291-8.5175 31.6856-9.38883 32.1584-10.4155 32.6313-11.4422 32.8677-12.6175 32.8677-13.9414 32.8677-15.3734 32.4692-16.5959 31.6721-17.6091 30.8751-18.6223 29.8281-19.5274 28.5312-20.3245 27.2344-21.1215 25.7551-21.851 24.0935-22.5129 22.4319-23.1749 20.7365-23.8571 19.0073-24.5596 17.2782-25.262 15.5828-26.0253 13.9211-26.8494 12.2595-27.6734 10.7803-28.6461 9.4834-29.7673 8.18652-30.8886 7.13957-32.2057 6.34253-33.7187 5.54549-35.2318 5.14697-37.0285 5.14697-39.1089 5.14697-40.9191 5.52523-42.7023 6.28174-44.4585 7.03825-46.2147 8.21354-47.775 9.80762-49.1394 11.4017-50.5038 13.4483-51.6048 15.9475-52.4424 18.4467-53.2799 21.4255-53.6987 24.8838-53.6987 25.7754-53.6987 26.7413-53.6582 27.7815-53.5771 28.8217-53.4961 29.8754-53.3813 30.9426-53.2327 32.0098-53.0841 33.0636-52.9152 34.1038-52.7261 35.144-52.5369 36.1099-52.3343 37.0015-52.1182L37.0015-45.6338C34.9211-46.2282 32.8407-46.6807 30.7603-46.9915 28.6798-47.3022 26.667-47.4575 24.7217-47.4575 20.5879-47.4575 17.5483-46.7685 15.603-45.3906 13.6577-44.0127 12.6851-42.1619 12.6851-39.8384 12.6851-38.4064 13.0836-37.1771 13.8806-36.1504 14.6777-35.1237 15.7246-34.2051 17.0215-33.3945 18.3184-32.584 19.7976-31.8477 21.4592-31.1858 23.1208-30.5238 24.8162-29.8416 26.5454-29.1392 28.2746-28.4367 29.97-27.6667 31.6316-26.8291 33.2932-25.9915 34.7725-24.9986 36.0693-23.8503 37.3662-22.7021 38.4132-21.3579 39.2102-19.8179 40.0072-18.2778 40.4058-16.4541 40.4058-14.3467ZM84.5314-0.567383C82.9373-0.162109 81.2892 0.128337 79.5871 0.303955 77.8849 0.479574 76.1557 0.567383 74.3996 0.567383 69.2931 0.567383 65.4836-0.587646 62.9709-2.8977 60.4582-5.20776 59.2018-8.75391 59.2018-13.5361L59.2018-34.7725 47.8136-34.7725 47.8136-40.6894 59.2018-40.6894 59.2018-51.875 66.2536-53.6987 66.2536-40.6894 84.5314-40.6894 84.5314-34.7725 66.2536-34.7725 66.2536-14.1035C66.2536-11.1855 67.0303-9.00382 68.5839-7.55835 70.1375-6.11287 72.4272-5.39014 75.4533-5.39014 76.7502-5.39014 78.1686-5.49145 79.7086-5.69409 81.2487-5.89673 82.8563-6.21419 84.5314-6.64648ZM98.6668-40.6894 105.111-40.6894 105.313-33.1919C107.718-36.0828 110.089-38.1768 112.426-39.4736 114.763-40.7705 117.12-41.4189 119.498-41.4189 123.713-41.4189 126.908-40.0545 129.083-37.3257 131.258-34.5968 132.264-30.5441 132.102-25.1675L124.969-25.1675C125.05-28.7339 124.53-31.3209 123.409-32.9285 122.288-34.536 120.646-35.3398 118.485-35.3398 117.539-35.3398 116.587-35.171 115.628-34.8332 114.668-34.4955 113.682-33.9552 112.669-33.2122 111.656-32.4692 110.582-31.5168 109.447-30.355 108.312-29.1932 107.097-27.7882 105.8-26.1401L105.8 0 98.6668 0ZM156.126-34.8535 144.089-34.8535 144.089-40.6894 163.259-40.6894 163.259-5.87646 175.376-5.87646 175.376 0 142.752 0 142.752-5.87646 156.126-5.87646ZM158.598-57.7515C159.382-57.7515 160.111-57.6096 160.787-57.3259 161.462-57.0422 162.05-56.6437 162.55-56.1304 163.049-55.617 163.441-55.0294 163.725-54.3674 164.009-53.7055 164.15-52.9827 164.15-52.1992 164.15-51.4427 164.009-50.7267 163.725-50.0513 163.441-49.3758 163.049-48.7814 162.55-48.2681 162.05-47.7547 161.462-47.3562 160.787-47.0725 160.111-46.7888 159.382-46.647 158.598-46.647 157.815-46.647 157.085-46.7888 156.41-47.0725 155.734-47.3562 155.147-47.7547 154.647-48.2681 154.147-48.7814 153.755-49.3758 153.471-50.0513 153.188-50.7267 153.046-51.4427 153.046-52.1992 153.046-52.9827 153.188-53.7055 153.471-54.3674 153.755-55.0294 154.147-55.617 154.647-56.1304 155.147-56.6437 155.734-57.0422 156.41-57.3259 157.085-57.6096 157.815-57.7515 158.598-57.7515ZM187.526-40.6894 193.808-40.6894 194.091-34.124C195.28-35.529 196.429-36.6975 197.536-37.6296 198.644-38.5618 199.732-39.3115 200.799-39.8789 201.866-40.4463 202.953-40.8448 204.061-41.0745 205.169-41.3041 206.317-41.4189 207.506-41.4189 211.694-41.4189 214.862-40.1829 217.01-37.7107 219.158-35.2385 220.232-31.5168 220.232-26.5454L220.232 0 213.18 0 213.18-25.978C213.18-29.1662 212.585-31.5235 211.397-33.05 210.208-34.5766 208.438-35.3398 206.088-35.3398 205.223-35.3398 204.379-35.2115 203.555-34.9548 202.731-34.6982 201.873-34.2524 200.981-33.6174 200.09-32.9825 199.124-32.1247 198.083-31.0439 197.043-29.9632 195.875-28.6123 194.578-26.9912L194.578 0 187.526 0ZM262.088-34.9346C262.844-33.9889 263.432-32.8879 263.851-31.6316 264.269-30.3752 264.479-29.0176 264.479-27.5586 264.479-25.4512 264.094-23.5261 263.324-21.7834 262.554-20.0408 261.466-18.548 260.061-17.3052 258.656-16.0623 256.974-15.0964 255.016-14.4075 253.057-13.7185 250.902-13.374 248.552-13.374 246.849-13.374 245.255-13.5564 243.769-13.9211 242.283-14.2859 241.108-14.7384 240.243-15.2788 239.73-14.5223 239.298-13.8063 238.947-13.1309 238.595-12.4554 238.42-11.6989 238.42-10.8613 238.42-9.83463 238.913-8.98356 239.899-8.3081 240.885-7.63265 242.189-7.2679 243.81-7.21387L254.509-6.80859C256.535-6.75456 258.406-6.49788 260.122-6.03857 261.838-5.57926 263.31-4.91732 264.54-4.05273 265.769-3.18815 266.728-2.12093 267.417-0.851074 268.106 0.418782 268.451 1.89128 268.451 3.56641 268.451 5.37663 268.059 7.09228 267.275 8.71338 266.492 10.3345 265.283 11.7597 263.648 12.989 262.013 14.2183 259.94 15.1978 257.427 15.9272 254.914 16.6567 251.929 17.0215 248.471 17.0215 245.174 17.0215 242.371 16.7581 240.061 16.2312 237.751 15.7043 235.853 14.9749 234.367 14.0427 232.881 13.1106 231.8 12.0028 231.125 10.7195 230.449 9.43612 230.112 8.02441 230.112 6.48437 230.112 4.51204 230.571 2.78288 231.49 1.29687 232.408-0.189128 233.827-1.62109 235.745-2.99902 235.042-3.32324 234.435-3.72852 233.921-4.21484 233.408-4.70117 232.989-5.23478 232.665-5.81567 232.341-6.39657 232.097-7.01123 231.935-7.65967 231.773-8.3081 231.692-8.94303 231.692-9.56445 231.692-11.3206 232.104-12.9282 232.928-14.3872 233.752-15.8462 234.732-17.2241 235.867-18.521 235.353-19.1424 234.901-19.7503 234.509-20.3447 234.117-20.9391 233.779-21.5808 233.496-22.2698 233.212-22.9587 232.996-23.7017 232.847-24.4988 232.699-25.2958 232.624-26.2077 232.624-27.2344 232.624-29.3418 233.009-31.2668 233.779-33.0095 234.549-34.7522 235.63-36.2449 237.022-37.4878 238.413-38.7306 240.088-39.6965 242.047-40.3855 244.006-41.0745 246.174-41.4189 248.552-41.4189 249.551-41.4189 250.51-41.3514 251.429-41.2163 252.348-41.0812 253.158-40.9056 253.861-40.6894L268.613-40.6894 268.613-34.9346ZM237.609 5.87646C237.609 7.79476 238.609 9.19295 240.608 10.071 242.608 10.9491 245.39 11.3882 248.957 11.3882 251.199 11.3882 253.084 11.1855 254.61 10.7803 256.137 10.375 257.366 9.84139 258.298 9.17944 259.231 8.5175 259.899 7.76099 260.305 6.90991 260.71 6.05884 260.912 5.1875 260.912 4.2959 260.912 2.64779 260.237 1.43197 258.886 0.648437 257.535-0.135091 255.468-0.594401 252.685-0.729492L242.067-1.09424C241.176-0.499837 240.439 0.0810547 239.858 0.648437 239.278 1.21582 238.825 1.78996 238.501 2.37085 238.177 2.95174 237.947 3.53263 237.812 4.11352 237.677 4.69442 237.609 5.28206 237.609 5.87646ZM239.757-27.3965C239.757-26.0996 239.973-24.9108 240.406-23.8301 240.838-22.7493 241.446-21.8307 242.229-21.0742 243.013-20.3177 243.938-19.7301 245.005-19.3113 246.073-18.8925 247.255-18.6831 248.552-18.6831 249.957-18.6831 251.206-18.9195 252.3-19.3923 253.395-19.8652 254.313-20.5068 255.056-21.3174 255.799-22.1279 256.367-23.0601 256.758-24.1138 257.15-25.1675 257.346-26.2617 257.346-27.3965 257.346-28.6934 257.13-29.8822 256.698-30.9629 256.265-32.0436 255.657-32.9622 254.874-33.7187 254.09-34.4753 253.165-35.0629 252.098-35.4817 251.03-35.9005 249.848-36.1099 248.552-36.1099 247.147-36.1099 245.897-35.8667 244.803-35.3804 243.709-34.894 242.79-34.2524 242.047-33.4553 241.304-32.6583 240.737-31.7329 240.345-30.6792 239.953-29.6255 239.757-28.5312 239.757-27.3965ZM312.738-15.8462C312.738-13.3065 312.245-11.0572 311.259-9.09839 310.273-7.13957 308.868-5.4847 307.044-4.13379 305.22-2.78288 303.018-1.75618 300.438-1.05371 297.858-0.351237 294.987 0 291.826 0L277.966 0 277.966-52.9692 293.123-52.9692C304.93-52.9692 310.833-48.6733 310.833-40.0815 310.833-37.2176 310.151-34.7589 308.787-32.7056 307.422-30.6522 305.2-29.1256 302.12-28.126 303.552-27.8558 304.91-27.3965 306.193-26.748 307.476-26.0996 308.604-25.262 309.577-24.2353 310.55-23.2087 311.32-21.9928 311.887-20.5879 312.455-19.1829 312.738-17.6024 312.738-15.8462ZM303.336-39.1089C303.336-40.1896 303.174-41.2095 302.85-42.1687 302.525-43.1278 301.958-43.9519 301.147-44.6409 300.337-45.3298 299.243-45.8769 297.865-46.2822 296.487-46.6875 294.744-46.8901 292.637-46.8901L285.18-46.8901 285.18-30.3145 292.394-30.3145C294.042-30.3144 295.534-30.4901 296.872-30.8413 298.209-31.1925 299.357-31.7329 300.317-32.4624 301.276-33.1919 302.019-34.1038 302.546-35.198 303.072-36.2922 303.336-37.5959 303.336-39.1089ZM305.079-15.603C305.079-16.9539 304.795-18.1698 304.228-19.2505 303.66-20.3312 302.836-21.2431 301.755-21.9861 300.675-22.7291 299.357-23.3032 297.804-23.7085 296.25-24.1138 294.501-24.3164 292.556-24.3164L285.18-24.3164 285.18-6.0791 292.799-6.0791C296.933-6.0791 300.013-6.84912 302.039-8.38916 304.065-9.9292 305.079-12.3338 305.079-15.603ZM356.013 0 349.691 0 349.447-6.56543C348.232-5.16048 347.077-3.99194 345.982-3.05981 344.888-2.12769 343.801-1.37793 342.72-0.810547 341.639-0.243164 340.552 0.155355 339.457 0.38501 338.363 0.614665 337.208 0.729492 335.992 0.729492 331.804 0.729492 328.643-0.499837 326.509-2.9585 324.374-5.41715 323.307-9.13216 323.307-14.1035L323.307-40.6894 330.359-40.6894 330.359-14.6709C330.359-8.42969 332.71-5.30908 337.411-5.30908 338.275-5.30908 339.12-5.43742 339.944-5.69409 340.768-5.95076 341.632-6.39657 342.537-7.03149 343.443-7.66642 344.415-8.52425 345.455-9.60498 346.496-10.6857 347.664-12.0501 348.961-13.6982L348.961-40.6894 356.013-40.6894ZM382.428-34.8535 370.391-34.8535 370.391-40.6894 389.561-40.6894 389.561-5.87646 401.678-5.87646 401.678 0 369.054 0 369.054-5.87646 382.428-5.87646ZM384.9-57.7515C385.684-57.7515 386.413-57.6096 387.089-57.3259 387.764-57.0422 388.352-56.6437 388.852-56.1304 389.351-55.617 389.743-55.0294 390.027-54.3674 390.311-53.7055 390.452-52.9827 390.452-52.1992 390.452-51.4427 390.311-50.7267 390.027-50.0513 389.743-49.3758 389.351-48.7814 388.852-48.2681 388.352-47.7547 387.764-47.3562 387.089-47.0725 386.413-46.7888 385.684-46.647 384.9-46.647 384.117-46.647 383.387-46.7888 382.712-47.0725 382.036-47.3562 381.449-47.7547 380.949-48.2681 380.449-48.7814 380.057-49.3758 379.773-50.0513 379.49-50.7267 379.348-51.4427 379.348-52.1992 379.348-52.9827 379.49-53.7055 379.773-54.3674 380.057-55.0294 380.449-55.617 380.949-56.1304 381.449-56.6437 382.036-57.0422 382.712-57.3259 383.387-57.6096 384.117-57.7515 384.9-57.7515ZM427.688-51.4697 415.652-51.4697 415.652-57.2651 434.821-57.2651 434.821-5.87646 446.939-5.87646 446.939 0 414.314 0 414.314-5.87646 427.688-5.87646ZM457.022-19.4937C457.022-22.952 457.494-26.0253 458.44-28.7136 459.386-31.4019 460.73-33.6715 462.473-35.5222 464.215-37.373 466.309-38.7779 468.754-39.7371 471.199-40.6962 473.921-41.1758 476.921-41.1758 478.217-41.1758 479.494-41.0947 480.75-40.9326 482.007-40.7705 483.243-40.5138 484.459-40.1626L484.459-57.2651 491.551-57.2651 491.551 0 485.229 0 484.985-7.70019C483.013-4.83626 480.879-2.71533 478.582-1.3374 476.286 0.0405273 473.8 0.729492 471.125 0.729492 468.802 0.729492 466.755 0.243164 464.985-0.729492 463.216-1.70215 461.743-3.07332 460.568-4.84302 459.392-6.61271 458.508-8.7404 457.913-11.2261 457.319-13.7118 457.022-16.4676 457.022-19.4937ZM464.235-19.9395C464.235-15.0221 464.958-11.3544 466.404-8.93628 467.849-6.51815 469.896-5.30908 472.544-5.30908 474.327-5.30908 476.211-6.10612 478.197-7.70019 480.183-9.29427 482.27-11.6584 484.459-14.7925L484.459-33.6782C483.297-34.2186 482.013-34.6306 480.608-34.9143 479.204-35.198 477.812-35.3398 476.434-35.3398 472.598-35.3398 469.605-34.097 467.457-31.6113 465.309-29.1256 464.235-25.235 464.235-19.9395ZM538.716-22.4927C538.716-21.493 538.703-20.6554 538.676-19.98 538.648-19.3045 538.608-18.6696 538.554-18.0752L509.982-18.0752C509.982-13.9144 511.144-10.7195 513.468-8.49048 515.791-6.26147 519.141-5.14697 523.518-5.14697 524.707-5.14697 525.896-5.19425 527.085-5.28882 528.273-5.38338 529.422-5.51172 530.53-5.67383 531.637-5.83594 532.698-6.01831 533.711-6.22095 534.724-6.42358 535.663-6.64648 536.528-6.88965L536.528-1.09424C534.609-0.553874 532.441-0.114827 530.023 0.2229 527.605 0.560628 525.099 0.729492 522.505 0.729492 519.02 0.729492 516.021 0.256673 513.508-0.688965 510.995-1.6346 508.935-3.00578 507.328-4.80249 505.72-6.5992 504.531-8.80119 503.761-11.4084 502.991-14.0157 502.606-16.9674 502.606-20.2637 502.606-23.1276 503.018-25.8362 503.842-28.3894 504.666-30.9426 505.869-33.1851 507.449-35.1169 509.03-37.0487 510.968-38.582 513.265-39.7168 515.561-40.8516 518.169-41.4189 521.087-41.4189 523.924-41.4189 526.436-40.9731 528.625-40.0815 530.813-39.1899 532.657-37.9268 534.157-36.2922 535.656-34.6576 536.791-32.6718 537.561-30.3347 538.331-27.9976 538.716-25.3836 538.716-22.4927ZM531.381-23.5059C531.462-25.3161 531.286-26.9709 530.854-28.4705 530.421-29.97 529.753-31.2601 528.848-32.3408 527.943-33.4215 526.815-34.2659 525.464-34.8738 524.113-35.4817 522.546-35.7856 520.762-35.7856 519.222-35.7856 517.817-35.4884 516.548-34.894 515.278-34.2996 514.183-33.4621 513.265-32.3813 512.346-31.3006 511.603-30.0037 511.036-28.4907 510.469-26.9777 510.117-25.3161 509.982-23.5059ZM551.271-40.6894 557.715-40.6894 557.917-33.1919C560.322-36.0828 562.693-38.1768 565.03-39.4736 567.367-40.7705 569.724-41.4189 572.102-41.4189 576.317-41.4189 579.512-40.0545 581.687-37.3257 583.862-34.5968 584.868-30.5441 584.706-25.1675L577.573-25.1675C577.654-28.7339 577.134-31.3209 576.013-32.9285 574.892-34.536 573.25-35.3398 571.089-35.3398 570.143-35.3398 569.191-35.171 568.232-34.8332 567.272-34.4955 566.286-33.9552 565.273-33.2122 564.26-32.4692 563.186-31.5168 562.051-30.355 560.916-29.1932 559.701-27.7882 558.404-26.1401L558.404 0 551.271 0Z" transform="matrix(1 0 0 1 69.0715 123)"/><path d="M22.0874-52.5234C20.8986-52.5504 19.7436-52.4356 18.6223-52.179 17.5011-51.9223 16.5014-51.5238 15.6233-50.9834 14.7452-50.443 14.036-49.7676 13.4956-48.957 12.9552-48.1465 12.6851-47.2143 12.6851-46.1606 12.6851-45.1069 12.8607-44.2559 13.2119-43.6074 13.5632-42.959 13.9549-42.3511 14.3872-41.7837 14.8195-41.2163 15.2113-40.6151 15.5625-39.9802 15.9137-39.3453 16.0894-38.501 16.0894-37.4473 16.0894-36.9069 15.988-36.3463 15.7854-35.7654 15.5828-35.1845 15.2721-34.6576 14.8533-34.1848 14.4345-33.712 13.9009-33.3202 13.2524-33.0095 12.604-32.6988 11.834-32.5435 10.9424-32.5435 10.0508-32.5435 9.19971-32.7326 8.38916-33.1108 7.57861-33.4891 6.86263-34.0565 6.24121-34.813 5.61979-35.5695 5.12671-36.5151 4.76196-37.6499 4.39722-38.7847 4.21484-40.1221 4.21484-41.6621 4.21484-43.7695 4.59985-45.7891 5.36987-47.7209 6.13989-49.6527 7.27466-51.3616 8.77417-52.8477 10.2737-54.3337 12.1379-55.5225 14.3669-56.4141 16.5959-57.3057 19.1694-57.7515 22.0874-57.7515ZM43.3237-52.5234C42.1349-52.5504 40.9799-52.4356 39.8586-52.179 38.7374-51.9223 37.7377-51.5238 36.8596-50.9834 35.9815-50.443 35.279-49.7676 34.7522-48.957 34.2253-48.1465 33.9619-47.2143 33.9619-46.1606 33.9619-45.1069 34.1375-44.2559 34.4888-43.6074 34.84-42.959 35.2318-42.3511 35.6641-41.7837 36.0964-41.2163 36.4881-40.6151 36.8394-39.9802 37.1906-39.3453 37.3662-38.501 37.3662-37.4473 37.3662-36.9069 37.2649-36.3463 37.0623-35.7654 36.8596-35.1845 36.5489-34.6576 36.1301-34.1848 35.7113-33.712 35.1777-33.3202 34.5293-33.0095 33.8809-32.6988 33.1108-32.5435 32.2192-32.5435 31.3276-32.5435 30.4766-32.7326 29.666-33.1108 28.8555-33.4891 28.1395-34.0565 27.5181-34.813 26.8966-35.5695 26.4036-36.5151 26.0388-37.6499 25.6741-38.7847 25.4917-40.1221 25.4917-41.6621 25.4917-43.7695 25.87-45.7891 26.6265-47.7209 27.383-49.6527 28.511-51.3616 30.0105-52.8477 31.51-54.3337 33.3743-55.5225 35.6033-56.4141 37.8323-57.3057 40.4058-57.7515 43.3237-57.7515ZM86.112-22.4927C86.112-21.493 86.0985-20.6554 86.0714-19.98 86.0444-19.3045 86.0039-18.6696 85.9499-18.0752L57.3781-18.0752C57.3781-13.9144 58.5399-10.7195 60.8634-8.49048 63.187-6.26147 66.5373-5.14697 70.9142-5.14697 72.103-5.14697 73.2918-5.19425 74.4806-5.28882 75.6694-5.38338 76.8177-5.51172 77.9254-5.67383 79.0332-5.83594 80.0937-6.01831 81.1068-6.22095 82.12-6.42358 83.0589-6.64648 83.9235-6.88965L83.9235-1.09424C82.0052-0.553874 79.837-0.114827 77.4189 0.2229 75.0007 0.560628 72.4948 0.729492 69.901 0.729492 66.4157 0.729492 63.4167 0.256673 60.904-0.688965 58.3913-1.6346 56.3311-3.00578 54.7235-4.80249 53.116-6.5992 51.9272-8.80119 51.1571-11.4084 50.3871-14.0157 50.0021-16.9674 50.0021-20.2637 50.0021-23.1276 50.4141-25.8362 51.2382-28.3894 52.0623-30.9426 53.2646-33.1851 54.8451-35.1169 56.4257-37.0487 58.3643-38.582 60.6608-39.7168 62.9574-40.8516 65.5646-41.4189 68.4826-41.4189 71.3195-41.4189 73.8322-40.9731 76.0207-40.0815 78.2091-39.1899 80.0531-37.9268 81.5526-36.2922 83.0522-34.6576 84.1869-32.6718 84.9569-30.3347 85.727-27.9976 86.112-25.3836 86.112-22.4927ZM78.7765-23.5059C78.8576-25.3161 78.682-26.9709 78.2497-28.4705 77.8174-29.97 77.1487-31.2601 76.2436-32.3408 75.3385-33.4215 74.2104-34.2659 72.8595-34.8738 71.5086-35.4817 69.9416-35.7856 68.1584-35.7856 66.6183-35.7856 65.2134-35.4884 63.9435-34.894 62.6737-34.2996 61.5794-33.4621 60.6608-32.3813 59.7422-31.3006 58.9992-30.0037 58.4318-28.4907 57.8644-26.9777 57.5132-25.3161 57.3781-23.5059ZM114.108-37.7715C115.27-37.7174 116.418-37.8255 117.553-38.0957 118.687-38.3659 119.687-38.7712 120.552-39.3115 121.416-39.8519 122.119-40.5341 122.659-41.3582 123.199-42.1822 123.47-43.1211 123.47-44.1748 123.47-45.2285 123.294-46.0728 122.943-46.7078 122.591-47.3427 122.2-47.9438 121.767-48.5112 121.335-49.0786 120.943-49.6865 120.592-50.335 120.241-50.9834 120.065-51.8345 120.065-52.8882 120.065-53.4285 120.167-53.9824 120.369-54.5498 120.572-55.1172 120.883-55.6373 121.301-56.1101 121.72-56.5829 122.254-56.9747 122.902-57.2854 123.551-57.5961 124.321-57.7515 125.212-57.7515 126.104-57.7515 126.955-57.5623 127.765-57.1841 128.576-56.8058 129.292-56.2452 129.913-55.5022 130.535-54.7592 131.028-53.8136 131.393-52.6653 131.757-51.517 131.94-50.1728 131.94-48.6328 131.94-46.5254 131.555-44.5058 130.785-42.574 130.015-40.6422 128.88-38.9333 127.38-37.4473 125.881-35.9613 124.023-34.7725 121.808-33.8809 119.592-32.9893 117.026-32.5435 114.108-32.5435ZM92.8309-37.7715C94.0197-37.7174 95.1747-37.8255 96.296-38.0957 97.4172-38.3659 98.4169-38.7712 99.295-39.3115 100.173-39.8519 100.882-40.5341 101.423-41.3582 101.963-42.1822 102.233-43.1211 102.233-44.1748 102.233-45.2285 102.058-46.0728 101.706-46.7078 101.355-47.3427 100.963-47.9438 100.531-48.5112 100.099-49.0786 99.707-49.6865 99.3558-50.335 99.0045-50.9834 98.8289-51.8345 98.8289-52.8882 98.8289-53.4285 98.9302-53.9824 99.1329-54.5498 99.3355-55.1172 99.6462-55.6373 100.065-56.1101 100.484-56.5829 101.017-56.9747 101.666-57.2854 102.314-57.5961 103.084-57.7515 103.976-57.7515 104.868-57.7515 105.719-57.5623 106.529-57.1841 107.34-56.8058 108.056-56.2452 108.677-55.5022 109.298-54.7592 109.792-53.8136 110.156-52.6653 110.521-51.517 110.703-50.1728 110.703-48.6328 110.703-46.5254 110.318-44.5058 109.548-42.574 108.778-40.6422 107.644-38.9333 106.144-37.4473 104.645-35.9613 102.78-34.7725 100.551-33.8809 98.3223-32.9893 95.7489-32.5435 92.8309-32.5435Z" transform="matrix(1 0 0 1 295.374 222)"/></g></g></g><path d="M1448.5 1702.5C1448.5 1599.22 1656.91 1515.5 1914 1515.5 2171.09 1515.5 2379.5 1599.22 2379.5 1702.5 2379.5 1805.78 2171.09 1889.5 1914 1889.5 1656.91 1889.5 1448.5 1805.78 1448.5 1702.5Z" stroke="#000000" stroke-width="6.875" stroke-linejoin="round" stroke-miterlimit="10" fill="#FFFFFF" fill-rule="evenodd"/><text font-family="Consolas,Consolas_MSFontService,sans-serif" font-weight="400" font-size="83" transform="matrix(1 0 0 1 1619.35 1681)">StringBuilder</text><text font-family="Consolas,Consolas_MSFontService,sans-serif" font-weight="400" font-size="83" transform="matrix(1 0 0 1 1845.65 1780)">“e”</text><path d="M371.69 1310.07 396.622 1316.78 421.367 1323.74 445.686 1331.2 469.342 1339.43 492.099 1348.66 513.721 1359.16 524.116 1365.02 534.058 1371.25 543.594 1377.93 552.69 1385.09 561.32 1392.76 569.483 1400.89 577.205 1409.44 584.517 1418.39 597.981 1437.25 610.251 1457.37 621.507 1478.43 632.003 1500.16 641.987 1522.32 647.94 1536.01 645.137 1537.23 639.201 1523.57 629.251 1501.48 618.812 1479.87 607.641 1458.96 595.494 1439.02 582.15 1420.32 574.936 1411.49 567.326 1403.05 559.29 1395.04 550.798 1387.49 541.839 1380.43 532.434 1373.84 522.615 1367.68 512.385 1361.91 490.95 1351.49 468.338 1342.31 444.789 1334.13 420.539 1326.68 395.829 1319.73 370.897 1313.02ZM370.103 1315.98 395.036 1322.68 419.712 1329.62 443.891 1337.05 467.334 1345.2 489.8 1354.32 511.049 1364.66 521.114 1370.34 530.811 1376.43 540.085 1382.93 548.907 1389.89 557.259 1397.32 565.169 1405.21 572.667 1413.53 579.783 1422.25 593.006 1440.8 605.031 1460.55 616.117 1481.31 626.5 1502.81 636.414 1524.83 642.335 1538.45 639.533 1539.67 633.628 1526.08 623.748 1504.14 613.422 1482.75 602.421 1462.14 590.518 1442.57 577.416 1424.18 570.398 1415.58 563.011 1407.38 555.229 1399.61 547.015 1392.29 538.33 1385.44 529.187 1379.01 519.612 1373 509.713 1367.41 488.651 1357.16 466.331 1348.09 442.994 1339.97 418.884 1332.56 394.243 1325.63 369.31 1318.93ZM652.871 1491.32 647.499 1546.5 603.488 1512.78C601.478 1511.25 601.097 1508.37 602.636 1506.36 604.176 1504.35 607.052 1503.97 609.062 1505.51L646.523 1534.2 639.174 1537.4 643.747 1490.43C643.992 1487.91 646.234 1486.07 648.753 1486.31 651.272 1486.56 653.116 1488.8 652.871 1491.32Z"/><path d="M370.755 1309.92 491.187 1316.63 551.048 1320.05 610.478 1323.57 669.333 1327.22 727.469 1331.01 784.741 1334.99 841.006 1339.19 896.118 1343.63 949.935 1348.34 976.321 1350.82 1002.32 1353.37 1027.93 1356 1053.12 1358.73 1077.87 1361.55 1102.18 1364.46 1126.02 1367.47 1149.38 1370.59 1172.23 1373.81 1194.56 1377.15 1216.36 1380.6 1237.59 1384.17 1258.26 1387.87 1278.36 1391.68 1297.93 1395.61 1316.97 1399.65 1335.51 1403.8 1353.56 1408.05 1371.14 1412.4 1388.27 1416.85 1404.97 1421.39 1421.25 1426.02 1437.13 1430.74 1452.64 1435.53 1482.55 1445.34 1511.19 1455.44 1538.66 1465.77 1565.12 1476.33 1590.7 1487.06 1615.55 1497.95 1639.8 1508.96 1663.62 1520.05 1701.95 1538.3 1700.63 1541.06 1662.33 1522.82 1638.54 1511.74 1614.32 1500.75 1589.52 1489.88 1563.99 1479.17 1537.59 1468.63 1510.17 1458.32 1481.6 1448.24 1451.74 1438.45 1436.27 1433.66 1420.42 1428.96 1404.17 1424.34 1387.51 1419.81 1370.41 1415.37 1352.86 1411.02 1334.84 1406.78 1316.34 1402.64 1297.33 1398.6 1277.8 1394.68 1257.72 1390.87 1237.08 1387.19 1215.88 1383.62 1194.11 1380.17 1171.81 1376.84 1148.98 1373.62 1125.64 1370.5 1101.82 1367.49 1077.53 1364.58 1052.79 1361.77 1027.61 1359.04 1002.02 1356.41 976.036 1353.86 949.668 1351.39 895.873 1346.67 840.779 1342.23 784.53 1338.04 727.27 1334.06 669.145 1330.27 610.298 1326.62 550.874 1323.1 491.017 1319.68 370.585 1312.97ZM370.415 1316.03 490.847 1322.73 550.699 1326.15 610.117 1329.67 668.956 1333.32 727.071 1337.11 784.318 1341.09 840.551 1345.28 895.627 1349.72 949.401 1354.43 975.751 1356.9 1001.72 1359.45 1027.3 1362.08 1052.46 1364.8 1077.18 1367.62 1101.46 1370.53 1125.26 1373.53 1148.57 1376.65 1171.38 1379.86 1193.66 1383.19 1215.4 1386.64 1236.58 1390.2 1257.18 1393.88 1277.23 1397.68 1296.73 1401.6 1315.71 1405.63 1334.18 1409.76 1352.16 1414 1369.68 1418.33 1386.74 1422.76 1403.37 1427.29 1419.58 1431.9 1435.4 1436.59 1450.83 1441.37 1480.65 1451.15 1509.16 1461.2 1536.51 1471.49 1562.85 1482 1588.33 1492.7 1613.09 1503.55 1637.28 1514.52 1661.04 1525.59 1699.32 1543.82 1698 1546.58 1659.75 1528.36 1636.02 1517.3 1611.87 1506.35 1587.15 1495.52 1561.72 1484.84 1535.43 1474.35 1508.14 1464.08 1479.7 1454.05 1449.93 1444.29 1434.53 1439.52 1418.74 1434.84 1402.56 1430.24 1385.97 1425.72 1368.94 1421.3 1351.46 1416.97 1333.51 1412.74 1315.07 1408.62 1296.13 1404.6 1276.66 1400.69 1256.64 1396.89 1236.07 1393.21 1214.92 1389.66 1193.21 1386.22 1170.95 1382.89 1148.17 1379.67 1124.87 1376.57 1101.09 1373.56 1076.84 1370.65 1052.13 1367.84 1026.99 1365.12 1001.43 1362.49 975.466 1359.94 949.134 1357.48 895.382 1352.76 840.324 1348.33 784.106 1344.14 726.872 1340.16 668.767 1336.37 609.936 1332.72 550.524 1329.21 490.677 1325.78 370.245 1319.08ZM1676.32 1501.35 1708.5 1546.5 1653.17 1549.97C1650.64 1550.13 1648.46 1548.21 1648.31 1545.68 1648.15 1543.15 1650.07 1540.98 1652.59 1540.82L1699.69 1537.87 1696.24 1545.1 1668.86 1506.67C1667.39 1504.61 1667.87 1501.75 1669.93 1500.28 1671.99 1498.81 1674.85 1499.29 1676.32 1501.35Z"/><path d="M1096 1326 1299.96 1451.47" stroke="#FF0000" stroke-width="13.75" stroke-linejoin="round" stroke-miterlimit="10" fill="none" fill-rule="evenodd"/><path d="M0 0 183.333 135.781" stroke="#FF0000" stroke-width="13.75" stroke-linejoin="round" stroke-miterlimit="10" fill="none" fill-rule="evenodd" transform="matrix(1 0 0 -1 1106 1455.78)"/><text font-family="Consolas,Consolas_MSFontService,sans-serif" font-weight="400" font-size="83" transform="matrix(1 0 0 1 895.469 1782)">“</text><text font-family="Consolas,Consolas_MSFontService,sans-serif" font-weight="400" font-size="83" transform="matrix(1 0 0 1 940.729 1782)">abcd</text><text font-family="Consolas,Consolas_MSFontService,sans-serif" font-weight="400" font-size="83" transform="matrix(1 0 0 1 1121.77 1782)">”</text><path d="M2.89293e-06-2.29167 262.968-2.29133 262.968 2.292-2.89293e-06 2.29167ZM258.385-13.7497 285.885 0.000360892 258.385 13.7503Z" fill="#0000FF" transform="matrix(-1 0 0 1 2035.38 964.5)"/><text font-family="Microsoft YaHei,Microsoft YaHei_MSFontService,sans-serif" font-weight="400" font-size="83" transform="matrix(1 0 0 1 2479.93 1717)">引用</text><text font-family="Microsoft YaHei,Microsoft YaHei_MSFontService,sans-serif" font-weight="400" font-size="83" transform="matrix(1 0 0 1 2644.93 1717)">是不可变的，但指向的值却可以是可变</text><text font-family="Microsoft YaHei,Microsoft YaHei_MSFontService,sans-serif" font-weight="400" font-size="83" transform="matrix(1 0 0 1 4047.43 1717)">的</text><text fill="#0000FF" font-family="Microsoft YaHei,Microsoft YaHei_MSFontService,sans-serif" font-weight="400" font-size="83" transform="matrix(1 0 0 1 735.54 2010)">值</text><text fill="#0000FF" font-family="Microsoft YaHei,Microsoft YaHei_MSFontService,sans-serif" font-weight="400" font-size="83" transform="matrix(1 0 0 1 818.04 2010)">可变</text><text fill="#0000FF" font-family="Microsoft YaHei,Microsoft YaHei_MSFontService,sans-serif" font-weight="400" font-size="83" transform="matrix(1 0 0 1 1377.82 1371)">引用不可变</text></g></svg>