<svg width="3968" height="1858" xmlns="http://www.w3.org/2000/svg" xmlns:xlink="http://www.w3.org/1999/xlink" xml:space="preserve" overflow="hidden"><defs><clipPath id="clip0"><rect x="1621" y="276" width="1410" height="3466"/></clipPath></defs><g transform="translate(-217 -449)"><path d="M1621.61 459.036 1621.61 2271.33" stroke="#FF822D" stroke-width="4.58333" stroke-linejoin="round" stroke-miterlimit="10" fill="none" fill-rule="evenodd"/><path d="M3030.32 459.036 3030.32 2271.33" stroke="#FF822D" stroke-width="4.58333" stroke-linejoin="round" stroke-miterlimit="10" fill="none" fill-rule="evenodd"/><path d="M217.708 585.27 4182.29 585.27" stroke="#FF822D" stroke-width="4.58333" stroke-linejoin="round" stroke-miterlimit="10" fill="none" fill-rule="evenodd"/><path d="M217.708 1006.21 4182.29 1006.21" stroke="#FF822D" stroke-width="4.58333" stroke-linejoin="round" stroke-miterlimit="10" fill="none" fill-rule="evenodd"/><path d="M217.708 1328.15 4182.29 1328.15" stroke="#FF822D" stroke-width="4.58333" stroke-linejoin="round" stroke-miterlimit="10" fill="none" fill-rule="evenodd"/><path d="M217.708 1749.1 4182.29 1749.1" stroke="#FF822D" stroke-width="4.58333" stroke-linejoin="round" stroke-miterlimit="10" fill="none" fill-rule="evenodd"/><path d="M220 459.036 220 2271.33" stroke="#FF822D" stroke-width="4.58333" stroke-linejoin="round" stroke-miterlimit="10" fill="none" fill-rule="evenodd"/><path d="M4180 459.036 4180 2271.33" stroke="#FF822D" stroke-width="4.58333" stroke-linejoin="round" stroke-miterlimit="10" fill="none" fill-rule="evenodd"/><path d="M217.708 461.328 4182.29 461.328" stroke="#FF822D" stroke-width="4.58333" stroke-linejoin="round" stroke-miterlimit="10" fill="none" fill-rule="evenodd"/><path d="M217.708 2269.04 4182.29 2269.04" stroke="#FF822D" stroke-width="4.58333" stroke-linejoin="round" stroke-miterlimit="10" fill="none" fill-rule="evenodd"/><text font-family="Book Antiqua,Book Antiqua_MSFontService,sans-serif" font-weight="400" font-size="83" transform="matrix(1 0 0 1 3286.33 553)">Correct approach</text><text font-family="Book Antiqua,Book Antiqua_MSFontService,sans-serif" font-weight="400" font-size="83" transform="matrix(1 0 0 1 2014.3 553)">Robust approach</text><text font-family="Book Antiqua,Book Antiqua_MSFontService,sans-serif" font-weight="400" font-size="83" transform="matrix(1 0 0 1 671.588 553)">Problem </text><text font-family="Book Antiqua,Book Antiqua_MSFontService,sans-serif" font-weight="400" font-size="83" transform="matrix(1 0 0 1 1002.16 553)">eg</text><text font-family="Microsoft YaHei,Microsoft YaHei_MSFontService,sans-serif" font-weight="400" font-size="83" transform="matrix(1 0 0 1 1087.53 561)">：</text><g><text font-family="Book Antiqua,Book Antiqua_MSFontService,sans-serif" font-weight="400" font-size="83" transform="matrix(1 0 0 1 3055.26 677)">Return HTTP 400 Bad </text></g><g><text font-family="Book Antiqua,Book Antiqua_MSFontService,sans-serif" font-weight="400" font-size="83" transform="matrix(1 0 0 1 3055.26 776)">Request error status to client</text></g><g><text font-family="Book Antiqua,Book Antiqua_MSFontService,sans-serif" font-weight="400" font-size="83" transform="matrix(1 0 0 1 4099.11 776)">. </text></g><g><text fill="#0000FF" font-family="Microsoft YaHei,Microsoft YaHei_MSFontService,sans-serif" font-weight="400" font-size="83" transform="matrix(1 0 0 1 3055.26 883)">向客户端返回</text></g><text fill="#0000FF" font-family="Book Antiqua,Book Antiqua_MSFontService,sans-serif" font-weight="400" font-size="83" transform="matrix(1 0 0 1 3550.26 875)">HTTP 400</text><text fill="#0000FF" font-family="Microsoft YaHei,Microsoft YaHei_MSFontService,sans-serif" font-weight="400" font-size="83" transform="matrix(1 0 0 1 3914.06 883)">错误</text><g><text fill="#0000FF" font-family="Microsoft YaHei,Microsoft YaHei_MSFontService,sans-serif" font-weight="400" font-size="83" transform="matrix(1 0 0 1 3055.26 982)">请求错误状态。</text></g><g><text font-family="Book Antiqua,Book Antiqua_MSFontService,sans-serif" font-weight="400" font-size="83" transform="matrix(1 0 0 1 1646.55 776)">Strip whitespace, process request as </text></g><g><text font-family="Book Antiqua,Book Antiqua_MSFontService,sans-serif" font-weight="400" font-size="83" transform="matrix(1 0 0 1 1646.55 875)">normal</text></g><text font-family="Book Antiqua,Book Antiqua_MSFontService,sans-serif" font-weight="400" font-size="83" transform="matrix(1 0 0 1 1910.66 875)">.</text><text fill="#0000FF" font-family="Microsoft YaHei,Microsoft YaHei_MSFontService,sans-serif" font-weight="400" font-size="83" transform="matrix(1 0 0 1 1931.29 883)">去掉空白，正常处理请求。</text><g><text font-family="Book Antiqua,Book Antiqua_MSFontService,sans-serif" font-weight="400" font-size="83" transform="matrix(1 0 0 1 244.936 726)">A rogue web browser that adds </text></g><g><text font-family="Book Antiqua,Book Antiqua_MSFontService,sans-serif" font-weight="400" font-size="83" transform="matrix(1 0 0 1 244.936 825)">trailing whitespace to HTTP </text></g><g><text font-family="Book Antiqua,Book Antiqua_MSFontService,sans-serif" font-weight="400" font-size="83" transform="matrix(1 0 0 1 244.936 924)">headers. </text></g><text fill="#FF0000" font-family="Microsoft YaHei,Microsoft YaHei_MSFontService,sans-serif" font-weight="400" font-size="83" transform="matrix(1 0 0 1 572.644 932)">浏览器发出包含空格的</text><text fill="#FF0000" font-family="Book Antiqua,Book Antiqua_MSFontService,sans-serif" font-weight="400" font-size="83" transform="matrix(1 0 0 1 1397.64 924)">URL</text><g><text font-family="Book Antiqua,Book Antiqua_MSFontService,sans-serif" font-weight="400" font-size="83" transform="matrix(1 0 0 1 3055.26 1098)">Stop playback, raise “Corrupt </text></g><g><text font-family="Book Antiqua,Book Antiqua_MSFontService,sans-serif" font-weight="400" font-size="83" transform="matrix(1 0 0 1 3055.26 1197)">video file” error</text></g><text font-family="Book Antiqua,Book Antiqua_MSFontService,sans-serif" font-weight="400" font-size="83" transform="matrix(1 0 0 1 3641.35 1197)">.</text><text fill="#0000FF" font-family="Microsoft YaHei,Microsoft YaHei_MSFontService,sans-serif" font-weight="400" font-size="83" transform="matrix(1 0 0 1 3661.98 1205)">停止播放，</text><g><text fill="#0000FF" font-family="Microsoft YaHei,Microsoft YaHei_MSFontService,sans-serif" font-weight="400" font-size="83" transform="matrix(1 0 0 1 3055.26 1304)">引发“视频文件损坏”错误。</text></g><g><text font-family="Book Antiqua,Book Antiqua_MSFontService,sans-serif" font-weight="400" font-size="83" transform="matrix(1 0 0 1 1646.55 1147)">Skip over corrupt area to next </text></g><g><text font-family="Book Antiqua,Book Antiqua_MSFontService,sans-serif" font-weight="400" font-size="83" transform="matrix(1 0 0 1 1646.55 1246)">playable section</text></g><text font-family="Book Antiqua,Book Antiqua_MSFontService,sans-serif" font-weight="400" font-size="83" transform="matrix(1 0 0 1 2234.36 1246)">. </text><text fill="#0000FF" font-family="Microsoft YaHei,Microsoft YaHei_MSFontService,sans-serif" font-weight="400" font-size="83" transform="matrix(1 0 0 1 2275.61 1254)">跳过坏帧</text><g><text font-family="Book Antiqua,Book Antiqua_MSFontService,sans-serif" font-weight="400" font-size="83" transform="matrix(1 0 0 1 244.936 1147)">A video file with corrupt frames.</text></g><g><text fill="#FF0000" font-family="Microsoft YaHei,Microsoft YaHei_MSFontService,sans-serif" font-weight="400" font-size="83" transform="matrix(1 0 0 1 244.936 1254)">视频文件有坏帧</text></g><g><text font-family="Book Antiqua,Book Antiqua_MSFontService,sans-serif" font-weight="400" font-size="83" transform="matrix(1 0 0 1 3055.26 1420)">Terminate on startup with </text></g><g><text font-family="Book Antiqua,Book Antiqua_MSFontService,sans-serif" font-weight="400" font-size="83" transform="matrix(1 0 0 1 3055.26 1519)">“bad configuration” error</text></g><text font-family="Book Antiqua,Book Antiqua_MSFontService,sans-serif" font-weight="400" font-size="83" transform="matrix(1 0 0 1 3994.84 1519)">.</text><text fill="#0000FF" font-family="Microsoft YaHei,Microsoft YaHei_MSFontService,sans-serif" font-weight="400" font-size="83" transform="matrix(1 0 0 1 4015.47 1527)">启</text><g><text fill="#0000FF" font-family="Microsoft YaHei,Microsoft YaHei_MSFontService,sans-serif" font-weight="400" font-size="83" transform="matrix(1 0 0 1 3055.26 1626)">动时终止，出现“错误配置”</text></g><g><text fill="#0000FF" font-family="Microsoft YaHei,Microsoft YaHei_MSFontService,sans-serif" font-weight="400" font-size="83" transform="matrix(1 0 0 1 3055.26 1725)">错误。</text></g><g><text font-family="Book Antiqua,Book Antiqua_MSFontService,sans-serif" font-weight="400" font-size="83" transform="matrix(1 0 0 1 1646.55 1420)">Internally recognize most common </text></g><g><text font-family="Book Antiqua,Book Antiqua_MSFontService,sans-serif" font-weight="400" font-size="83" transform="matrix(1 0 0 1 1646.55 1519)">comment prefixes, ignore them</text></g><text font-family="Book Antiqua,Book Antiqua_MSFontService,sans-serif" font-weight="400" font-size="83" transform="matrix(1 0 0 1 2784.36 1519)">.</text><text fill="#0000FF" font-family="Microsoft YaHei,Microsoft YaHei_MSFontService,sans-serif" font-weight="400" font-size="83" transform="matrix(1 0 0 1 2804.99 1527)">在内</text><g><text fill="#0000FF" font-family="Microsoft YaHei,Microsoft YaHei_MSFontService,sans-serif" font-weight="400" font-size="83" transform="matrix(1 0 0 1 1646.55 1626)">部识别最常见的注释前缀，忽略非法</text></g><g><text fill="#0000FF" font-family="Microsoft YaHei,Microsoft YaHei_MSFontService,sans-serif" font-weight="400" font-size="83" transform="matrix(1 0 0 1 1646.55 1725)">字符</text></g><text font-family="Microsoft YaHei,Microsoft YaHei_MSFontService,sans-serif" font-weight="400" font-size="83" transform="matrix(1 0 0 1 1811.55 1725)">。</text><g><text font-family="Book Antiqua,Book Antiqua_MSFontService,sans-serif" font-weight="400" font-size="83" transform="matrix(1 0 0 1 244.936 1469)">A </text></g><text font-family="Book Antiqua,Book Antiqua_MSFontService,sans-serif" font-weight="400" font-size="83" transform="matrix(1 0 0 1 329.728 1469)">config</text><text font-family="Book Antiqua,Book Antiqua_MSFontService,sans-serif" font-weight="400" font-size="83" transform="matrix(1 0 0 1 577.8 1469)">file with lines commented </text><g><text font-family="Book Antiqua,Book Antiqua_MSFontService,sans-serif" font-weight="400" font-size="83" transform="matrix(1 0 0 1 244.936 1568)">out using the wrong character.</text></g><g><text fill="#FF0000" font-family="Microsoft YaHei,Microsoft YaHei_MSFontService,sans-serif" font-weight="400" font-size="83" transform="matrix(1 0 0 1 244.936 1675)">配置文件使用了非法字符</text></g><g><text font-family="Book Antiqua,Book Antiqua_MSFontService,sans-serif" font-weight="400" font-size="83" transform="matrix(1 0 0 1 3055.26 1940)">Invalid date error</text></g><text font-family="Book Antiqua,Book Antiqua_MSFontService,sans-serif" font-weight="400" font-size="83" transform="matrix(1 0 0 1 3699.79 1940)">.</text><g><text fill="#0000FF" font-family="Microsoft YaHei,Microsoft YaHei_MSFontService,sans-serif" font-weight="400" font-size="83" transform="matrix(1 0 0 1 3720.41 1948)">无效的日期</text></g><g><text fill="#0000FF" font-family="Microsoft YaHei,Microsoft YaHei_MSFontService,sans-serif" font-weight="400" font-size="83" transform="matrix(1 0 0 1 3055.26 2047)">错误。</text></g><g><text font-family="Book Antiqua,Book Antiqua_MSFontService,sans-serif" font-weight="400" font-size="83" transform="matrix(1 0 0 1 1646.55 1841)">Try parsing the string against a </text></g><g><text font-family="Book Antiqua,Book Antiqua_MSFontService,sans-serif" font-weight="400" font-size="83" transform="matrix(1 0 0 1 1646.55 1940)">number of different date formats. </text></g><g><text font-family="Book Antiqua,Book Antiqua_MSFontService,sans-serif" font-weight="400" font-size="83" transform="matrix(1 0 0 1 1646.55 2039)">Render the correct format back to the </text></g><g><text font-family="Book Antiqua,Book Antiqua_MSFontService,sans-serif" font-weight="400" font-size="83" transform="matrix(1 0 0 1 1646.55 2138)">user</text></g><text font-family="Book Antiqua,Book Antiqua_MSFontService,sans-serif" font-weight="400" font-size="83" transform="matrix(1 0 0 1 1803.53 2138)">.</text><text fill="#0000FF" font-family="Microsoft YaHei,Microsoft YaHei_MSFontService,sans-serif" font-weight="400" font-size="83" transform="matrix(1 0 0 1 1824.15 2146)">尝试根据多种不同的日期格式分</text><g clip-path="url(#clip0)"><text fill="#0000FF" font-family="Microsoft YaHei,Microsoft YaHei_MSFontService,sans-serif" font-weight="400" font-size="83" transform="matrix(1 0 0 1 1646.55 2245)">析字符串。将正确的格式渲染回用户。</text></g><g><text font-family="Book Antiqua,Book Antiqua_MSFontService,sans-serif" font-weight="400" font-size="83" transform="matrix(1 0 0 1 244.936 1940)">A user who enters dates in a strange </text></g><g><text font-family="Book Antiqua,Book Antiqua_MSFontService,sans-serif" font-weight="400" font-size="83" transform="matrix(1 0 0 1 244.936 2039)">format.</text></g><g><text fill="#FF0000" font-family="Microsoft YaHei,Microsoft YaHei_MSFontService,sans-serif" font-weight="400" font-size="83" transform="matrix(1 0 0 1 244.936 2146)">奇怪格式的日期输入</text></g></g></svg>