<svg width="3569" height="1208" xmlns="http://www.w3.org/2000/svg" xmlns:xlink="http://www.w3.org/1999/xlink" xml:space="preserve" overflow="hidden"><g transform="translate(-425 -663)"><rect x="426.5" y="1192.5" width="606" height="148" stroke="#0000FF" stroke-width="3.4375" stroke-linejoin="round" stroke-miterlimit="10" fill="#FFFFFF"/><text font-family="Microsoft YaHei,Microsoft YaHei_MSFontService,sans-serif" font-weight="400" font-size="92" transform="matrix(1 0 0 1 545.365 1299)">类间关系</text><rect x="1161.5" y="820.5" width="468" height="148" stroke="#0000FF" stroke-width="3.4375" stroke-linejoin="round" stroke-miterlimit="10" fill="#FFFFFF"/><text font-family="Microsoft YaHei,Microsoft YaHei_MSFontService,sans-serif" font-weight="400" font-size="92" transform="matrix(1 0 0 1 1212.03 927)">横向关系</text><rect x="1161.5" y="1554.5" width="468" height="148" stroke="#0000FF" stroke-width="3.4375" stroke-linejoin="round" stroke-miterlimit="10" fill="#FFFFFF"/><text font-family="Microsoft YaHei,Microsoft YaHei_MSFontService,sans-serif" font-weight="400" font-size="92" transform="matrix(1 0 0 1 1212.03 1661)">纵向关系</text><rect x="1814.5" y="672.5" width="304" height="148" stroke="#0000FF" stroke-width="3.4375" stroke-linejoin="round" stroke-miterlimit="10" fill="#FFFFFF"/><text font-family="Microsoft YaHei,Microsoft YaHei_MSFontService,sans-serif" font-weight="400" font-size="92" transform="matrix(1 0 0 1 1874.53 779)">依赖</text><rect x="1814.5" y="976.5" width="304" height="148" stroke="#0000FF" stroke-width="3.4375" stroke-linejoin="round" stroke-miterlimit="10" fill="#FFFFFF"/><text font-family="Microsoft YaHei,Microsoft YaHei_MSFontService,sans-serif" font-weight="400" font-size="92" transform="matrix(1 0 0 1 1874.53 1083)">关联</text><rect x="2279.5" y="976.5" width="305" height="148" stroke="#0000FF" stroke-width="3.4375" stroke-linejoin="round" stroke-miterlimit="10" fill="#FFFFFF"/><text font-family="Microsoft YaHei,Microsoft YaHei_MSFontService,sans-serif" font-weight="400" font-size="92" transform="matrix(1 0 0 1 2339.56 1083)">聚合</text><rect x="2744.5" y="976.5" width="305" height="148" stroke="#0000FF" stroke-width="3.4375" stroke-linejoin="round" stroke-miterlimit="10" fill="#FFFFFF"/><text font-family="Microsoft YaHei,Microsoft YaHei_MSFontService,sans-serif" font-weight="400" font-size="92" transform="matrix(1 0 0 1 2804.58 1083)">组合</text><rect x="1814.5" y="1406.5" width="304" height="148" stroke="#0000FF" stroke-width="3.4375" stroke-linejoin="round" stroke-miterlimit="10" fill="#FFFFFF"/><text font-family="Microsoft YaHei,Microsoft YaHei_MSFontService,sans-serif" font-weight="400" font-size="92" transform="matrix(1 0 0 1 1874.53 1513)">泛化</text><rect x="1814.5" y="1687.5" width="304" height="148" stroke="#0000FF" stroke-width="3.4375" stroke-linejoin="round" stroke-miterlimit="10" fill="#FFFFFF"/><text font-family="Microsoft YaHei,Microsoft YaHei_MSFontService,sans-serif" font-weight="400" font-size="92" transform="matrix(1 0 0 1 1874.53 1794)">实现</text><path d="M0-1.71875 64.968-1.71875C65.9173-1.71875 66.6868-0.949239 66.6868 0L66.6868 372.423 64.968 370.704 107.019 370.704 107.019 374.141 64.968 374.141C64.0188 374.141 63.2493 373.372 63.2493 372.423L63.2493 0 64.968 1.71875 0 1.71875ZM102.436 358.673 129.936 372.423 102.436 386.173Z" fill="#0000FF" transform="matrix(1 0 0 -1 1032.5 1266.92)"/><path d="M1032.5 1264.78 1097.47 1264.78C1098.42 1264.78 1099.19 1265.55 1099.19 1266.5L1099.19 1628.12 1097.47 1626.4 1139.52 1626.4 1139.52 1629.84 1097.47 1629.84C1096.52 1629.84 1095.75 1629.07 1095.75 1628.12L1095.75 1266.5 1097.47 1268.22 1032.5 1268.22ZM1134.94 1614.37 1162.44 1628.12 1134.94 1641.87Z" fill="#0000FF"/><path d="M0-1.71875 92.3275-1.71875C93.2767-1.71875 94.0462-0.949239 94.0462 0L94.0462 148.09 92.3275 146.371 161.738 146.371 161.738 149.809 92.3275 149.809C91.3782 149.809 90.6087 149.039 90.6087 148.09L90.6087 0 92.3275 1.71875 0 1.71875ZM157.155 134.34 184.655 148.09 157.155 161.84Z" fill="#0000FF" transform="matrix(1 0 0 -1 1629.5 894.59)"/><path d="M1629.5 892.781 1721.83 892.781C1722.78 892.781 1723.55 893.551 1723.55 894.5L1723.55 1051.19 1721.83 1049.47 1791.24 1049.47 1791.24 1052.91 1721.83 1052.91C1720.88 1052.91 1720.11 1052.14 1720.11 1051.19L1720.11 894.5 1721.83 896.219 1629.5 896.219ZM1786.65 1037.44 1814.15 1051.19 1786.65 1064.94Z" fill="#0000FF"/><path d="M2118.5 1048.78 2256.01 1048.78 2256.01 1052.22 2118.5 1052.22ZM2251.42 1036.75 2278.92 1050.5 2251.42 1064.25Z" fill="#0000FF"/><path d="M2584.5 1048.78 2722.01 1048.78 2722.01 1052.22 2584.5 1052.22ZM2717.42 1036.75 2744.92 1050.5 2717.42 1064.25Z" fill="#0000FF"/><path d="M0-1.71875 92.3275-1.71875C93.2767-1.71875 94.0462-0.949239 94.0462 0L94.0462 148.09 92.3275 146.371 161.738 146.371 161.738 149.809 92.3275 149.809C91.3782 149.809 90.6087 149.039 90.6087 148.09L90.6087 0 92.3275 1.71875 0 1.71875ZM157.155 134.34 184.655 148.09 157.155 161.84Z" fill="#0000FF" transform="matrix(1 0 0 -1 1629.5 1628.59)"/><path d="M1629.5 1626.78 1721.83 1626.78C1722.78 1626.78 1723.55 1627.55 1723.55 1628.5L1723.55 1761.58 1721.83 1759.86 1791.24 1759.86 1791.24 1763.3 1721.83 1763.3C1720.88 1763.3 1720.11 1762.53 1720.11 1761.58L1720.11 1628.5 1721.83 1630.22 1629.5 1630.22ZM1786.65 1747.83 1814.15 1761.58 1786.65 1775.33Z" fill="#0000FF"/><text fill="#0000FF" font-family="Microsoft YaHei,Microsoft YaHei_MSFontService,sans-serif" font-weight="400" font-size="92" transform="matrix(1 0 0 1 2314.67 895)">聚合属于特殊的关联关系；</text><text fill="#0000FF" font-family="Microsoft YaHei,Microsoft YaHei_MSFontService,sans-serif" font-weight="400" font-size="92" transform="matrix(1 0 0 1 2746.88 1312)">组合是一种特殊的聚合关系；</text></g></svg>