<svg width="3968" height="1622" xmlns="http://www.w3.org/2000/svg" xmlns:xlink="http://www.w3.org/1999/xlink" xml:space="preserve" overflow="hidden"><g transform="translate(-217 -453)"><path d="M550.874 459.244 550.874 2054.38" stroke="#000000" stroke-width="4.58333" stroke-linejoin="round" stroke-miterlimit="10" fill="none" fill-rule="evenodd"/><path d="M1746.25 459.244 1746.25 2054.38" stroke="#000000" stroke-width="4.58333" stroke-linejoin="round" stroke-miterlimit="10" fill="none" fill-rule="evenodd"/><path d="M217.708 594.688 4182.29 594.688" stroke="#000000" stroke-width="4.58333" stroke-linejoin="round" stroke-miterlimit="10" fill="none" fill-rule="evenodd"/><path d="M217.708 727.179 4182.29 727.179" stroke="#000000" stroke-width="4.58333" stroke-linejoin="round" stroke-miterlimit="10" fill="none" fill-rule="evenodd"/><path d="M217.708 859.67 4182.29 859.67" stroke="#000000" stroke-width="4.58333" stroke-linejoin="round" stroke-miterlimit="10" fill="none" fill-rule="evenodd"/><path d="M217.708 992.161 4182.29 992.161" stroke="#000000" stroke-width="4.58333" stroke-linejoin="round" stroke-miterlimit="10" fill="none" fill-rule="evenodd"/><path d="M217.708 1124.65 4182.29 1124.65" stroke="#000000" stroke-width="4.58333" stroke-linejoin="round" stroke-miterlimit="10" fill="none" fill-rule="evenodd"/><path d="M217.708 1257.14 4182.29 1257.14" stroke="#000000" stroke-width="4.58333" stroke-linejoin="round" stroke-miterlimit="10" fill="none" fill-rule="evenodd"/><path d="M217.708 1389.63 4182.29 1389.63" stroke="#000000" stroke-width="4.58333" stroke-linejoin="round" stroke-miterlimit="10" fill="none" fill-rule="evenodd"/><path d="M217.708 1522.13 4182.29 1522.13" stroke="#000000" stroke-width="4.58333" stroke-linejoin="round" stroke-miterlimit="10" fill="none" fill-rule="evenodd"/><path d="M217.708 1654.62 4182.29 1654.62" stroke="#000000" stroke-width="4.58333" stroke-linejoin="round" stroke-miterlimit="10" fill="none" fill-rule="evenodd"/><path d="M217.708 1787.11 4182.29 1787.11" stroke="#000000" stroke-width="4.58333" stroke-linejoin="round" stroke-miterlimit="10" fill="none" fill-rule="evenodd"/><path d="M217.708 1919.6 4182.29 1919.6" stroke="#000000" stroke-width="4.58333" stroke-linejoin="round" stroke-miterlimit="10" fill="none" fill-rule="evenodd"/><path d="M220 459.244 220 2054.38" stroke="#000000" stroke-width="4.58333" stroke-linejoin="round" stroke-miterlimit="10" fill="none" fill-rule="evenodd"/><path d="M4180 459.244 4180 2054.38" stroke="#000000" stroke-width="4.58333" stroke-linejoin="round" stroke-miterlimit="10" fill="none" fill-rule="evenodd"/><path d="M217.708 461.536 4182.29 461.536" stroke="#000000" stroke-width="4.58333" stroke-linejoin="round" stroke-miterlimit="10" fill="none" fill-rule="evenodd"/><path d="M217.708 2052.09 4182.29 2052.09" stroke="#000000" stroke-width="4.58333" stroke-linejoin="round" stroke-miterlimit="10" fill="none" fill-rule="evenodd"/><text fill="#0000FF" font-family="Microsoft YaHei,Microsoft YaHei_MSFontService,sans-serif" font-weight="400" font-size="73" transform="matrix(1 0 0 1 2889.79 553)">作用</text><text fill="#0000FF" font-family="Microsoft YaHei,Microsoft YaHei_MSFontService,sans-serif" font-weight="400" font-size="73" transform="matrix(1 0 0 1 965.228 553)">行为型模式</text><text fill="#0000FF" font-family="Book Antiqua,Book Antiqua_MSFontService,sans-serif" font-weight="400" font-size="83" transform="matrix(1 0 0 1 328.432 556)">No</text><g><text font-family="Microsoft YaHei,Microsoft YaHei_MSFontService,sans-serif" font-weight="400" font-size="73" transform="matrix(1 0 0 1 1779.25 686)">父类定义算法骨架，某些实现放在子类</text></g><g><text font-family="Microsoft YaHei,Microsoft YaHei_MSFontService,sans-serif" font-weight="400" font-size="73" transform="matrix(1 0 0 1 583.874 686)">模板方法</text></g><text font-family="Book Antiqua,Book Antiqua_MSFontService,sans-serif" font-weight="400" font-size="73" transform="matrix(1 0 0 1 895.541 686)">Template Method</text><text font-family="Book Antiqua,Book Antiqua_MSFontService,sans-serif" font-weight="700" font-size="73" transform="matrix(1 0 0 1 367.104 685)">1</text><g><text fill="#0000FF" font-family="Microsoft YaHei,Microsoft YaHei_MSFontService,sans-serif" font-weight="400" font-size="73" transform="matrix(1 0 0 1 1779.25 818)">每种算法独立封装，根据不同情况使用不同算法策略</text></g><g><text fill="#0000FF" font-family="Microsoft YaHei,Microsoft YaHei_MSFontService,sans-serif" font-weight="400" font-size="73" transform="matrix(1 0 0 1 583.874 818)">策略</text></g><text fill="#0000FF" font-family="Book Antiqua,Book Antiqua_MSFontService,sans-serif" font-weight="400" font-size="73" transform="matrix(1 0 0 1 748.874 818)">Strategy</text><text fill="#0000FF" font-family="Book Antiqua,Book Antiqua_MSFontService,sans-serif" font-weight="700" font-size="73" transform="matrix(1 0 0 1 367.104 817)">2</text><g><text fill="#0000FF" font-family="Microsoft YaHei,Microsoft YaHei_MSFontService,sans-serif" font-weight="400" font-size="73" transform="matrix(1 0 0 1 1779.25 951)">每种状态独立封装，不同状态内部封装了不同行为</text></g><g><text fill="#0000FF" font-family="Microsoft YaHei,Microsoft YaHei_MSFontService,sans-serif" font-weight="400" font-size="73" transform="matrix(1 0 0 1 583.874 951)">状态</text></g><text fill="#0000FF" font-family="Book Antiqua,Book Antiqua_MSFontService,sans-serif" font-weight="400" font-size="73" transform="matrix(1 0 0 1 748.874 951)">State</text><text fill="#0000FF" font-family="Book Antiqua,Book Antiqua_MSFontService,sans-serif" font-weight="700" font-size="73" transform="matrix(1 0 0 1 367.104 950)">3</text><g><text font-family="Microsoft YaHei,Microsoft YaHei_MSFontService,sans-serif" font-weight="400" font-size="73" transform="matrix(1 0 0 1 1779.25 1083)">将一个请求封装为一个对象，使发出请求的责任和执行请求的责任分割开</text></g><g><text font-family="Microsoft YaHei,Microsoft YaHei_MSFontService,sans-serif" font-weight="400" font-size="73" transform="matrix(1 0 0 1 583.874 1083)">命令</text></g><text font-family="Book Antiqua,Book Antiqua_MSFontService,sans-serif" font-weight="400" font-size="73" transform="matrix(1 0 0 1 748.874 1083)">Command</text><text font-family="Book Antiqua,Book Antiqua_MSFontService,sans-serif" font-weight="700" font-size="73" transform="matrix(1 0 0 1 367.104 1082)">4</text><g><text font-family="Microsoft YaHei,Microsoft YaHei_MSFontService,sans-serif" font-weight="400" font-size="73" transform="matrix(1 0 0 1 1779.25 1216)">所有处理者封装为链式结构，依次调用</text></g><g><text font-family="Microsoft YaHei,Microsoft YaHei_MSFontService,sans-serif" font-weight="400" font-size="73" transform="matrix(1 0 0 1 583.874 1216)">职责链</text></g><text font-family="Book Antiqua,Book Antiqua_MSFontService,sans-serif" font-weight="400" font-size="73" transform="matrix(1 0 0 1 822.207 1216)">Chain of Responsibility</text><text font-family="Book Antiqua,Book Antiqua_MSFontService,sans-serif" font-weight="700" font-size="73" transform="matrix(1 0 0 1 367.104 1215)">5</text><g><text font-family="Microsoft YaHei,Microsoft YaHei_MSFontService,sans-serif" font-weight="400" font-size="73" transform="matrix(1 0 0 1 1779.25 1348)">把核心信息抽取出来，可以进行保存</text></g><g><text font-family="Microsoft YaHei,Microsoft YaHei_MSFontService,sans-serif" font-weight="400" font-size="73" transform="matrix(1 0 0 1 583.874 1348)">备忘录</text></g><text font-family="Book Antiqua,Book Antiqua_MSFontService,sans-serif" font-weight="400" font-size="73" transform="matrix(1 0 0 1 822.207 1348)">Memento</text><text font-family="Book Antiqua,Book Antiqua_MSFontService,sans-serif" font-weight="700" font-size="73" transform="matrix(1 0 0 1 367.104 1347)">6</text><g><text font-family="Microsoft YaHei,Microsoft YaHei_MSFontService,sans-serif" font-weight="400" font-size="73" transform="matrix(1 0 0 1 1779.25 1481)">定义语法解析规则</text></g><g><text font-family="Microsoft YaHei,Microsoft YaHei_MSFontService,sans-serif" font-weight="400" font-size="73" transform="matrix(1 0 0 1 583.874 1481)">解释器</text></g><text font-family="Book Antiqua,Book Antiqua_MSFontService,sans-serif" font-weight="400" font-size="73" transform="matrix(1 0 0 1 822.207 1481)">Interpreter</text><text font-family="Book Antiqua,Book Antiqua_MSFontService,sans-serif" font-weight="700" font-size="73" transform="matrix(1 0 0 1 367.104 1480)">7</text><g><text font-family="Microsoft YaHei,Microsoft YaHei_MSFontService,sans-serif" font-weight="400" font-size="73" transform="matrix(1 0 0 1 1779.25 1613)">维护多个观察者依赖，状态变化通知所有观察者</text></g><g><text font-family="Microsoft YaHei,Microsoft YaHei_MSFontService,sans-serif" font-weight="400" font-size="73" transform="matrix(1 0 0 1 583.874 1613)">观察者</text></g><text font-family="Book Antiqua,Book Antiqua_MSFontService,sans-serif" font-weight="400" font-size="73" transform="matrix(1 0 0 1 822.207 1613)">Observer</text><text font-family="Book Antiqua,Book Antiqua_MSFontService,sans-serif" font-weight="700" font-size="73" transform="matrix(1 0 0 1 367.104 1612)">8</text><g><text font-family="Microsoft YaHei,Microsoft YaHei_MSFontService,sans-serif" font-weight="400" font-size="73" transform="matrix(1 0 0 1 1779.25 1746)">取消类</text></g><text font-family="Book Antiqua,Book Antiqua_MSFontService,sans-serif" font-weight="400" font-size="73" transform="matrix(1 0 0 1 1999.25 1746)">/</text><text font-family="Microsoft YaHei,Microsoft YaHei_MSFontService,sans-serif" font-weight="400" font-size="73" transform="matrix(1 0 0 1 2043.94 1746)">对象的直接调用关系，使用中介者维护</text><g><text font-family="Microsoft YaHei,Microsoft YaHei_MSFontService,sans-serif" font-weight="400" font-size="73" transform="matrix(1 0 0 1 583.874 1746)">中介者</text></g><text font-family="Book Antiqua,Book Antiqua_MSFontService,sans-serif" font-weight="400" font-size="73" transform="matrix(1 0 0 1 803.874 1746)">Mediator</text><text font-family="Book Antiqua,Book Antiqua_MSFontService,sans-serif" font-weight="700" font-size="73" transform="matrix(1 0 0 1 367.104 1745)">9</text><g><text font-family="Microsoft YaHei,Microsoft YaHei_MSFontService,sans-serif" font-weight="400" font-size="73" transform="matrix(1 0 0 1 1779.25 1878)">定义集合数据的遍历规则</text></g><g><text font-family="Microsoft YaHei,Microsoft YaHei_MSFontService,sans-serif" font-weight="400" font-size="73" transform="matrix(1 0 0 1 583.874 1878)">迭代器</text></g><text font-family="Book Antiqua,Book Antiqua_MSFontService,sans-serif" font-weight="400" font-size="73" transform="matrix(1 0 0 1 822.207 1878)">Iterator</text><text font-family="Book Antiqua,Book Antiqua_MSFontService,sans-serif" font-weight="700" font-size="73" transform="matrix(1 0 0 1 348.77 1877)">10</text><g><text font-family="Microsoft YaHei,Microsoft YaHei_MSFontService,sans-serif" font-weight="400" font-size="73" transform="matrix(1 0 0 1 1779.25 2011)">分离对象结构，与元素的执行算法</text></g><g><text font-family="Microsoft YaHei,Microsoft YaHei_MSFontService,sans-serif" font-weight="400" font-size="73" transform="matrix(1 0 0 1 583.874 2011)">访问者</text></g><text font-family="Book Antiqua,Book Antiqua_MSFontService,sans-serif" font-weight="400" font-size="73" transform="matrix(1 0 0 1 822.207 2011)">Visitor</text><text font-family="Book Antiqua,Book Antiqua_MSFontService,sans-serif" font-weight="700" font-size="73" transform="matrix(1 0 0 1 348.77 2010)">11</text></g></svg>