<svg width="3882" height="582" xmlns="http://www.w3.org/2000/svg" xmlns:xlink="http://www.w3.org/1999/xlink" xml:space="preserve" overflow="hidden"><g transform="translate(-300 -433)"><rect x="1260.5" y="632.5" width="2881" height="381" stroke="#0000FF" stroke-width="3.4375" stroke-linejoin="round" stroke-miterlimit="10" stroke-dasharray="13.75 10.3125" fill="none"/><text font-family="Consolas,Consolas_MSFontService,sans-serif" font-weight="400" font-size="83" transform="matrix(1 0 0 1 1325.38 727)">static </text><text font-family="Consolas,Consolas_MSFontService,sans-serif" font-weight="400" font-size="83" transform="matrix(1 0 0 1 1642.2 727)">int</text><text font-family="Consolas,Consolas_MSFontService,sans-serif" font-weight="400" font-size="83" transform="matrix(1 0 0 1 1823.24 727)">find(</text><text font-family="Consolas,Consolas_MSFontService,sans-serif" font-weight="400" font-size="83" transform="matrix(1 0 0 1 2049.54 727)">int</text><text font-family="Consolas,Consolas_MSFontService,sans-serif" font-weight="400" font-size="83" transform="matrix(1 0 0 1 2185.32 727)">[] </text><text font-family="Consolas,Consolas_MSFontService,sans-serif" font-weight="400" font-size="83" transform="matrix(1 0 0 1 2321.11 727)">arr</text><text font-family="Consolas,Consolas_MSFontService,sans-serif" font-weight="400" font-size="83" transform="matrix(1 0 0 1 2456.89 727)">, </text><text font-family="Consolas,Consolas_MSFontService,sans-serif" font-weight="400" font-size="83" transform="matrix(1 0 0 1 2547.41 727)">int</text><text font-family="Consolas,Consolas_MSFontService,sans-serif" font-weight="400" font-size="83" transform="matrix(1 0 0 1 2728.45 727)">val</text><text font-family="Consolas,Consolas_MSFontService,sans-serif" font-weight="400" font-size="83" transform="matrix(1 0 0 1 2864.23 727)">)</text><text fill="#0000FF" font-family="Consolas,Consolas_MSFontService,sans-serif" font-weight="400" font-size="83" transform="matrix(1 0 0 1 1325.38 826)">requires: </text><text fill="#C00000" font-family="Consolas,Consolas_MSFontService,sans-serif" font-style="italic" font-weight="400" font-size="83" transform="matrix(1 0 0 1 1777.98 826)">val</text><text font-family="Consolas,Consolas_MSFontService,sans-serif" font-weight="400" font-size="83" transform="matrix(1 0 0 1 1959.02 826)">occurs exactly once in</text><text fill="#C00000" font-family="Consolas,Consolas_MSFontService,sans-serif" font-style="italic" font-weight="400" font-size="83" transform="matrix(1 0 0 1 3000.01 826)">arr</text><text fill="#0000FF" font-family="Consolas,Consolas_MSFontService,sans-serif" font-weight="400" font-size="83" transform="matrix(1 0 0 1 1325.38 925)">effects: </text><text font-family="Consolas,Consolas_MSFontService,sans-serif" font-weight="400" font-size="83" transform="matrix(1 0 0 1 1732.72 925)">returns </text><text font-family="Consolas,Consolas_MSFontService,sans-serif" font-weight="400" font-size="83" transform="matrix(1 0 0 1 2094.8 925)">index</text><text fill="#C00000" font-family="Consolas,Consolas_MSFontService,sans-serif" font-style="italic" font-weight="400" font-size="83" transform="matrix(1 0 0 1 2366.37 925)">i</text><text font-family="Consolas,Consolas_MSFontService,sans-serif" font-weight="400" font-size="83" transform="matrix(1 0 0 1 2456.89 925)">such that</text><text fill="#C00000" font-family="Consolas,Consolas_MSFontService,sans-serif" font-style="italic" font-weight="400" font-size="83" transform="matrix(1 0 0 1 2909.49 925)">arr</text><text fill="#C00000" font-family="Consolas,Consolas_MSFontService,sans-serif" font-style="italic" font-weight="400" font-size="83" transform="matrix(1 0 0 1 3045.27 925)">[</text><text fill="#C00000" font-family="Consolas,Consolas_MSFontService,sans-serif" font-style="italic" font-weight="400" font-size="83" transform="matrix(1 0 0 1 3090.53 925)">i</text><text fill="#C00000" font-family="Consolas,Consolas_MSFontService,sans-serif" font-style="italic" font-weight="400" font-size="83" transform="matrix(1 0 0 1 3135.79 925)">]</text><text fill="#C00000" font-family="Consolas,Consolas_MSFontService,sans-serif" font-style="italic" font-weight="400" font-size="83" transform="matrix(1 0 0 1 3226.31 925)">=</text><text fill="#C00000" font-family="Consolas,Consolas_MSFontService,sans-serif" font-style="italic" font-weight="400" font-size="83" transform="matrix(1 0 0 1 3316.84 925)">val</text><rect x="3207" y="444" width="968" height="133" fill="#FFFFFF"/><text fill="#0000FF" font-family="Microsoft YaHei,Microsoft YaHei_MSFontService,sans-serif" font-weight="400" font-size="83" transform="matrix(1 0 0 1 3240.46 537)">方法的规约</text><text fill="#0000FF" font-family="Book Antiqua,Book Antiqua_MSFontService,sans-serif" font-weight="400" font-size="83" transform="matrix(1 0 0 1 3673.58 537)">specification</text><text font-family="Book Antiqua,Book Antiqua_MSFontService,sans-serif" font-weight="400" font-size="83" transform="matrix(1 0 0 1 355.09 826)">precondition</text><text font-family="Book Antiqua,Book Antiqua_MSFontService,sans-serif" font-weight="400" font-size="83" transform="matrix(1 0 0 1 355.09 932)">postcondition</text><path d="M1076.5 807.208 1259.32 807.209 1259.32 811.792 1076.5 811.792ZM1254.73 786.584 1300.57 809.5 1254.73 832.417Z" fill="#0000FF"/><path d="M1076.5 909.208 1259.32 909.209 1259.32 913.792 1076.5 913.792ZM1254.73 888.584 1300.57 911.5 1254.73 934.417Z" fill="#0000FF"/><text fill="#0000FF" font-family="Book Antiqua,Book Antiqua_MSFontService,sans-serif" font-weight="400" font-size="92" transform="matrix(1 0 0 1 355.09 712)">method signature </text><path d="M1076.5 691.208 1259.32 691.208 1259.32 695.792 1076.5 695.792ZM1254.73 670.583 1300.57 693.5 1254.73 716.417Z" fill="#0000FF"/><path d="M2.1169-0.877756 26.3393 57.5401 22.1055 59.2956-2.1169 0.877756ZM35.1684 48.9175 33 79.5869 9.76551 59.4506Z" fill="#0000FF" transform="matrix(-1 0 0 1 3553.5 553.5)"/></g></svg>